<?xml version="1.0"?>

<svg version="1.0" xmlns="http://www.w3.org/2000/svg" width="677.000000pt" height="369.000000pt" viewBox="0 0 677.000000 369.000000" preserveAspectRatio="xMidYMid meet">

<g transform="translate(0.000000,369.000000) scale(0.100000,-0.100000)" fill="#000000" stroke="none">
<path d="M3210 3504 c-356 -43 -695 -204 -953 -453 -267 -258 -426 -558 -493&#xA;-931 -24 -133 -24 -431 0 -555 52 -264 127 -450 267 -660 76 -114 231 -284&#xA;333 -364 243 -192 513 -308 815 -352 134 -19 421 -6 552 24 263 62 476 165&#xA;677 326 274 221 465 508 561 846 49 176 56 230 55 465 0 210 -2 233 -28 344&#xA;-126 540 -441 936 -926 1165 -216 101 -398 142 -650 146 -96 2 -191 1 -210 -1z&#xA;m435 -119 c287 -50 590 -202 794 -398 720 -694 633 -1863 -183 -2431 -245&#xA;-171 -513 -261 -811 -273 -769 -29 -1442 524 -1576 1297 -62 357 8 746 190&#xA;1055 258 439 685 713 1196 769 75 8 300 -3 390 -19z"></path>
<path d="M3220 3310 c-335 -44 -614 -182 -850 -419 -172 -173 -283 -349 -355&#xA;-565 -66 -197 -91 -397 -75 -597 30 -366 170 -670 430 -930 212 -213 446 -339&#xA;750 -405 118 -26 419 -26 537 -1 462 100 832 387 1033 802 100 206 150 423&#xA;150 650 0 702 -484 1300 -1168 1445 -110 24 -347 34 -452 20z m395 -96 c528&#xA;-91 972 -509 1099 -1034 114 -470 -16 -954 -348 -1299 -369 -381 -890 -519&#xA;-1380 -364 -476 150 -834 554 -943 1063 -25 118 -25 410 0 529 47 217 131 405&#xA;256 572 218 290 506 468 866 534 100 19 341 18 450 -1z"></path>
<path d="M3300 2802 c0 -153 -3 -282 -7 -286 -4 -3 -98 85 -210 196 l-203 202&#xA;-48 -47 -47 -48 95 -92 c52 -50 168 -163 258 -250 l162 -159 0 -119 c0 -74 -4&#xA;-119 -10 -119 -6 0 -97 84 -203 188 -106 103 -212 205 -235 227 l-42 39 -60&#xA;-59 c-33 -33 -59 -65 -58 -71 2 -6 113 -115 248 -243 135 -128 271 -259 303&#xA;-291 l57 -58 0 -100 c0 -56 -4 -103 -8 -106 -5 -3 -136 119 -293 270 -156 150&#xA;-288 274 -294 274 -10 0 -125 -110 -125 -121 0 -5 298 -293 661 -639 l59 -56&#xA;0 -101 c0 -56 -4 -104 -9 -108 -5 -3 -51 7 -101 21 -116 33 -184 30 -330 -17&#xA;-146 -46 -224 -46 -382 0 -65 19 -120 32 -124 29 -3 -4 0 -28 8 -55 13 -47 14&#xA;-48 79 -70 148 -50 316 -51 442 -3 120 46 225 46 331 0 24 -10 90 -26 147 -36&#xA;128 -21 235 -10 361 37 116 44 208 43 332 -1 66 -23 114 -33 185 -37 l96 -6&#xA;48 61 47 60 -37 -10 c-68 -19 -208 -4 -313 33 -81 28 -109 33 -190 33 -83 1&#xA;-108 -4 -200 -35 -58 -20 -129 -39 -157 -43 l-53 -7 1 133 0 133 300 285 c165&#xA;157 325 311 356 343 l57 57 -59 60 c-33 33 -65 59 -72 58 -7 -2 -133 -120&#xA;-280 -263 -148 -143 -276 -266 -285 -274 -17 -13 -18 -7 -18 102 l0 115 300&#xA;283 c165 156 300 289 300 294 0 6 -29 36 -64 67 l-64 57 -230 -224 c-127 -124&#xA;-233 -225 -236 -225 -3 0 -6 56 -6 125 l0 124 168 164 c92 90 205 200 252 245&#xA;l85 81 -48 48 -47 48 -205 -205 -205 -205 0 288 0 287 -90 0 -90 0 0 -278z"></path>
<path d="M2975 954 c-11 -3 -62 -19 -113 -35 -120 -38 -188 -44 -282 -26 l-75&#xA;15 61 -58 c43 -40 72 -59 97 -63 52 -8 140 6 250 42 54 17 117 31 141 31 25 0&#xA;95 -17 158 -37 109 -36 119 -37 258 -37 142 -1 147 0 260 38 136 45 175 45&#xA;314 -2 l90 -29 44 41 44 42 -123 39 c-112 36 -134 40 -224 39 -88 -1 -111 -5&#xA;-190 -34 -83 -31 -99 -34 -210 -34 -110 0 -128 3 -215 33 -93 33 -230 49 -285&#xA;35z"></path>
<path d="M2985 754 c-63 -16 -175 -57 -175 -63 0 -5 27 -20 59 -35 48 -21 64&#xA;-24 86 -16 54 21 179 12 272 -19 191 -63 309 -64 478 -6 55 19 120 35 144 35&#xA;30 0 64 11 113 37 76 40 75 43 -11 63 -71 17 -141 7 -270 -37 -93 -31 -118&#xA;-36 -201 -36 -82 0 -111 6 -210 38 -111 35 -233 52 -285 39z"></path>
</g>
</svg>