<svg width="932" height="122" viewBox="0 0 932 122" fill="none" xmlns="http://www.w3.org/2000/svg">
<path d="M93.184 66.944V70.656H7.67998V66.944H93.184ZM87.808 29.184L95.104 21.12L110.208 32.64C109.867 33.152 109.227 33.664 108.288 34.176C107.435 34.688 106.368 35.072 105.088 35.328V77.568C105.088 77.9093 104.32 78.3787 102.784 78.976C101.248 79.488 99.456 80 97.408 80.512C95.36 81.024 93.4827 81.28 91.776 81.28H89.088V29.184H87.808ZM15.744 78.08C15.744 78.592 15.0613 79.2747 13.696 80.128C12.416 80.9813 10.752 81.7493 8.70398 82.432C6.65598 83.0293 4.52265 83.328 2.30398 83.328H-1.90735e-05V29.056V22.4L17.024 29.056H92.416V32.768H15.744V78.08ZM65.024 2.94398C64.9386 3.79732 64.5546 4.56532 63.872 5.24799C63.2747 5.93065 62.08 6.39999 60.288 6.65599V115.328C60.288 115.84 59.648 116.565 58.368 117.504C57.088 118.443 55.424 119.253 53.376 119.936C51.4133 120.619 49.408 120.96 47.36 120.96H44.288V0.895988L65.024 2.94398ZM182.912 29.312H230.784L237.824 20.224C237.824 20.224 238.549 20.8213 240 22.016C241.451 23.2107 243.157 24.6187 245.12 26.24C247.168 27.8613 248.96 29.3973 250.496 30.848C250.155 32.2133 249.003 32.896 247.04 32.896H183.936L182.912 29.312ZM181.376 89.216H233.216L240.128 80C240.128 80 240.853 80.5973 242.304 81.792C243.755 82.9867 245.461 84.4373 247.424 86.144C249.472 87.7653 251.264 89.3013 252.8 90.752C252.459 92.1173 251.307 92.8 249.344 92.8H182.4L181.376 89.216ZM187.904 56.576H228.736L235.392 47.744C235.392 47.744 236.075 48.3413 237.44 49.536C238.805 50.6453 240.427 52.0107 242.304 53.632C244.181 55.168 245.845 56.704 247.296 58.24C247.04 59.6053 245.931 60.288 243.968 60.288H188.928L187.904 56.576ZM208.256 29.312H221.952V91.776H208.256V29.312ZM227.968 62.976C232.576 63.9147 236.16 65.1947 238.72 66.816C241.28 68.352 243.029 70.016 243.968 71.808C244.907 73.5147 245.205 75.136 244.864 76.672C244.608 78.208 243.925 79.488 242.816 80.512C241.707 81.536 240.341 82.048 238.72 82.048C237.099 82.048 235.435 81.3653 233.728 80C233.643 78.0373 233.216 76.0747 232.448 74.112C231.765 72.1493 230.912 70.272 229.888 68.48C228.864 66.6027 227.797 65.024 226.688 63.744L227.968 62.976ZM172.16 107.008H260.736V110.592H172.16V107.008ZM254.592 9.85599H253.312L260.608 1.66399L274.944 13.184C274.517 13.7813 273.835 14.336 272.896 14.848C272.043 15.2747 270.976 15.6587 269.696 16V115.456C269.696 115.883 269.013 116.48 267.648 117.248C266.283 118.016 264.619 118.699 262.656 119.296C260.693 119.979 258.773 120.32 256.896 120.32H254.592V9.85599ZM162.688 9.85599V3.19999L178.816 9.85599H259.84V13.44H177.536V115.328C177.536 116.011 176.939 116.779 175.744 117.632C174.635 118.485 173.141 119.253 171.264 119.936C169.472 120.619 167.467 120.96 165.248 120.96H162.688V9.85599ZM422.016 12.288C421.675 13.312 420.821 14.1227 419.456 14.72C418.091 15.3173 416.213 15.4027 413.824 14.976L416.896 12.8C415.445 18.2613 413.525 24.2347 411.136 30.72C408.747 37.12 406.059 43.7333 403.072 50.56C400.171 57.3867 397.056 64.0853 393.728 70.656C390.485 77.1413 387.157 83.2853 383.744 89.088C380.416 94.8053 377.173 99.7973 374.016 104.064L373.632 102.144H383.488C382.976 106.923 382.123 110.635 380.928 113.28C379.819 116.011 378.325 117.845 376.448 118.784L367.488 99.328C367.488 99.328 367.872 99.2 368.64 98.944C369.493 98.6027 370.347 98.176 371.2 97.664C372.139 97.0667 372.779 96.4693 373.12 95.872C374.827 92.544 376.661 88.1493 378.624 82.688C380.672 77.2267 382.763 71.1253 384.896 64.384C387.029 57.6427 389.035 50.6453 390.912 43.392C392.789 36.1387 394.411 29.0987 395.776 22.272C397.227 15.4453 398.251 9.25866 398.848 3.71199L422.016 12.288ZM371.968 99.456C375.296 99.2853 379.989 98.9013 386.048 98.304C392.107 97.7067 398.976 96.9813 406.656 96.128C414.336 95.2747 422.229 94.3787 430.336 93.44L430.592 94.976C425.472 97.4507 418.347 100.608 409.216 104.448C400.085 108.288 389.547 112.341 377.6 116.608L371.968 99.456ZM356.224 49.536C362.027 51.2427 366.635 53.2907 370.048 55.68C373.461 58.0693 375.851 60.5013 377.216 62.976C378.667 65.4507 379.307 67.7973 379.136 70.016C379.051 72.1493 378.411 73.8987 377.216 75.264C376.021 76.544 374.485 77.2267 372.608 77.312C370.731 77.3973 368.725 76.5867 366.592 74.88C366.165 72.064 365.312 69.2053 364.032 66.304C362.752 63.4027 361.301 60.5867 359.68 57.856C358.144 55.04 356.565 52.5227 354.944 50.304L356.224 49.536ZM358.272 116.736C358.272 117.077 357.76 117.589 356.736 118.272C355.712 118.955 354.304 119.595 352.512 120.192C350.805 120.789 348.715 121.088 346.24 121.088H343.552V18.432L358.272 12.544V116.736ZM358.272 43.52C355.2 54.528 350.379 64.5973 343.808 73.728C337.237 82.8587 329.301 90.8373 320 97.664L318.464 96.256C322.389 91.392 325.845 85.9307 328.832 79.872C331.819 73.8133 334.379 67.4987 336.512 60.928C338.731 54.272 340.523 47.7867 341.888 41.472H358.272V43.52ZM383.232 16.256C382.464 16.8533 381.312 17.1947 379.776 17.28C378.325 17.28 376.576 16.896 374.528 16.128C370.005 17.152 364.757 18.1333 358.784 19.072C352.811 19.9253 346.539 20.6933 339.968 21.376C333.397 21.9733 327.04 22.4 320.896 22.656L320.512 21.12C325.888 19.4987 331.52 17.536 337.408 15.232C343.296 12.8427 348.843 10.4107 354.048 7.93599C359.339 5.46132 363.648 3.19999 366.976 1.15199L383.232 16.256ZM369.792 30.208C369.792 30.208 370.261 30.6347 371.2 31.488C372.139 32.256 373.333 33.28 374.784 34.56C376.235 35.84 377.728 37.2053 379.264 38.656C380.885 40.1067 382.336 41.4293 383.616 42.624C383.275 43.9893 382.08 44.672 380.032 44.672H321.024L320 41.088H362.112L369.792 30.208ZM409.216 62.208C416.555 67.4133 422.443 72.704 426.88 78.08C431.317 83.456 434.603 88.576 436.736 93.44C438.869 98.2187 440.064 102.528 440.32 106.368C440.576 110.123 440.107 113.152 438.912 115.456C437.717 117.76 436.011 119.04 433.792 119.296C431.659 119.552 429.312 118.485 426.752 116.096C426.155 111.829 425.173 107.435 423.808 102.912C422.528 98.304 420.992 93.6533 419.2 88.96C417.408 84.2667 415.488 79.744 413.44 75.392C411.477 70.9547 409.515 66.7733 407.552 62.848L409.216 62.208ZM512 44.032H576.128V47.616H512V44.032ZM512 57.728H576.128V61.312H512V57.728ZM566.912 30.592H565.632L572.416 23.296L586.368 33.792C586.027 34.304 585.429 34.816 584.576 35.328C583.808 35.7547 582.827 36.096 581.632 36.352V61.696C581.632 61.952 580.949 62.4213 579.584 63.104C578.304 63.7867 576.683 64.4267 574.72 65.024C572.843 65.536 571.051 65.792 569.344 65.792H566.912V30.592ZM506.368 30.592V24.448L521.984 30.592H577.92V34.176H520.96V62.336C520.96 62.7627 520.32 63.36 519.04 64.128C517.845 64.8107 516.267 65.4507 514.304 66.048C512.427 66.56 510.464 66.816 508.416 66.816H506.368V30.592ZM484.736 70.912H581.76L589.312 61.696C589.312 61.696 590.08 62.2933 591.616 63.488C593.237 64.5973 595.115 66.0053 597.248 67.712C599.467 69.3333 601.472 70.912 603.264 72.448C602.923 73.8133 601.728 74.496 599.68 74.496H485.76L484.736 70.912ZM560.64 70.912C563.541 73.8133 567.467 76.3307 572.416 78.464C577.365 80.512 582.699 82.2187 588.416 83.584C594.133 84.864 599.637 85.8027 604.928 86.4L604.8 87.808C602.325 88.576 600.277 90.0693 598.656 92.288C597.035 94.4213 595.925 97.152 595.328 100.48C590.123 98.432 585.173 96.0427 580.48 93.312C575.872 90.5813 571.733 87.424 568.064 83.84C564.48 80.256 561.493 76.2453 559.104 71.808L560.64 70.912ZM537.6 64.896C534.101 70.1013 529.877 75.0507 524.928 79.744C519.979 84.4373 514.176 88.576 507.52 92.16C500.864 95.744 493.184 98.6027 484.48 100.736L483.584 99.2C494.165 93.9093 502.741 87.6373 509.312 80.384C515.883 73.0453 520.661 65.5787 523.648 57.984L543.488 62.464C543.232 63.232 542.677 63.8293 541.824 64.256C541.056 64.6827 539.648 64.896 537.6 64.896ZM510.592 88.32H571.52V91.904H511.744L510.592 88.32ZM563.584 88.32H562.304L569.216 81.792L581.888 92.032C581.461 92.544 580.821 92.9707 579.968 93.312C579.2 93.6533 578.176 93.9093 576.896 94.08C576.128 100.224 574.976 105.259 573.44 109.184C571.904 113.109 569.728 115.883 566.912 117.504C565.12 118.613 563.029 119.424 560.64 119.936C558.251 120.533 555.477 120.832 552.32 120.832C552.405 118.955 552.277 117.248 551.936 115.712C551.595 114.176 550.955 112.939 550.016 112C548.907 110.976 547.371 110.123 545.408 109.44C543.445 108.672 541.184 108.075 538.624 107.648V105.856C540.331 105.941 542.251 106.069 544.384 106.24C546.517 106.411 548.523 106.539 550.4 106.624C552.363 106.709 553.728 106.752 554.496 106.752C556.288 106.752 557.611 106.496 558.464 105.984C559.573 105.216 560.555 103.296 561.408 100.224C562.347 97.0667 563.072 93.0987 563.584 88.32ZM533.504 75.904L553.472 79.104C553.216 80.0427 552.704 80.8107 551.936 81.408C551.168 81.92 550.059 82.176 548.608 82.176C547.584 86.528 545.92 90.6667 543.616 94.592C541.397 98.5173 538.197 102.144 534.016 105.472C529.92 108.8 524.587 111.787 518.016 114.432C511.531 117.077 503.509 119.253 493.952 120.96L493.312 119.424C501.077 116.864 507.477 113.963 512.512 110.72C517.632 107.477 521.643 103.979 524.544 100.224C527.445 96.4693 529.579 92.544 530.944 88.448C532.309 84.352 533.163 80.1707 533.504 75.904ZM484.992 14.72H518.784V1.02399L537.6 2.68799C537.515 3.54132 537.173 4.26665 536.576 4.86399C535.979 5.46132 534.827 5.88799 533.12 6.14399V14.72H553.856V1.02399L573.056 2.68799C572.971 3.54132 572.587 4.26665 571.904 4.86399C571.307 5.46132 570.155 5.88799 568.448 6.14399V14.72H582.272L589.696 5.24799C589.696 5.24799 590.464 5.84532 592 7.03999C593.536 8.23465 595.328 9.68532 597.376 11.392C599.424 13.0987 601.259 14.7627 602.88 16.384C602.539 17.7493 601.344 18.432 599.296 18.432H568.448V25.216C568.448 25.728 567.253 26.368 564.864 27.136C562.56 27.8187 559.701 28.16 556.288 28.16H553.856V18.432H533.12V25.728C533.12 26.24 531.925 26.88 529.536 27.648C527.147 28.416 524.331 28.8 521.088 28.8H518.784V18.432H485.888L484.992 14.72ZM711.808 -1.52588e-05C717.867 0.597321 722.645 1.74932 726.144 3.45599C729.643 5.16266 732.117 7.12532 733.568 9.34399C735.019 11.5627 735.659 13.7387 735.488 15.872C735.317 17.92 734.549 19.6693 733.184 21.12C731.904 22.5707 730.197 23.424 728.064 23.68C726.016 23.8507 723.797 23.1253 721.408 21.504C721.152 18.944 720.469 16.4267 719.36 13.952C718.336 11.392 717.056 8.95999 715.52 6.65599C714.069 4.35199 712.491 2.38932 710.784 0.76799L711.808 -1.52588e-05ZM692.608 6.65599C692.352 7.42399 691.797 8.06399 690.944 8.57599C690.176 9.08799 689.024 9.34399 687.488 9.34399C684.501 18.1333 681.003 26.24 676.992 33.664C672.981 41.088 668.544 47.872 663.68 54.016C658.901 60.0747 653.696 65.408 648.064 70.016L646.528 68.992C649.856 63.4453 653.099 56.96 656.256 49.536C659.413 42.112 662.315 34.2187 664.96 25.856C667.605 17.408 669.739 8.95999 671.36 0.511986L692.608 6.65599ZM681.6 38.4C681.429 38.9973 681.045 39.5093 680.448 39.936C679.851 40.3627 678.912 40.704 677.632 40.96V116.608C677.547 116.949 676.907 117.461 675.712 118.144C674.517 118.912 673.024 119.552 671.232 120.064C669.44 120.661 667.563 120.96 665.6 120.96H662.784V41.216L668.544 33.664L681.6 38.4ZM740.864 77.696L747.904 70.144L762.368 81.152C762.027 81.664 761.429 82.176 760.576 82.688C759.723 83.2 758.613 83.584 757.248 83.84V115.2C757.248 115.541 756.523 116.011 755.072 116.608C753.707 117.291 752.085 117.888 750.208 118.4C748.331 118.997 746.496 119.296 744.704 119.296H742.144V77.696H740.864ZM708.608 116.224C708.608 116.651 707.968 117.248 706.688 118.016C705.408 118.784 703.787 119.467 701.824 120.064C699.947 120.661 697.984 120.96 695.936 120.96H693.76V77.696V71.552L709.376 77.696H750.208V81.408H708.608V116.224ZM750.72 106.368V110.08H702.208V106.368H750.72ZM748.032 51.2C748.032 51.2 748.501 51.584 749.44 52.352C750.379 53.12 751.531 54.1013 752.896 55.296C754.261 56.4053 755.669 57.6427 757.12 59.008C758.656 60.288 760.021 61.5253 761.216 62.72C760.875 64.0853 759.723 64.768 757.76 64.768H693.76L692.736 61.056H740.864L748.032 51.2ZM748.288 32.896C748.288 32.896 748.715 33.28 749.568 34.048C750.421 34.7307 751.531 35.6693 752.896 36.864C754.261 37.9733 755.712 39.2107 757.248 40.576C758.784 41.9413 760.149 43.1787 761.344 44.288C761.088 45.6533 759.936 46.336 757.888 46.336H692.992L691.968 42.752H740.992L748.288 32.896ZM755.2 14.208C755.2 14.208 755.669 14.592 756.608 15.36C757.632 16.128 758.869 17.152 760.32 18.432C761.856 19.712 763.435 21.0773 765.056 22.528C766.763 23.8933 768.256 25.216 769.536 26.496C769.195 27.8613 768.043 28.544 766.08 28.544H684.928L683.904 24.832H747.264L755.2 14.208ZM849.92 21.376L910.208 17.152L916.992 7.55199C916.992 7.55199 917.803 8.10665 919.424 9.21599C921.045 10.24 922.965 11.52 925.184 13.056C927.403 14.5067 929.408 15.872 931.2 17.152C931.115 17.92 930.731 18.5173 930.048 18.944C929.451 19.2853 928.725 19.4987 927.872 19.584L851.2 25.088L849.92 21.376ZM863.872 0.76799L882.816 2.04799C882.731 2.73066 882.347 3.37066 881.664 3.96799C881.067 4.56532 880.171 4.99199 878.976 5.24799C880.171 10.1973 881.963 14.6773 884.352 18.688C886.827 22.6987 890.411 26.0693 895.104 28.8C899.797 31.5307 906.155 33.4507 914.176 34.56C915.627 34.7307 916.693 34.7733 917.376 34.688C918.144 34.6027 918.741 34.2187 919.168 33.536C919.936 32.4267 920.789 30.8053 921.728 28.672C922.667 26.4533 923.477 24.32 924.16 22.272L925.568 22.4L924.8 35.072C927.445 36.608 929.024 37.888 929.536 38.912C930.133 39.8507 930.219 41.0027 929.792 42.368C929.195 44.3307 927.915 45.7387 925.952 46.592C924.075 47.36 921.771 47.7013 919.04 47.616C916.395 47.4453 913.664 47.104 910.848 46.592C902.485 45.1413 895.488 43.008 889.856 40.192C884.309 37.376 879.787 34.0053 876.288 30.08C872.875 26.1547 870.187 21.76 868.224 16.896C866.347 11.9467 864.896 6.57065 863.872 0.76799ZM888.064 1.40799C893.013 1.23732 896.939 1.62132 899.84 2.55999C902.741 3.49865 904.832 4.69332 906.112 6.14399C907.477 7.59466 908.16 9.08799 908.16 10.624C908.16 12.0747 907.648 13.3547 906.624 14.464C905.685 15.5733 904.405 16.256 902.784 16.512C901.163 16.768 899.413 16.384 897.536 15.36C896.939 13.824 896.043 12.2453 894.848 10.624C893.653 9.00265 892.373 7.46665 891.008 6.01599C889.643 4.56532 888.32 3.32799 887.04 2.30399L888.064 1.40799ZM839.424 0.383987L857.344 7.93599C857.003 8.61866 856.491 9.17332 855.808 9.59999C855.125 9.94132 854.059 10.0267 852.608 9.85599C849.877 13.5253 846.421 17.28 842.24 21.12C838.144 24.96 833.536 28.544 828.416 31.872C823.296 35.2 817.92 37.9733 812.288 40.192L811.264 38.784C815.36 35.3707 819.243 31.4453 822.912 27.008C826.667 22.5707 829.952 18.0053 832.768 13.312C835.669 8.61865 837.888 4.30932 839.424 0.383987ZM832.512 21.632L837.12 15.744L850.688 20.736C850.261 21.9307 848.939 22.7413 846.72 23.168V42.752C846.72 43.0933 846.123 43.6053 844.928 44.288C843.819 44.9707 842.368 45.568 840.576 46.08C838.869 46.592 837.077 46.848 835.2 46.848H832.512V21.632ZM841.088 62.336H906.88V66.048H841.088V62.336ZM841.088 77.184H906.88V80.768H841.088V77.184ZM841.088 92.288H906.88V95.872H841.088V92.288ZM896.768 47.872H895.488L902.272 40.448L916.352 51.2C916.011 51.6267 915.456 52.096 914.688 52.608C913.92 53.0347 912.981 53.376 911.872 53.632V97.28C911.872 97.536 911.147 98.0053 909.696 98.688C908.331 99.2853 906.667 99.84 904.704 100.352C902.741 100.779 900.949 100.992 899.328 100.992H896.768V47.872ZM834.56 47.872V41.6L850.176 47.872H907.52V51.456H849.28V98.432C849.28 98.944 848.64 99.584 847.36 100.352C846.165 101.12 844.587 101.803 842.624 102.4C840.747 102.997 838.784 103.296 836.736 103.296H834.56V47.872ZM857.856 97.28L873.216 109.184C872.619 109.781 871.723 110.123 870.528 110.208C869.333 110.379 867.712 110.165 865.664 109.568C861.483 111.445 856.576 113.152 850.944 114.688C845.312 116.309 839.296 117.632 832.896 118.656C826.581 119.765 820.139 120.533 813.568 120.96L813.184 119.168C818.901 117.632 824.619 115.627 830.336 113.152C836.053 110.763 841.301 108.16 846.08 105.344C850.944 102.528 854.869 99.84 857.856 97.28ZM878.08 101.12C888.405 101.291 896.853 101.888 903.424 102.912C910.08 103.936 915.2 105.259 918.784 106.88C922.368 108.416 924.715 109.995 925.824 111.616C927.019 113.323 927.317 114.901 926.72 116.352C926.208 117.803 925.099 118.955 923.392 119.808C921.685 120.661 919.723 121.045 917.504 120.96C915.371 120.875 913.323 120.149 911.36 118.784C908.288 116.309 903.893 113.579 898.176 110.592C892.544 107.605 885.717 105.003 877.696 102.784L878.08 101.12Z" fill="#1E4040"></path>
<path d="M93.184 66.944V70.656H7.67998V66.944H93.184ZM87.808 29.184L95.104 21.12L110.208 32.64C109.867 33.152 109.227 33.664 108.288 34.176C107.435 34.688 106.368 35.072 105.088 35.328V77.568C105.088 77.9093 104.32 78.3787 102.784 78.976C101.248 79.488 99.456 80 97.408 80.512C95.36 81.024 93.4827 81.28 91.776 81.28H89.088V29.184H87.808ZM15.744 78.08C15.744 78.592 15.0613 79.2747 13.696 80.128C12.416 80.9813 10.752 81.7493 8.70398 82.432C6.65598 83.0293 4.52265 83.328 2.30398 83.328H-1.90735e-05V29.056V22.4L17.024 29.056H92.416V32.768H15.744V78.08ZM65.024 2.94398C64.9386 3.79732 64.5546 4.56532 63.872 5.24799C63.2747 5.93065 62.08 6.39999 60.288 6.65599V115.328C60.288 115.84 59.648 116.565 58.368 117.504C57.088 118.443 55.424 119.253 53.376 119.936C51.4133 120.619 49.408 120.96 47.36 120.96H44.288V0.895988L65.024 2.94398ZM182.912 29.312H230.784L237.824 20.224C237.824 20.224 238.549 20.8213 240 22.016C241.451 23.2107 243.157 24.6187 245.12 26.24C247.168 27.8613 248.96 29.3973 250.496 30.848C250.155 32.2133 249.003 32.896 247.04 32.896H183.936L182.912 29.312ZM181.376 89.216H233.216L240.128 80C240.128 80 240.853 80.5973 242.304 81.792C243.755 82.9867 245.461 84.4373 247.424 86.144C249.472 87.7653 251.264 89.3013 252.8 90.752C252.459 92.1173 251.307 92.8 249.344 92.8H182.4L181.376 89.216ZM187.904 56.576H228.736L235.392 47.744C235.392 47.744 236.075 48.3413 237.44 49.536C238.805 50.6453 240.427 52.0107 242.304 53.632C244.181 55.168 245.845 56.704 247.296 58.24C247.04 59.6053 245.931 60.288 243.968 60.288H188.928L187.904 56.576ZM208.256 29.312H221.952V91.776H208.256V29.312ZM227.968 62.976C232.576 63.9147 236.16 65.1947 238.72 66.816C241.28 68.352 243.029 70.016 243.968 71.808C244.907 73.5147 245.205 75.136 244.864 76.672C244.608 78.208 243.925 79.488 242.816 80.512C241.707 81.536 240.341 82.048 238.72 82.048C237.099 82.048 235.435 81.3653 233.728 80C233.643 78.0373 233.216 76.0747 232.448 74.112C231.765 72.1493 230.912 70.272 229.888 68.48C228.864 66.6027 227.797 65.024 226.688 63.744L227.968 62.976ZM172.16 107.008H260.736V110.592H172.16V107.008ZM254.592 9.85599H253.312L260.608 1.66399L274.944 13.184C274.517 13.7813 273.835 14.336 272.896 14.848C272.043 15.2747 270.976 15.6587 269.696 16V115.456C269.696 115.883 269.013 116.48 267.648 117.248C266.283 118.016 264.619 118.699 262.656 119.296C260.693 119.979 258.773 120.32 256.896 120.32H254.592V9.85599ZM162.688 9.85599V3.19999L178.816 9.85599H259.84V13.44H177.536V115.328C177.536 116.011 176.939 116.779 175.744 117.632C174.635 118.485 173.141 119.253 171.264 119.936C169.472 120.619 167.467 120.96 165.248 120.96H162.688V9.85599ZM422.016 12.288C421.675 13.312 420.821 14.1227 419.456 14.72C418.091 15.3173 416.213 15.4027 413.824 14.976L416.896 12.8C415.445 18.2613 413.525 24.2347 411.136 30.72C408.747 37.12 406.059 43.7333 403.072 50.56C400.171 57.3867 397.056 64.0853 393.728 70.656C390.485 77.1413 387.157 83.2853 383.744 89.088C380.416 94.8053 377.173 99.7973 374.016 104.064L373.632 102.144H383.488C382.976 106.923 382.123 110.635 380.928 113.28C379.819 116.011 378.325 117.845 376.448 118.784L367.488 99.328C367.488 99.328 367.872 99.2 368.64 98.944C369.493 98.6027 370.347 98.176 371.2 97.664C372.139 97.0667 372.779 96.4693 373.12 95.872C374.827 92.544 376.661 88.1493 378.624 82.688C380.672 77.2267 382.763 71.1253 384.896 64.384C387.029 57.6427 389.035 50.6453 390.912 43.392C392.789 36.1387 394.411 29.0987 395.776 22.272C397.227 15.4453 398.251 9.25866 398.848 3.71199L422.016 12.288ZM371.968 99.456C375.296 99.2853 379.989 98.9013 386.048 98.304C392.107 97.7067 398.976 96.9813 406.656 96.128C414.336 95.2747 422.229 94.3787 430.336 93.44L430.592 94.976C425.472 97.4507 418.347 100.608 409.216 104.448C400.085 108.288 389.547 112.341 377.6 116.608L371.968 99.456ZM356.224 49.536C362.027 51.2427 366.635 53.2907 370.048 55.68C373.461 58.0693 375.851 60.5013 377.216 62.976C378.667 65.4507 379.307 67.7973 379.136 70.016C379.051 72.1493 378.411 73.8987 377.216 75.264C376.021 76.544 374.485 77.2267 372.608 77.312C370.731 77.3973 368.725 76.5867 366.592 74.88C366.165 72.064 365.312 69.2053 364.032 66.304C362.752 63.4027 361.301 60.5867 359.68 57.856C358.144 55.04 356.565 52.5227 354.944 50.304L356.224 49.536ZM358.272 116.736C358.272 117.077 357.76 117.589 356.736 118.272C355.712 118.955 354.304 119.595 352.512 120.192C350.805 120.789 348.715 121.088 346.24 121.088H343.552V18.432L358.272 12.544V116.736ZM358.272 43.52C355.2 54.528 350.379 64.5973 343.808 73.728C337.237 82.8587 329.301 90.8373 320 97.664L318.464 96.256C322.389 91.392 325.845 85.9307 328.832 79.872C331.819 73.8133 334.379 67.4987 336.512 60.928C338.731 54.272 340.523 47.7867 341.888 41.472H358.272V43.52ZM383.232 16.256C382.464 16.8533 381.312 17.1947 379.776 17.28C378.325 17.28 376.576 16.896 374.528 16.128C370.005 17.152 364.757 18.1333 358.784 19.072C352.811 19.9253 346.539 20.6933 339.968 21.376C333.397 21.9733 327.04 22.4 320.896 22.656L320.512 21.12C325.888 19.4987 331.52 17.536 337.408 15.232C343.296 12.8427 348.843 10.4107 354.048 7.93599C359.339 5.46132 363.648 3.19999 366.976 1.15199L383.232 16.256ZM369.792 30.208C369.792 30.208 370.261 30.6347 371.2 31.488C372.139 32.256 373.333 33.28 374.784 34.56C376.235 35.84 377.728 37.2053 379.264 38.656C380.885 40.1067 382.336 41.4293 383.616 42.624C383.275 43.9893 382.08 44.672 380.032 44.672H321.024L320 41.088H362.112L369.792 30.208ZM409.216 62.208C416.555 67.4133 422.443 72.704 426.88 78.08C431.317 83.456 434.603 88.576 436.736 93.44C438.869 98.2187 440.064 102.528 440.32 106.368C440.576 110.123 440.107 113.152 438.912 115.456C437.717 117.76 436.011 119.04 433.792 119.296C431.659 119.552 429.312 118.485 426.752 116.096C426.155 111.829 425.173 107.435 423.808 102.912C422.528 98.304 420.992 93.6533 419.2 88.96C417.408 84.2667 415.488 79.744 413.44 75.392C411.477 70.9547 409.515 66.7733 407.552 62.848L409.216 62.208ZM512 44.032H576.128V47.616H512V44.032ZM512 57.728H576.128V61.312H512V57.728ZM566.912 30.592H565.632L572.416 23.296L586.368 33.792C586.027 34.304 585.429 34.816 584.576 35.328C583.808 35.7547 582.827 36.096 581.632 36.352V61.696C581.632 61.952 580.949 62.4213 579.584 63.104C578.304 63.7867 576.683 64.4267 574.72 65.024C572.843 65.536 571.051 65.792 569.344 65.792H566.912V30.592ZM506.368 30.592V24.448L521.984 30.592H577.92V34.176H520.96V62.336C520.96 62.7627 520.32 63.36 519.04 64.128C517.845 64.8107 516.267 65.4507 514.304 66.048C512.427 66.56 510.464 66.816 508.416 66.816H506.368V30.592ZM484.736 70.912H581.76L589.312 61.696C589.312 61.696 590.08 62.2933 591.616 63.488C593.237 64.5973 595.115 66.0053 597.248 67.712C599.467 69.3333 601.472 70.912 603.264 72.448C602.923 73.8133 601.728 74.496 599.68 74.496H485.76L484.736 70.912ZM560.64 70.912C563.541 73.8133 567.467 76.3307 572.416 78.464C577.365 80.512 582.699 82.2187 588.416 83.584C594.133 84.864 599.637 85.8027 604.928 86.4L604.8 87.808C602.325 88.576 600.277 90.0693 598.656 92.288C597.035 94.4213 595.925 97.152 595.328 100.48C590.123 98.432 585.173 96.0427 580.48 93.312C575.872 90.5813 571.733 87.424 568.064 83.84C564.48 80.256 561.493 76.2453 559.104 71.808L560.64 70.912ZM537.6 64.896C534.101 70.1013 529.877 75.0507 524.928 79.744C519.979 84.4373 514.176 88.576 507.52 92.16C500.864 95.744 493.184 98.6027 484.48 100.736L483.584 99.2C494.165 93.9093 502.741 87.6373 509.312 80.384C515.883 73.0453 520.661 65.5787 523.648 57.984L543.488 62.464C543.232 63.232 542.677 63.8293 541.824 64.256C541.056 64.6827 539.648 64.896 537.6 64.896ZM510.592 88.32H571.52V91.904H511.744L510.592 88.32ZM563.584 88.32H562.304L569.216 81.792L581.888 92.032C581.461 92.544 580.821 92.9707 579.968 93.312C579.2 93.6533 578.176 93.9093 576.896 94.08C576.128 100.224 574.976 105.259 573.44 109.184C571.904 113.109 569.728 115.883 566.912 117.504C565.12 118.613 563.029 119.424 560.64 119.936C558.251 120.533 555.477 120.832 552.32 120.832C552.405 118.955 552.277 117.248 551.936 115.712C551.595 114.176 550.955 112.939 550.016 112C548.907 110.976 547.371 110.123 545.408 109.44C543.445 108.672 541.184 108.075 538.624 107.648V105.856C540.331 105.941 542.251 106.069 544.384 106.24C546.517 106.411 548.523 106.539 550.4 106.624C552.363 106.709 553.728 106.752 554.496 106.752C556.288 106.752 557.611 106.496 558.464 105.984C559.573 105.216 560.555 103.296 561.408 100.224C562.347 97.0667 563.072 93.0987 563.584 88.32ZM533.504 75.904L553.472 79.104C553.216 80.0427 552.704 80.8107 551.936 81.408C551.168 81.92 550.059 82.176 548.608 82.176C547.584 86.528 545.92 90.6667 543.616 94.592C541.397 98.5173 538.197 102.144 534.016 105.472C529.92 108.8 524.587 111.787 518.016 114.432C511.531 117.077 503.509 119.253 493.952 120.96L493.312 119.424C501.077 116.864 507.477 113.963 512.512 110.72C517.632 107.477 521.643 103.979 524.544 100.224C527.445 96.4693 529.579 92.544 530.944 88.448C532.309 84.352 533.163 80.1707 533.504 75.904ZM484.992 14.72H518.784V1.02399L537.6 2.68799C537.515 3.54132 537.173 4.26665 536.576 4.86399C535.979 5.46132 534.827 5.88799 533.12 6.14399V14.72H553.856V1.02399L573.056 2.68799C572.971 3.54132 572.587 4.26665 571.904 4.86399C571.307 5.46132 570.155 5.88799 568.448 6.14399V14.72H582.272L589.696 5.24799C589.696 5.24799 590.464 5.84532 592 7.03999C593.536 8.23465 595.328 9.68532 597.376 11.392C599.424 13.0987 601.259 14.7627 602.88 16.384C602.539 17.7493 601.344 18.432 599.296 18.432H568.448V25.216C568.448 25.728 567.253 26.368 564.864 27.136C562.56 27.8187 559.701 28.16 556.288 28.16H553.856V18.432H533.12V25.728C533.12 26.24 531.925 26.88 529.536 27.648C527.147 28.416 524.331 28.8 521.088 28.8H518.784V18.432H485.888L484.992 14.72ZM711.808 -1.52588e-05C717.867 0.597321 722.645 1.74932 726.144 3.45599C729.643 5.16266 732.117 7.12532 733.568 9.34399C735.019 11.5627 735.659 13.7387 735.488 15.872C735.317 17.92 734.549 19.6693 733.184 21.12C731.904 22.5707 730.197 23.424 728.064 23.68C726.016 23.8507 723.797 23.1253 721.408 21.504C721.152 18.944 720.469 16.4267 719.36 13.952C718.336 11.392 717.056 8.95999 715.52 6.65599C714.069 4.35199 712.491 2.38932 710.784 0.76799L711.808 -1.52588e-05ZM692.608 6.65599C692.352 7.42399 691.797 8.06399 690.944 8.57599C690.176 9.08799 689.024 9.34399 687.488 9.34399C684.501 18.1333 681.003 26.24 676.992 33.664C672.981 41.088 668.544 47.872 663.68 54.016C658.901 60.0747 653.696 65.408 648.064 70.016L646.528 68.992C649.856 63.4453 653.099 56.96 656.256 49.536C659.413 42.112 662.315 34.2187 664.96 25.856C667.605 17.408 669.739 8.95999 671.36 0.511986L692.608 6.65599ZM681.6 38.4C681.429 38.9973 681.045 39.5093 680.448 39.936C679.851 40.3627 678.912 40.704 677.632 40.96V116.608C677.547 116.949 676.907 117.461 675.712 118.144C674.517 118.912 673.024 119.552 671.232 120.064C669.44 120.661 667.563 120.96 665.6 120.96H662.784V41.216L668.544 33.664L681.6 38.4ZM740.864 77.696L747.904 70.144L762.368 81.152C762.027 81.664 761.429 82.176 760.576 82.688C759.723 83.2 758.613 83.584 757.248 83.84V115.2C757.248 115.541 756.523 116.011 755.072 116.608C753.707 117.291 752.085 117.888 750.208 118.4C748.331 118.997 746.496 119.296 744.704 119.296H742.144V77.696H740.864ZM708.608 116.224C708.608 116.651 707.968 117.248 706.688 118.016C705.408 118.784 703.787 119.467 701.824 120.064C699.947 120.661 697.984 120.96 695.936 120.96H693.76V77.696V71.552L709.376 77.696H750.208V81.408H708.608V116.224ZM750.72 106.368V110.08H702.208V106.368H750.72ZM748.032 51.2C748.032 51.2 748.501 51.584 749.44 52.352C750.379 53.12 751.531 54.1013 752.896 55.296C754.261 56.4053 755.669 57.6427 757.12 59.008C758.656 60.288 760.021 61.5253 761.216 62.72C760.875 64.0853 759.723 64.768 757.76 64.768H693.76L692.736 61.056H740.864L748.032 51.2ZM748.288 32.896C748.288 32.896 748.715 33.28 749.568 34.048C750.421 34.7307 751.531 35.6693 752.896 36.864C754.261 37.9733 755.712 39.2107 757.248 40.576C758.784 41.9413 760.149 43.1787 761.344 44.288C761.088 45.6533 759.936 46.336 757.888 46.336H692.992L691.968 42.752H740.992L748.288 32.896ZM755.2 14.208C755.2 14.208 755.669 14.592 756.608 15.36C757.632 16.128 758.869 17.152 760.32 18.432C761.856 19.712 763.435 21.0773 765.056 22.528C766.763 23.8933 768.256 25.216 769.536 26.496C769.195 27.8613 768.043 28.544 766.08 28.544H684.928L683.904 24.832H747.264L755.2 14.208ZM849.92 21.376L910.208 17.152L916.992 7.55199C916.992 7.55199 917.803 8.10665 919.424 9.21599C921.045 10.24 922.965 11.52 925.184 13.056C927.403 14.5067 929.408 15.872 931.2 17.152C931.115 17.92 930.731 18.5173 930.048 18.944C929.451 19.2853 928.725 19.4987 927.872 19.584L851.2 25.088L849.92 21.376ZM863.872 0.76799L882.816 2.04799C882.731 2.73066 882.347 3.37066 881.664 3.96799C881.067 4.56532 880.171 4.99199 878.976 5.24799C880.171 10.1973 881.963 14.6773 884.352 18.688C886.827 22.6987 890.411 26.0693 895.104 28.8C899.797 31.5307 906.155 33.4507 914.176 34.56C915.627 34.7307 916.693 34.7733 917.376 34.688C918.144 34.6027 918.741 34.2187 919.168 33.536C919.936 32.4267 920.789 30.8053 921.728 28.672C922.667 26.4533 923.477 24.32 924.16 22.272L925.568 22.4L924.8 35.072C927.445 36.608 929.024 37.888 929.536 38.912C930.133 39.8507 930.219 41.0027 929.792 42.368C929.195 44.3307 927.915 45.7387 925.952 46.592C924.075 47.36 921.771 47.7013 919.04 47.616C916.395 47.4453 913.664 47.104 910.848 46.592C902.485 45.1413 895.488 43.008 889.856 40.192C884.309 37.376 879.787 34.0053 876.288 30.08C872.875 26.1547 870.187 21.76 868.224 16.896C866.347 11.9467 864.896 6.57065 863.872 0.76799ZM888.064 1.40799C893.013 1.23732 896.939 1.62132 899.84 2.55999C902.741 3.49865 904.832 4.69332 906.112 6.14399C907.477 7.59466 908.16 9.08799 908.16 10.624C908.16 12.0747 907.648 13.3547 906.624 14.464C905.685 15.5733 904.405 16.256 902.784 16.512C901.163 16.768 899.413 16.384 897.536 15.36C896.939 13.824 896.043 12.2453 894.848 10.624C893.653 9.00265 892.373 7.46665 891.008 6.01599C889.643 4.56532 888.32 3.32799 887.04 2.30399L888.064 1.40799ZM839.424 0.383987L857.344 7.93599C857.003 8.61866 856.491 9.17332 855.808 9.59999C855.125 9.94132 854.059 10.0267 852.608 9.85599C849.877 13.5253 846.421 17.28 842.24 21.12C838.144 24.96 833.536 28.544 828.416 31.872C823.296 35.2 817.92 37.9733 812.288 40.192L811.264 38.784C815.36 35.3707 819.243 31.4453 822.912 27.008C826.667 22.5707 829.952 18.0053 832.768 13.312C835.669 8.61865 837.888 4.30932 839.424 0.383987ZM832.512 21.632L837.12 15.744L850.688 20.736C850.261 21.9307 848.939 22.7413 846.72 23.168V42.752C846.72 43.0933 846.123 43.6053 844.928 44.288C843.819 44.9707 842.368 45.568 840.576 46.08C838.869 46.592 837.077 46.848 835.2 46.848H832.512V21.632ZM841.088 62.336H906.88V66.048H841.088V62.336ZM841.088 77.184H906.88V80.768H841.088V77.184ZM841.088 92.288H906.88V95.872H841.088V92.288ZM896.768 47.872H895.488L902.272 40.448L916.352 51.2C916.011 51.6267 915.456 52.096 914.688 52.608C913.92 53.0347 912.981 53.376 911.872 53.632V97.28C911.872 97.536 911.147 98.0053 909.696 98.688C908.331 99.2853 906.667 99.84 904.704 100.352C902.741 100.779 900.949 100.992 899.328 100.992H896.768V47.872ZM834.56 47.872V41.6L850.176 47.872H907.52V51.456H849.28V98.432C849.28 98.944 848.64 99.584 847.36 100.352C846.165 101.12 844.587 101.803 842.624 102.4C840.747 102.997 838.784 103.296 836.736 103.296H834.56V47.872ZM857.856 97.28L873.216 109.184C872.619 109.781 871.723 110.123 870.528 110.208C869.333 110.379 867.712 110.165 865.664 109.568C861.483 111.445 856.576 113.152 850.944 114.688C845.312 116.309 839.296 117.632 832.896 118.656C826.581 119.765 820.139 120.533 813.568 120.96L813.184 119.168C818.901 117.632 824.619 115.627 830.336 113.152C836.053 110.763 841.301 108.16 846.08 105.344C850.944 102.528 854.869 99.84 857.856 97.28ZM878.08 101.12C888.405 101.291 896.853 101.888 903.424 102.912C910.08 103.936 915.2 105.259 918.784 106.88C922.368 108.416 924.715 109.995 925.824 111.616C927.019 113.323 927.317 114.901 926.72 116.352C926.208 117.803 925.099 118.955 923.392 119.808C921.685 120.661 919.723 121.045 917.504 120.96C915.371 120.875 913.323 120.149 911.36 118.784C908.288 116.309 903.893 113.579 898.176 110.592C892.544 107.605 885.717 105.003 877.696 102.784L878.08 101.12Z" fill="white"></path>
</svg>