<svg width="892" height="43" viewBox="0 0 892 43" fill="none" xmlns="http://www.w3.org/2000/svg">
<path d="M23.52 11.28C22.56 9.9 21.54 8.88 20.34 8.16C19.14 7.44 17.46 7.08 15.36 7.08C13.44 7.08 11.94 7.5 10.98 8.34C10.02 9.18 9.54002 10.26 9.54002 11.64C9.54002 13.32 10.2 14.58 11.52 15.42C12.84 16.26 14.94 17.04 17.7 17.7C19.86 18.3 21.72 18.9 23.28 19.62C24.84 20.34 26.16 21.18 27.18 22.14C28.2 23.16 28.98 24.36 29.46 25.68C29.94 27 30.24 28.62 30.24 30.42C30.24 32.1 29.94 33.72 29.34 35.16C28.74 36.66 27.9 37.92 26.7 39C25.5 40.08 24.06 40.98 22.26 41.58C20.46 42.18 18.36 42.48 15.96 42.48C12.3 42.48 9.18002 42 6.60003 40.92C4.02002 39.84 1.80002 38.1 2.4423e-05 35.7L6.42002 31.26C7.50003 32.7 8.76002 33.72 10.14 34.38C11.46 35.1 13.26 35.4 15.42 35.4C17.82 35.4 19.44 34.98 20.4 34.08C21.36 33.18 21.84 32.1 21.84 30.78C21.84 30.06 21.66 29.46 21.42 28.86C21.18 28.26 20.7 27.72 20.1 27.24C19.5 26.76 18.6 26.34 17.52 25.86C16.44 25.44 15.06 25.02 13.38 24.54C9.24003 23.46 6.18003 21.9 4.14002 19.86C2.10002 17.82 1.14002 15.12 1.14002 11.64C1.14002 10.02 1.38002 8.52 1.98002 7.08C2.52002 5.64 3.36002 4.44 4.50002 3.36C5.64002 2.34 7.08003 1.5 8.88003 0.900002C10.68 0.300002 12.78 -1.19209e-06 15.3 -1.19209e-06C18.6 -1.19209e-06 21.48 0.600002 23.94 1.68C26.34 2.82 28.32 4.5 29.82 6.78L23.52 11.28ZM61.6917 16.98H76.0317V0.539999H84.4317V41.94H76.0317V24.06H61.6917V41.94H53.2917V0.539999H61.6917V16.98ZM139.947 24.18C139.947 27.36 139.527 30.12 138.747 32.4C137.967 34.68 136.887 36.6 135.507 38.1C134.067 39.6 132.387 40.68 130.467 41.4C128.487 42.12 126.327 42.48 124.047 42.48C121.707 42.48 119.547 42.12 117.627 41.4C115.707 40.68 114.027 39.6 112.647 38.1C111.207 36.6 110.127 34.68 109.347 32.4C108.567 30.12 108.207 27.36 108.207 24.18V18.3C108.207 15.12 108.567 12.36 109.347 10.08C110.127 7.8 111.207 5.88 112.647 4.38C114.027 2.88 115.707 1.8 117.627 1.08C119.547 0.360001 121.707 -1.19209e-06 124.047 -1.19209e-06C126.327 -1.19209e-06 128.487 0.360001 130.467 1.08C132.387 1.8 134.067 2.88 135.507 4.38C136.887 5.88 137.967 7.8 138.747 10.08C139.527 12.36 139.947 15.12 139.947 18.3V24.18ZM116.607 24.18C116.607 28.14 117.207 31.02 118.467 32.76C119.727 34.56 121.587 35.4 124.047 35.4C126.447 35.4 128.307 34.56 129.627 32.76C130.887 31.02 131.547 28.14 131.547 24.18V18.3C131.547 14.34 130.887 11.52 129.627 9.72C128.307 7.98 126.447 7.08 124.047 7.08C121.587 7.08 119.727 7.98 118.467 9.72C117.207 11.52 116.607 14.34 116.607 18.3V24.18ZM186.21 41.94L178.77 25.68H172.05V41.94H163.65V0.539999H178.47C183.21 0.539999 186.99 1.62 189.75 3.72C192.51 5.88 193.95 9 193.95 13.2C193.95 16.02 193.29 18.36 192.09 20.16C190.89 22.02 189.15 23.4 186.87 24.3L195.45 41.94H186.21ZM177.69 18.6C180.21 18.6 182.13 18.24 183.51 17.52C184.83 16.8 185.55 15.36 185.55 13.2C185.55 11.04 184.83 9.6 183.51 8.82C182.13 8.1 180.21 7.68 177.69 7.68H172.05V18.6H177.69ZM243.281 0.539999V7.68H225.881V16.98H241.481V24.06H225.881V34.86H243.281V41.94H217.481V0.539999H243.281ZM271.201 0.539999L280.261 28.38L289.321 0.539999H298.501L284.101 41.94H276.481L262.021 0.539999H271.201ZM345.377 0.539999V7.68H327.977V16.98H343.577V24.06H327.977V34.86H345.377V41.94H319.577V0.539999H345.377ZM389.558 11.28C388.598 9.9 387.578 8.88 386.378 8.16C385.178 7.44 383.498 7.08 381.398 7.08C379.478 7.08 377.978 7.5 377.018 8.34C376.058 9.18 375.578 10.26 375.578 11.64C375.578 13.32 376.238 14.58 377.558 15.42C378.878 16.26 380.978 17.04 383.738 17.7C385.898 18.3 387.758 18.9 389.318 19.62C390.878 20.34 392.198 21.18 393.218 22.14C394.238 23.16 395.018 24.36 395.498 25.68C395.978 27 396.278 28.62 396.278 30.42C396.278 32.1 395.978 33.72 395.378 35.16C394.778 36.66 393.938 37.92 392.738 39C391.538 40.08 390.098 40.98 388.298 41.58C386.498 42.18 384.398 42.48 381.998 42.48C378.338 42.48 375.218 42 372.638 40.92C370.058 39.84 367.838 38.1 366.038 35.7L372.458 31.26C373.538 32.7 374.798 33.72 376.178 34.38C377.498 35.1 379.298 35.4 381.458 35.4C383.858 35.4 385.478 34.98 386.438 34.08C387.398 33.18 387.878 32.1 387.878 30.78C387.878 30.06 387.698 29.46 387.458 28.86C387.218 28.26 386.738 27.72 386.138 27.24C385.538 26.76 384.638 26.34 383.558 25.86C382.478 25.44 381.098 25.02 379.418 24.54C375.278 23.46 372.218 21.9 370.178 19.86C368.138 17.82 367.178 15.12 367.178 11.64C367.178 10.02 367.418 8.52 368.018 7.08C368.558 5.64 369.398 4.44 370.538 3.36C371.678 2.34 373.118 1.5 374.918 0.900002C376.718 0.300002 378.818 -1.19209e-06 381.338 -1.19209e-06C384.638 -1.19209e-06 387.518 0.600002 389.978 1.68C392.378 2.82 394.358 4.5 395.858 6.78L389.558 11.28ZM446.636 0.539999V7.68H435.236V41.94H426.836V7.68H415.436V0.539999H446.636ZM508.204 27.36V41.94H499.804V0.539999H514.624C519.364 0.539999 523.144 1.68 525.904 3.84C528.664 6.06 530.104 9.36 530.104 13.8C530.104 18.24 528.724 21.6 525.964 23.88C523.204 26.22 519.424 27.36 514.624 27.36H508.204ZM513.424 20.28C516.304 20.28 518.404 19.8 519.724 18.72C521.044 17.7 521.704 16.08 521.704 13.8C521.704 11.82 521.044 10.32 519.724 9.24C518.404 8.22 516.304 7.68 513.424 7.68H508.204V20.28H513.424ZM544.745 41.94L559.145 0.539999H567.185L581.585 41.94H572.645L570.125 34.08H556.265L553.745 41.94H544.745ZM558.485 27H567.845L563.165 12.42L558.485 27ZM624.87 41.94L617.43 25.68H610.71V41.94H602.31V0.539999H617.13C621.87 0.539999 625.65 1.62 628.41 3.72C631.17 5.88 632.61 9 632.61 13.2C632.61 16.02 631.95 18.36 630.75 20.16C629.55 22.02 627.81 23.4 625.53 24.3L634.11 41.94H624.87ZM616.35 18.6C618.87 18.6 620.79 18.24 622.17 17.52C623.49 16.8 624.21 15.36 624.21 13.2C624.21 11.04 623.49 9.6 622.17 8.82C620.79 8.1 618.87 7.68 616.35 7.68H610.71V18.6H616.35ZM683.156 0.539999V7.68H671.756V41.94H663.356V7.68H651.956V0.539999H683.156ZM735.664 0.539999V41.94H728.644L712.504 16.32V41.94H704.524V0.539999H711.484L727.684 26.52V0.539999H735.664ZM786.499 0.539999V7.68H769.099V16.98H784.699V24.06H769.099V34.86H786.499V41.94H760.699V0.539999H786.499ZM831.699 41.94L824.259 25.68H817.539V41.94H809.139V0.539999H823.959C828.699 0.539999 832.479 1.62 835.239 3.72C837.999 5.88 839.439 9 839.439 13.2C839.439 16.02 838.779 18.36 837.579 20.16C836.379 22.02 834.639 23.4 832.359 24.3L840.939 41.94H831.699ZM823.179 18.6C825.699 18.6 827.619 18.24 828.999 17.52C830.319 16.8 831.039 15.36 831.039 13.2C831.039 11.04 830.319 9.6 828.999 8.82C827.619 8.1 825.699 7.68 823.179 7.68H817.539V18.6H823.179ZM884.511 11.28C883.551 9.9 882.531 8.88 881.331 8.16C880.131 7.44 878.451 7.08 876.351 7.08C874.431 7.08 872.931 7.5 871.971 8.34C871.011 9.18 870.531 10.26 870.531 11.64C870.531 13.32 871.191 14.58 872.511 15.42C873.831 16.26 875.931 17.04 878.691 17.7C880.851 18.3 882.711 18.9 884.271 19.62C885.831 20.34 887.151 21.18 888.171 22.14C889.191 23.16 889.971 24.36 890.451 25.68C890.931 27 891.231 28.62 891.231 30.42C891.231 32.1 890.931 33.72 890.331 35.16C889.731 36.66 888.891 37.92 887.691 39C886.491 40.08 885.051 40.98 883.251 41.58C881.451 42.18 879.351 42.48 876.951 42.48C873.291 42.48 870.171 42 867.591 40.92C865.011 39.84 862.791 38.1 860.991 35.7L867.411 31.26C868.491 32.7 869.751 33.72 871.131 34.38C872.451 35.1 874.251 35.4 876.411 35.4C878.811 35.4 880.431 34.98 881.391 34.08C882.351 33.18 882.831 32.1 882.831 30.78C882.831 30.06 882.651 29.46 882.411 28.86C882.171 28.26 881.691 27.72 881.091 27.24C880.491 26.76 879.591 26.34 878.511 25.86C877.431 25.44 876.051 25.02 874.371 24.54C870.231 23.46 867.171 21.9 865.131 19.86C863.091 17.82 862.131 15.12 862.131 11.64C862.131 10.02 862.371 8.52 862.971 7.08C863.511 5.64 864.351 4.44 865.491 3.36C866.631 2.34 868.071 1.5 869.871 0.900002C871.671 0.300002 873.771 -1.19209e-06 876.291 -1.19209e-06C879.591 -1.19209e-06 882.471 0.600002 884.931 1.68C887.331 2.82 889.311 4.5 890.811 6.78L884.511 11.28Z" fill="#1E4040"></path>
</svg>