<svg xmlns="http://www.w3.org/2000/svg" viewBox="0 0 1254 1254" role="img" aria-hidden="true">
<g fill="#f7ecdc">
<circle cx="580.0" cy="350.6" r="2.0"></circle>
<circle cx="473.3" cy="350.7" r="1.9"></circle>
<circle cx="494.5" cy="350.7" r="1.8"></circle>
<circle cx="505.3" cy="350.7" r="1.7"></circle>
<circle cx="526.7" cy="350.7" r="1.7"></circle>
<circle cx="537.3" cy="350.7" r="1.7"></circle>
<circle cx="441.0" cy="350.8" r="1.9"></circle>
<circle cx="559.0" cy="350.8" r="1.9"></circle>
<circle cx="430.2" cy="350.8" r="1.8"></circle>
<circle cx="451.8" cy="350.8" r="1.8"></circle>
<circle cx="462.8" cy="350.8" r="1.8"></circle>
<circle cx="548.2" cy="350.8" r="1.8"></circle>
<circle cx="569.8" cy="350.8" r="1.8"></circle>
<circle cx="408.9" cy="350.9" r="1.9"></circle>
<circle cx="419.9" cy="350.9" r="1.9"></circle>
<circle cx="483.9" cy="350.9" r="1.9"></circle>
<circle cx="516.1" cy="351.0" r="1.7"></circle>
<circle cx="505.5" cy="361.7" r="1.8"></circle>
<circle cx="569.7" cy="361.7" r="1.7"></circle>
<circle cx="537.5" cy="361.7" r="1.6"></circle>
<circle cx="473.2" cy="361.8" r="1.8"></circle>
<circle cx="494.8" cy="361.8" r="1.8"></circle>
<circle cx="516.0" cy="361.8" r="1.9"></circle>
<circle cx="559.0" cy="361.8" r="1.9"></circle>
<circle cx="408.8" cy="361.8" r="1.8"></circle>
<circle cx="419.8" cy="361.8" r="1.8"></circle>
<circle cx="441.2" cy="361.8" r="1.8"></circle>
<circle cx="451.8" cy="361.8" r="1.8"></circle>
<circle cx="526.8" cy="361.8" r="1.8"></circle>
<circle cx="462.7" cy="361.9" r="1.9"></circle>
<circle cx="430.1" cy="361.9" r="1.9"></circle>
<circle cx="483.9" cy="361.9" r="1.9"></circle>
<circle cx="548.1" cy="361.9" r="1.9"></circle>
<circle cx="580.1" cy="361.9" r="1.9"></circle>
<circle cx="580.3" cy="372.3" r="1.9"></circle>
<circle cx="441.1" cy="372.5" r="1.9"></circle>
<circle cx="451.7" cy="372.5" r="1.8"></circle>
<circle cx="505.3" cy="372.5" r="1.8"></circle>
<circle cx="569.7" cy="372.5" r="1.8"></circle>
<circle cx="430.3" cy="372.7" r="1.7"></circle>
<circle cx="462.7" cy="372.7" r="1.7"></circle>
<circle cx="526.7" cy="372.7" r="1.7"></circle>
<circle cx="537.7" cy="372.7" r="1.7"></circle>
<circle cx="494.5" cy="372.7" r="1.6"></circle>
<circle cx="483.9" cy="372.7" r="1.9"></circle>
<circle cx="516.1" cy="372.7" r="1.9"></circle>
<circle cx="548.1" cy="372.7" r="1.9"></circle>
<circle cx="473.2" cy="372.8" r="1.8"></circle>
<circle cx="559.0" cy="372.8" r="1.9"></circle>
<circle cx="419.8" cy="372.8" r="1.8"></circle>
<circle cx="419.7" cy="383.1" r="1.9"></circle>
<circle cx="430.2" cy="383.2" r="1.8"></circle>
<circle cx="494.5" cy="383.3" r="1.6"></circle>
<circle cx="462.7" cy="383.3" r="1.7"></circle>
<circle cx="580.3" cy="383.3" r="1.7"></circle>
<circle cx="559.0" cy="383.3" r="1.9"></circle>
<circle cx="526.9" cy="383.4" r="1.7"></circle>
<circle cx="548.1" cy="383.4" r="1.7"></circle>
<circle cx="473.2" cy="383.4" r="1.9"></circle>
<circle cx="569.8" cy="383.4" r="1.9"></circle>
<circle cx="451.7" cy="383.5" r="1.6"></circle>
<circle cx="516.0" cy="383.5" r="1.8"></circle>
<circle cx="537.5" cy="383.5" r="1.7"></circle>
<circle cx="441.2" cy="383.6" r="1.8"></circle>
<circle cx="483.9" cy="383.6" r="1.7"></circle>
<circle cx="505.7" cy="383.7" r="1.7"></circle>
<circle cx="451.9" cy="394.1" r="1.9"></circle>
<circle cx="483.9" cy="394.1" r="1.9"></circle>
<circle cx="548.0" cy="394.1" r="1.7"></circle>
<circle cx="580.2" cy="394.2" r="1.8"></circle>
<circle cx="516.0" cy="394.2" r="1.9"></circle>
<circle cx="473.2" cy="394.2" r="1.8"></circle>
<circle cx="494.5" cy="394.3" r="1.6"></circle>
<circle cx="505.5" cy="394.3" r="1.6"></circle>
<circle cx="537.5" cy="394.3" r="1.6"></circle>
<circle cx="419.7" cy="394.3" r="1.7"></circle>
<circle cx="462.7" cy="394.3" r="1.7"></circle>
<circle cx="526.7" cy="394.3" r="1.7"></circle>
<circle cx="559.0" cy="394.3" r="1.9"></circle>
<circle cx="430.2" cy="394.4" r="1.8"></circle>
<circle cx="569.8" cy="394.4" r="1.9"></circle>
<circle cx="441.0" cy="394.5" r="1.8"></circle>
<circle cx="451.9" cy="405.1" r="1.9"></circle>
<circle cx="515.9" cy="405.1" r="1.9"></circle>
<circle cx="559.1" cy="405.1" r="1.9"></circle>
<circle cx="419.8" cy="405.2" r="1.8"></circle>
<circle cx="483.8" cy="405.2" r="1.8"></circle>
<circle cx="548.2" cy="405.2" r="1.8"></circle>
<circle cx="569.8" cy="405.2" r="1.8"></circle>
<circle cx="473.2" cy="405.2" r="1.8"></circle>
<circle cx="494.5" cy="405.3" r="1.6"></circle>
<circle cx="537.5" cy="405.3" r="1.6"></circle>
<circle cx="430.3" cy="405.3" r="1.7"></circle>
<circle cx="462.7" cy="405.3" r="1.7"></circle>
<circle cx="505.7" cy="405.3" r="1.7"></circle>
<circle cx="526.7" cy="405.3" r="1.7"></circle>
<circle cx="441.0" cy="405.3" r="1.9"></circle>
<circle cx="580.4" cy="405.3" r="1.9"></circle>
<circle cx="430.2" cy="416.0" r="1.9"></circle>
<circle cx="516.0" cy="416.0" r="1.8"></circle>
<circle cx="441.1" cy="416.1" r="1.9"></circle>
<circle cx="473.1" cy="416.1" r="1.9"></circle>
<circle cx="505.3" cy="416.1" r="1.9"></circle>
<circle cx="526.9" cy="416.1" r="1.9"></circle>
<circle cx="537.3" cy="416.1" r="1.9"></circle>
<circle cx="548.1" cy="416.1" r="1.9"></circle>
<circle cx="558.9" cy="416.1" r="1.9"></circle>
<circle cx="462.6" cy="416.1" r="1.7"></circle>
<circle cx="451.8" cy="416.2" r="1.8"></circle>
<circle cx="483.8" cy="416.2" r="1.8"></circle>
<circle cx="569.8" cy="416.2" r="1.8"></circle>
<circle cx="419.6" cy="416.2" r="1.9"></circle>
<circle cx="580.2" cy="416.2" r="1.8"></circle>
<circle cx="408.9" cy="416.3" r="1.9"></circle>
<circle cx="494.5" cy="416.3" r="1.6"></circle>
<circle cx="403.1" cy="425.7" r="1.3"></circle>
<circle cx="409.0" cy="427.0" r="1.8"></circle>
<circle cx="430.2" cy="427.0" r="1.9"></circle>
<circle cx="441.0" cy="427.0" r="1.8"></circle>
<circle cx="559.0" cy="427.0" r="1.8"></circle>
<circle cx="419.6" cy="427.0" r="2.0"></circle>
<circle cx="580.3" cy="427.0" r="1.9"></circle>
<circle cx="451.9" cy="427.1" r="1.9"></circle>
<circle cx="473.1" cy="427.1" r="1.9"></circle>
<circle cx="483.9" cy="427.1" r="1.9"></circle>
<circle cx="516.1" cy="427.1" r="1.9"></circle>
<circle cx="526.9" cy="427.1" r="1.9"></circle>
<circle cx="548.1" cy="427.1" r="1.9"></circle>
<circle cx="462.6" cy="427.1" r="1.7"></circle>
<circle cx="494.4" cy="427.2" r="1.8"></circle>
<circle cx="569.8" cy="427.2" r="1.8"></circle>
<circle cx="505.5" cy="427.3" r="1.6"></circle>
<circle cx="537.5" cy="427.3" r="1.6"></circle>
<circle cx="484.0" cy="438.0" r="1.8"></circle>
<circle cx="516.0" cy="438.0" r="1.8"></circle>
<circle cx="548.0" cy="438.0" r="1.8"></circle>
<circle cx="559.0" cy="438.0" r="1.8"></circle>
<circle cx="408.9" cy="438.1" r="1.9"></circle>
<circle cx="430.1" cy="438.1" r="1.9"></circle>
<circle cx="441.1" cy="438.1" r="1.9"></circle>
<circle cx="451.9" cy="438.1" r="1.9"></circle>
<circle cx="473.1" cy="438.1" r="1.9"></circle>
<circle cx="537.6" cy="438.1" r="1.7"></circle>
<circle cx="419.8" cy="438.2" r="1.8"></circle>
<circle cx="462.4" cy="438.2" r="1.8"></circle>
<circle cx="526.8" cy="438.2" r="1.8"></circle>
<circle cx="569.8" cy="438.2" r="1.8"></circle>
<circle cx="580.2" cy="438.2" r="1.8"></circle>
<circle cx="494.5" cy="438.3" r="1.6"></circle>
<circle cx="505.5" cy="438.3" r="1.8"></circle>
<circle cx="473.2" cy="448.8" r="1.8"></circle>
<circle cx="430.1" cy="448.9" r="1.9"></circle>
<circle cx="441.1" cy="448.9" r="1.9"></circle>
<circle cx="569.9" cy="448.9" r="1.9"></circle>
<circle cx="419.8" cy="449.0" r="1.9"></circle>
<circle cx="452.0" cy="449.0" r="1.8"></circle>
<circle cx="462.5" cy="449.0" r="1.8"></circle>
<circle cx="484.0" cy="449.0" r="1.8"></circle>
<circle cx="494.5" cy="449.0" r="1.8"></circle>
<circle cx="516.0" cy="449.0" r="1.8"></circle>
<circle cx="526.8" cy="449.0" r="1.9"></circle>
<circle cx="548.0" cy="449.0" r="1.8"></circle>
<circle cx="559.0" cy="449.0" r="1.8"></circle>
<circle cx="580.2" cy="449.0" r="1.9"></circle>
<circle cx="505.3" cy="449.0" r="1.9"></circle>
<circle cx="537.3" cy="449.0" r="1.9"></circle>
<circle cx="441.0" cy="459.7" r="1.9"></circle>
<circle cx="559.0" cy="459.7" r="1.9"></circle>
<circle cx="430.3" cy="459.7" r="1.7"></circle>
<circle cx="462.3" cy="459.7" r="1.7"></circle>
<circle cx="526.7" cy="459.7" r="1.7"></circle>
<circle cx="494.5" cy="459.7" r="1.6"></circle>
<circle cx="537.5" cy="459.7" r="1.6"></circle>
<circle cx="580.5" cy="459.7" r="1.6"></circle>
<circle cx="473.2" cy="459.8" r="1.8"></circle>
<circle cx="516.0" cy="459.8" r="1.9"></circle>
<circle cx="569.8" cy="459.8" r="1.8"></circle>
<circle cx="419.6" cy="459.9" r="1.7"></circle>
<circle cx="505.4" cy="459.9" r="1.7"></circle>
<circle cx="451.9" cy="459.9" r="1.9"></circle>
<circle cx="483.9" cy="459.9" r="1.9"></circle>
<circle cx="548.1" cy="459.9" r="1.9"></circle>
<circle cx="494.5" cy="470.3" r="1.6"></circle>
<circle cx="526.7" cy="470.3" r="1.7"></circle>
<circle cx="569.7" cy="470.3" r="1.7"></circle>
<circle cx="473.2" cy="470.4" r="1.8"></circle>
<circle cx="430.3" cy="470.5" r="1.6"></circle>
<circle cx="451.7" cy="470.5" r="1.6"></circle>
<circle cx="462.5" cy="470.5" r="1.6"></circle>
<circle cx="483.7" cy="470.5" r="1.6"></circle>
<circle cx="505.7" cy="470.5" r="1.8"></circle>
<circle cx="537.5" cy="470.5" r="1.7"></circle>
<circle cx="559.0" cy="470.5" r="1.8"></circle>
<circle cx="580.3" cy="470.5" r="1.8"></circle>
<circle cx="441.2" cy="470.6" r="1.9"></circle>
<circle cx="516.3" cy="470.7" r="1.9"></circle>
<circle cx="548.1" cy="470.9" r="1.9"></circle>
<circle cx="430.3" cy="481.3" r="1.7"></circle>
<circle cx="494.3" cy="481.3" r="1.7"></circle>
<circle cx="516.0" cy="481.3" r="1.7"></circle>
<circle cx="526.7" cy="481.3" r="1.7"></circle>
<circle cx="537.3" cy="481.3" r="1.7"></circle>
<circle cx="548.3" cy="481.3" r="1.7"></circle>
<circle cx="569.7" cy="481.3" r="1.7"></circle>
<circle cx="462.5" cy="481.3" r="1.8"></circle>
<circle cx="441.0" cy="481.3" r="1.9"></circle>
<circle cx="473.0" cy="481.3" r="1.9"></circle>
<circle cx="484.0" cy="481.3" r="1.9"></circle>
<circle cx="451.9" cy="481.4" r="1.7"></circle>
<circle cx="558.9" cy="481.4" r="1.7"></circle>
<circle cx="505.3" cy="481.5" r="1.8"></circle>
<circle cx="580.3" cy="481.5" r="1.6"></circle>
<circle cx="548.1" cy="492.1" r="1.9"></circle>
<circle cx="559.1" cy="492.1" r="1.9"></circle>
<circle cx="462.6" cy="492.1" r="1.7"></circle>
<circle cx="430.2" cy="492.2" r="1.8"></circle>
<circle cx="451.8" cy="492.2" r="1.8"></circle>
<circle cx="483.8" cy="492.2" r="1.8"></circle>
<circle cx="526.8" cy="492.2" r="1.8"></circle>
<circle cx="516.0" cy="492.2" r="1.9"></circle>
<circle cx="441.2" cy="492.2" r="1.8"></circle>
<circle cx="537.5" cy="492.3" r="1.6"></circle>
<circle cx="473.3" cy="492.3" r="1.7"></circle>
<circle cx="494.3" cy="492.3" r="1.7"></circle>
<circle cx="505.3" cy="492.3" r="1.7"></circle>
<circle cx="569.7" cy="492.3" r="1.7"></circle>
<circle cx="580.3" cy="492.3" r="1.7"></circle>
<circle cx="473.1" cy="502.9" r="1.9"></circle>
<circle cx="462.7" cy="503.0" r="1.6"></circle>
<circle cx="516.0" cy="503.0" r="1.8"></circle>
<circle cx="559.0" cy="503.0" r="1.8"></circle>
<circle cx="570.0" cy="503.0" r="1.8"></circle>
<circle cx="430.3" cy="503.0" r="1.9"></circle>
<circle cx="451.9" cy="503.0" r="1.7"></circle>
<circle cx="526.9" cy="503.0" r="1.7"></circle>
<circle cx="441.1" cy="503.1" r="1.9"></circle>
<circle cx="483.9" cy="503.1" r="1.9"></circle>
<circle cx="548.1" cy="503.1" r="1.9"></circle>
<circle cx="537.4" cy="503.1" r="1.7"></circle>
<circle cx="494.8" cy="503.2" r="1.8"></circle>
<circle cx="505.4" cy="503.2" r="1.8"></circle>
<circle cx="580.5" cy="503.3" r="1.6"></circle>
<circle cx="473.3" cy="513.7" r="1.7"></circle>
<circle cx="537.5" cy="513.7" r="1.6"></circle>
<circle cx="516.0" cy="513.8" r="1.9"></circle>
<circle cx="430.4" cy="513.8" r="1.8"></circle>
<circle cx="494.6" cy="513.8" r="1.6"></circle>
<circle cx="505.4" cy="513.8" r="1.8"></circle>
<circle cx="548.2" cy="513.8" r="1.8"></circle>
<circle cx="569.8" cy="513.8" r="1.8"></circle>
<circle cx="462.3" cy="513.9" r="1.9"></circle>
<circle cx="526.7" cy="513.9" r="1.9"></circle>
<circle cx="580.1" cy="513.9" r="1.9"></circle>
<circle cx="591.1" cy="513.9" r="1.9"></circle>
<circle cx="441.2" cy="514.0" r="1.9"></circle>
<circle cx="452.0" cy="514.0" r="1.8"></circle>
<circle cx="484.0" cy="514.0" r="1.8"></circle>
<circle cx="559.0" cy="514.0" r="1.8"></circle>
<circle cx="483.9" cy="524.4" r="1.7"></circle>
<circle cx="451.7" cy="524.5" r="1.6"></circle>
<circle cx="462.7" cy="524.5" r="1.6"></circle>
<circle cx="494.5" cy="524.5" r="1.6"></circle>
<circle cx="473.3" cy="524.7" r="1.7"></circle>
<circle cx="505.3" cy="524.7" r="1.7"></circle>
<circle cx="526.7" cy="524.7" r="1.7"></circle>
<circle cx="569.7" cy="524.7" r="1.7"></circle>
<circle cx="580.3" cy="524.7" r="1.7"></circle>
<circle cx="591.2" cy="524.7" r="1.7"></circle>
<circle cx="601.7" cy="524.7" r="1.7"></circle>
<circle cx="537.5" cy="524.7" r="1.6"></circle>
<circle cx="558.8" cy="524.8" r="1.8"></circle>
<circle cx="441.0" cy="524.9" r="1.7"></circle>
<circle cx="548.1" cy="524.9" r="1.9"></circle>
<circle cx="516.0" cy="525.0" r="1.8"></circle>
<circle cx="494.6" cy="535.1" r="1.7"></circle>
<circle cx="602.0" cy="535.1" r="1.7"></circle>
<circle cx="462.8" cy="535.2" r="1.8"></circle>
<circle cx="526.8" cy="535.2" r="1.6"></circle>
<circle cx="451.9" cy="535.2" r="1.8"></circle>
<circle cx="473.2" cy="535.2" r="1.8"></circle>
<circle cx="569.8" cy="535.2" r="1.8"></circle>
<circle cx="591.1" cy="535.2" r="1.8"></circle>
<circle cx="516.0" cy="535.3" r="1.6"></circle>
<circle cx="559.0" cy="535.3" r="1.6"></circle>
<circle cx="505.3" cy="535.3" r="1.7"></circle>
<circle cx="537.3" cy="535.3" r="1.7"></circle>
<circle cx="548.3" cy="535.3" r="1.7"></circle>
<circle cx="580.3" cy="535.3" r="1.7"></circle>
<circle cx="612.7" cy="535.3" r="1.7"></circle>
<circle cx="483.9" cy="535.4" r="1.7"></circle>
<circle cx="505.3" cy="545.7" r="1.7"></circle>
<circle cx="548.3" cy="545.7" r="1.7"></circle>
<circle cx="494.8" cy="545.8" r="1.6"></circle>
<circle cx="580.6" cy="545.8" r="1.8"></circle>
<circle cx="612.8" cy="545.8" r="1.8"></circle>
<circle cx="462.6" cy="545.9" r="1.7"></circle>
<circle cx="559.0" cy="545.9" r="1.7"></circle>
<circle cx="623.1" cy="545.9" r="1.9"></circle>
<circle cx="537.2" cy="545.9" r="1.8"></circle>
<circle cx="451.9" cy="546.0" r="1.7"></circle>
<circle cx="516.1" cy="546.0" r="1.7"></circle>
<circle cx="473.2" cy="546.0" r="1.9"></circle>
<circle cx="484.0" cy="546.0" r="1.8"></circle>
<circle cx="527.0" cy="546.0" r="1.8"></circle>
<circle cx="569.8" cy="546.0" r="1.9"></circle>
<circle cx="591.0" cy="546.0" r="1.8"></circle>
<circle cx="602.0" cy="546.0" r="1.8"></circle>
<circle cx="548.2" cy="556.6" r="1.9"></circle>
<circle cx="633.7" cy="556.7" r="1.9"></circle>
<circle cx="473.3" cy="556.7" r="1.7"></circle>
<circle cx="526.7" cy="556.7" r="1.7"></circle>
<circle cx="558.7" cy="556.7" r="1.7"></circle>
<circle cx="612.7" cy="556.7" r="1.7"></circle>
<circle cx="494.5" cy="556.7" r="1.6"></circle>
<circle cx="505.5" cy="556.7" r="1.6"></circle>
<circle cx="537.5" cy="556.7" r="1.6"></circle>
<circle cx="569.5" cy="556.7" r="1.6"></circle>
<circle cx="580.5" cy="556.7" r="1.6"></circle>
<circle cx="516.2" cy="556.8" r="1.8"></circle>
<circle cx="484.0" cy="556.8" r="1.9"></circle>
<circle cx="462.6" cy="556.8" r="1.9"></circle>
<circle cx="591.2" cy="556.8" r="1.8"></circle>
<circle cx="623.2" cy="556.8" r="1.8"></circle>
<circle cx="601.9" cy="556.9" r="1.9"></circle>
<circle cx="580.3" cy="567.5" r="1.6"></circle>
<circle cx="633.5" cy="567.5" r="1.7"></circle>
<circle cx="644.2" cy="567.6" r="1.8"></circle>
<circle cx="473.0" cy="567.6" r="2.0"></circle>
<circle cx="484.0" cy="567.7" r="1.9"></circle>
<circle cx="559.0" cy="567.7" r="1.9"></circle>
<circle cx="505.3" cy="567.7" r="1.7"></circle>
<circle cx="526.7" cy="567.7" r="1.7"></circle>
<circle cx="537.3" cy="567.7" r="1.7"></circle>
<circle cx="569.7" cy="567.7" r="1.7"></circle>
<circle cx="591.3" cy="567.7" r="1.7"></circle>
<circle cx="612.7" cy="567.7" r="1.7"></circle>
<circle cx="623.3" cy="567.7" r="1.7"></circle>
<circle cx="516.2" cy="567.8" r="1.8"></circle>
<circle cx="601.8" cy="567.8" r="1.8"></circle>
<circle cx="462.8" cy="567.8" r="1.8"></circle>
<circle cx="548.1" cy="567.9" r="1.9"></circle>
<circle cx="516.1" cy="578.1" r="1.9"></circle>
<circle cx="602.0" cy="578.1" r="1.7"></circle>
<circle cx="633.6" cy="578.1" r="1.7"></circle>
<circle cx="559.0" cy="578.3" r="1.6"></circle>
<circle cx="548.3" cy="578.3" r="1.7"></circle>
<circle cx="569.7" cy="578.3" r="1.7"></circle>
<circle cx="612.7" cy="578.3" r="1.7"></circle>
<circle cx="652.3" cy="578.3" r="1.7"></circle>
<circle cx="580.5" cy="578.3" r="1.8"></circle>
<circle cx="643.8" cy="578.4" r="1.6"></circle>
<circle cx="591.1" cy="578.4" r="1.7"></circle>
<circle cx="623.1" cy="578.4" r="1.7"></circle>
<circle cx="526.8" cy="578.4" r="1.9"></circle>
<circle cx="505.7" cy="578.5" r="1.8"></circle>
<circle cx="537.5" cy="578.5" r="1.7"></circle>
<circle cx="662.3" cy="578.5" r="1.6"></circle>
<circle cx="494.9" cy="578.7" r="1.9"></circle>
<circle cx="602.0" cy="589.0" r="1.8"></circle>
<circle cx="516.1" cy="589.1" r="1.9"></circle>
<circle cx="673.1" cy="589.1" r="1.9"></circle>
<circle cx="527.0" cy="589.1" r="1.7"></circle>
<circle cx="559.0" cy="589.1" r="1.7"></circle>
<circle cx="612.8" cy="589.2" r="1.8"></circle>
<circle cx="643.8" cy="589.2" r="1.8"></circle>
<circle cx="652.2" cy="589.2" r="1.8"></circle>
<circle cx="591.2" cy="589.2" r="1.8"></circle>
<circle cx="484.3" cy="589.3" r="2.0"></circle>
<circle cx="494.5" cy="589.3" r="1.6"></circle>
<circle cx="505.5" cy="589.3" r="1.6"></circle>
<circle cx="537.5" cy="589.3" r="1.6"></circle>
<circle cx="569.5" cy="589.3" r="1.6"></circle>
<circle cx="633.5" cy="589.3" r="1.6"></circle>
<circle cx="548.3" cy="589.3" r="1.7"></circle>
<circle cx="580.5" cy="589.3" r="1.8"></circle>
<circle cx="662.5" cy="589.3" r="1.8"></circle>
<circle cx="623.1" cy="589.4" r="1.7"></circle>
<circle cx="643.2" cy="599.8" r="1.8"></circle>
<circle cx="662.4" cy="599.8" r="1.8"></circle>
<circle cx="580.4" cy="599.9" r="1.7"></circle>
<circle cx="652.4" cy="599.9" r="1.7"></circle>
<circle cx="505.4" cy="599.9" r="1.9"></circle>
<circle cx="537.8" cy="599.9" r="1.8"></circle>
<circle cx="548.1" cy="600.0" r="1.7"></circle>
<circle cx="484.2" cy="600.0" r="1.9"></circle>
<circle cx="516.0" cy="600.0" r="1.8"></circle>
<circle cx="527.0" cy="600.0" r="1.8"></circle>
<circle cx="559.0" cy="600.0" r="1.8"></circle>
<circle cx="570.0" cy="600.0" r="1.8"></circle>
<circle cx="591.0" cy="600.0" r="1.8"></circle>
<circle cx="602.0" cy="600.0" r="1.8"></circle>
<circle cx="613.0" cy="600.0" r="1.8"></circle>
<circle cx="623.0" cy="600.0" r="1.8"></circle>
<circle cx="633.2" cy="600.0" r="1.9"></circle>
<circle cx="673.2" cy="600.0" r="1.9"></circle>
<circle cx="684.0" cy="600.0" r="1.8"></circle>
<circle cx="494.5" cy="600.3" r="1.6"></circle>
<circle cx="662.5" cy="610.3" r="1.8"></circle>
<circle cx="673.2" cy="610.4" r="1.9"></circle>
<circle cx="516.1" cy="610.5" r="1.9"></circle>
<circle cx="537.5" cy="610.5" r="1.7"></circle>
<circle cx="569.7" cy="610.5" r="1.8"></circle>
<circle cx="633.3" cy="610.5" r="1.8"></circle>
<circle cx="683.7" cy="610.5" r="1.8"></circle>
<circle cx="694.7" cy="610.5" r="1.8"></circle>
<circle cx="505.2" cy="610.6" r="1.8"></circle>
<circle cx="526.8" cy="610.6" r="1.8"></circle>
<circle cx="548.0" cy="610.7" r="1.9"></circle>
<circle cx="559.0" cy="610.7" r="1.9"></circle>
<circle cx="580.3" cy="610.7" r="1.7"></circle>
<circle cx="591.2" cy="610.7" r="1.7"></circle>
<circle cx="612.7" cy="610.7" r="1.7"></circle>
<circle cx="623.2" cy="610.7" r="1.7"></circle>
<circle cx="643.3" cy="610.7" r="1.7"></circle>
<circle cx="652.3" cy="610.7" r="1.7"></circle>
<circle cx="601.9" cy="610.7" r="1.9"></circle>
<circle cx="494.5" cy="610.9" r="1.9"></circle>
<circle cx="602.0" cy="621.0" r="1.8"></circle>
<circle cx="526.9" cy="621.1" r="1.9"></circle>
<circle cx="548.1" cy="621.1" r="1.9"></circle>
<circle cx="591.1" cy="621.1" r="1.9"></circle>
<circle cx="662.3" cy="621.1" r="1.9"></circle>
<circle cx="673.1" cy="621.1" r="1.9"></circle>
<circle cx="683.9" cy="621.1" r="1.9"></circle>
<circle cx="633.6" cy="621.1" r="1.7"></circle>
<circle cx="694.6" cy="621.1" r="1.7"></circle>
<circle cx="612.8" cy="621.2" r="1.8"></circle>
<circle cx="643.2" cy="621.2" r="1.8"></circle>
<circle cx="705.4" cy="621.2" r="1.8"></circle>
<circle cx="580.6" cy="621.2" r="1.9"></circle>
<circle cx="516.0" cy="621.2" r="1.9"></circle>
<circle cx="559.0" cy="621.2" r="1.9"></circle>
<circle cx="623.0" cy="621.2" r="1.9"></circle>
<circle cx="505.5" cy="621.3" r="1.6"></circle>
<circle cx="537.5" cy="621.3" r="1.6"></circle>
<circle cx="569.7" cy="621.3" r="1.7"></circle>
<circle cx="652.3" cy="621.3" r="1.7"></circle>
<circle cx="559.0" cy="632.0" r="1.8"></circle>
<circle cx="602.0" cy="632.0" r="1.8"></circle>
<circle cx="623.0" cy="632.0" r="1.8"></circle>
<circle cx="633.2" cy="632.0" r="1.9"></circle>
<circle cx="673.0" cy="632.0" r="1.8"></circle>
<circle cx="516.1" cy="632.1" r="1.9"></circle>
<circle cx="526.9" cy="632.1" r="1.9"></circle>
<circle cx="569.9" cy="632.1" r="1.9"></circle>
<circle cx="591.1" cy="632.1" r="1.9"></circle>
<circle cx="643.1" cy="632.1" r="1.9"></circle>
<circle cx="683.9" cy="632.1" r="1.9"></circle>
<circle cx="705.1" cy="632.1" r="1.9"></circle>
<circle cx="716.1" cy="632.1" r="1.9"></circle>
<circle cx="537.6" cy="632.1" r="1.7"></circle>
<circle cx="694.6" cy="632.1" r="1.7"></circle>
<circle cx="662.4" cy="632.2" r="1.8"></circle>
<circle cx="548.2" cy="632.2" r="1.6"></circle>
<circle cx="612.5" cy="632.3" r="1.6"></circle>
<circle cx="580.3" cy="632.3" r="1.7"></circle>
<circle cx="652.3" cy="632.3" r="1.7"></circle>
<circle cx="516.2" cy="643.0" r="1.9"></circle>
<circle cx="548.0" cy="643.0" r="1.8"></circle>
<circle cx="559.0" cy="643.0" r="1.8"></circle>
<circle cx="580.5" cy="643.0" r="1.8"></circle>
<circle cx="602.0" cy="643.0" r="1.8"></circle>
<circle cx="612.5" cy="643.0" r="1.8"></circle>
<circle cx="623.0" cy="643.0" r="1.8"></circle>
<circle cx="633.5" cy="643.0" r="1.8"></circle>
<circle cx="673.0" cy="643.0" r="1.8"></circle>
<circle cx="694.5" cy="643.0" r="1.8"></circle>
<circle cx="716.0" cy="643.0" r="1.8"></circle>
<circle cx="726.8" cy="643.0" r="1.9"></circle>
<circle cx="705.3" cy="643.0" r="1.9"></circle>
<circle cx="537.4" cy="643.1" r="1.8"></circle>
<circle cx="591.1" cy="643.1" r="1.9"></circle>
<circle cx="643.1" cy="643.1" r="1.9"></circle>
<circle cx="683.9" cy="643.1" r="1.9"></circle>
<circle cx="662.6" cy="643.1" r="1.7"></circle>
<circle cx="569.8" cy="643.2" r="1.8"></circle>
<circle cx="652.2" cy="643.2" r="1.8"></circle>
<circle cx="527.0" cy="643.2" r="1.9"></circle>
<circle cx="506.0" cy="644.0" r="1.8"></circle>
<circle cx="694.7" cy="653.9" r="1.9"></circle>
<circle cx="737.4" cy="653.9" r="1.7"></circle>
<circle cx="623.1" cy="653.9" r="1.9"></circle>
<circle cx="683.9" cy="653.9" r="1.9"></circle>
<circle cx="716.1" cy="653.9" r="1.9"></circle>
<circle cx="505.8" cy="653.9" r="1.8"></circle>
<circle cx="537.8" cy="653.9" r="1.8"></circle>
<circle cx="662.3" cy="654.0" r="1.9"></circle>
<circle cx="516.2" cy="654.0" r="1.9"></circle>
<circle cx="527.0" cy="654.0" r="1.8"></circle>
<circle cx="559.0" cy="654.0" r="1.8"></circle>
<circle cx="591.0" cy="654.0" r="1.8"></circle>
<circle cx="602.0" cy="654.0" r="1.8"></circle>
<circle cx="612.8" cy="654.0" r="1.9"></circle>
<circle cx="633.5" cy="654.0" r="1.8"></circle>
<circle cx="643.0" cy="654.0" r="1.8"></circle>
<circle cx="652.2" cy="654.0" r="1.9"></circle>
<circle cx="673.0" cy="654.0" r="1.8"></circle>
<circle cx="705.0" cy="654.0" r="1.8"></circle>
<circle cx="580.3" cy="654.0" r="1.9"></circle>
<circle cx="569.9" cy="654.0" r="1.7"></circle>
<circle cx="726.9" cy="654.0" r="1.7"></circle>
<circle cx="548.1" cy="654.1" r="1.9"></circle>
<circle cx="746.7" cy="654.3" r="1.3"></circle>
<circle cx="526.9" cy="664.9" r="1.9"></circle>
<circle cx="516.2" cy="665.0" r="1.9"></circle>
<circle cx="537.5" cy="665.0" r="1.8"></circle>
<circle cx="559.0" cy="665.0" r="1.8"></circle>
<circle cx="580.5" cy="665.0" r="1.8"></circle>
<circle cx="591.2" cy="665.0" r="1.9"></circle>
<circle cx="602.0" cy="665.0" r="1.8"></circle>
<circle cx="623.0" cy="665.0" r="1.8"></circle>
<circle cx="643.0" cy="665.0" r="1.8"></circle>
<circle cx="705.2" cy="665.0" r="1.9"></circle>
<circle cx="737.5" cy="665.0" r="1.8"></circle>
<circle cx="612.7" cy="665.0" r="1.9"></circle>
<circle cx="633.7" cy="665.0" r="1.9"></circle>
<circle cx="652.3" cy="665.0" r="1.9"></circle>
<circle cx="662.5" cy="665.1" r="1.9"></circle>
<circle cx="694.5" cy="665.1" r="1.9"></circle>
<circle cx="569.9" cy="665.1" r="1.9"></circle>
<circle cx="673.1" cy="665.1" r="1.9"></circle>
<circle cx="683.9" cy="665.1" r="1.9"></circle>
<circle cx="716.1" cy="665.1" r="1.9"></circle>
<circle cx="726.9" cy="665.1" r="1.9"></circle>
<circle cx="748.1" cy="665.1" r="1.9"></circle>
<circle cx="548.2" cy="665.2" r="1.8"></circle>
<circle cx="758.5" cy="665.3" r="1.6"></circle>
<circle cx="559.0" cy="676.0" r="1.8"></circle>
<circle cx="623.0" cy="676.0" r="1.8"></circle>
<circle cx="673.0" cy="676.0" r="1.8"></circle>
<circle cx="759.0" cy="676.0" r="1.8"></circle>
<circle cx="612.7" cy="676.0" r="1.9"></circle>
<circle cx="633.7" cy="676.0" r="1.9"></circle>
<circle cx="652.3" cy="676.0" r="1.9"></circle>
<circle cx="591.1" cy="676.0" r="1.7"></circle>
<circle cx="526.9" cy="676.1" r="1.9"></circle>
<circle cx="548.1" cy="676.1" r="1.9"></circle>
<circle cx="569.9" cy="676.1" r="1.9"></circle>
<circle cx="601.9" cy="676.1" r="1.9"></circle>
<circle cx="643.1" cy="676.1" r="1.9"></circle>
<circle cx="683.9" cy="676.1" r="1.9"></circle>
<circle cx="716.1" cy="676.1" r="1.9"></circle>
<circle cx="726.9" cy="676.1" r="1.9"></circle>
<circle cx="748.1" cy="676.1" r="1.9"></circle>
<circle cx="737.4" cy="676.1" r="1.7"></circle>
<circle cx="537.8" cy="676.2" r="1.8"></circle>
<circle cx="580.8" cy="676.2" r="1.8"></circle>
<circle cx="662.4" cy="676.2" r="1.8"></circle>
<circle cx="694.8" cy="676.2" r="1.8"></circle>
<circle cx="705.3" cy="676.3" r="1.7"></circle>
<circle cx="769.7" cy="676.3" r="1.7"></circle>
<circle cx="705.2" cy="686.9" r="1.8"></circle>
<circle cx="694.6" cy="687.0" r="1.9"></circle>
<circle cx="548.0" cy="687.0" r="1.8"></circle>
<circle cx="559.0" cy="687.0" r="1.8"></circle>
<circle cx="612.8" cy="687.0" r="1.9"></circle>
<circle cx="623.2" cy="687.0" r="1.9"></circle>
<circle cx="673.0" cy="687.0" r="1.8"></circle>
<circle cx="716.0" cy="687.0" r="1.8"></circle>
<circle cx="759.0" cy="687.0" r="1.8"></circle>
<circle cx="662.4" cy="687.0" r="2.0"></circle>
<circle cx="580.7" cy="687.0" r="1.9"></circle>
<circle cx="633.5" cy="687.1" r="1.9"></circle>
<circle cx="780.2" cy="687.1" r="1.8"></circle>
<circle cx="569.9" cy="687.1" r="1.9"></circle>
<circle cx="591.1" cy="687.1" r="1.9"></circle>
<circle cx="602.1" cy="687.1" r="1.9"></circle>
<circle cx="643.1" cy="687.1" r="1.9"></circle>
<circle cx="652.1" cy="687.1" r="1.9"></circle>
<circle cx="683.9" cy="687.1" r="1.9"></circle>
<circle cx="726.9" cy="687.1" r="1.9"></circle>
<circle cx="748.1" cy="687.1" r="1.9"></circle>
<circle cx="769.9" cy="687.1" r="1.9"></circle>
<circle cx="537.5" cy="687.3" r="1.6"></circle>
<circle cx="737.5" cy="687.3" r="1.6"></circle>
<circle cx="533.0" cy="691.0" r="1.3"></circle>
<circle cx="623.1" cy="697.9" r="1.9"></circle>
<circle cx="737.2" cy="697.9" r="1.8"></circle>
<circle cx="559.0" cy="698.0" r="1.8"></circle>
<circle cx="591.0" cy="698.0" r="1.8"></circle>
<circle cx="602.0" cy="698.0" r="1.8"></circle>
<circle cx="612.8" cy="698.0" r="1.9"></circle>
<circle cx="633.8" cy="698.0" r="1.9"></circle>
<circle cx="673.0" cy="698.0" r="1.8"></circle>
<circle cx="684.0" cy="698.0" r="1.8"></circle>
<circle cx="759.0" cy="698.0" r="1.8"></circle>
<circle cx="791.0" cy="698.0" r="1.8"></circle>
<circle cx="705.1" cy="698.0" r="1.7"></circle>
<circle cx="580.5" cy="698.1" r="1.9"></circle>
<circle cx="662.5" cy="698.1" r="1.9"></circle>
<circle cx="548.1" cy="698.1" r="1.9"></circle>
<circle cx="569.9" cy="698.1" r="1.9"></circle>
<circle cx="643.1" cy="698.1" r="1.9"></circle>
<circle cx="716.1" cy="698.1" r="1.9"></circle>
<circle cx="726.9" cy="698.1" r="1.9"></circle>
<circle cx="769.9" cy="698.1" r="1.9"></circle>
<circle cx="694.7" cy="698.1" r="1.9"></circle>
<circle cx="652.2" cy="698.2" r="1.8"></circle>
<circle cx="748.2" cy="698.2" r="1.8"></circle>
<circle cx="780.4" cy="698.2" r="1.9"></circle>
<circle cx="769.9" cy="708.9" r="1.9"></circle>
<circle cx="548.2" cy="709.0" r="1.9"></circle>
<circle cx="559.0" cy="709.0" r="1.8"></circle>
<circle cx="591.0" cy="709.0" r="1.8"></circle>
<circle cx="643.3" cy="709.0" r="1.6"></circle>
<circle cx="652.2" cy="709.0" r="1.9"></circle>
<circle cx="673.0" cy="709.0" r="1.8"></circle>
<circle cx="716.2" cy="709.0" r="1.9"></circle>
<circle cx="748.2" cy="709.0" r="1.9"></circle>
<circle cx="759.0" cy="709.0" r="1.8"></circle>
<circle cx="780.5" cy="709.0" r="1.8"></circle>
<circle cx="791.0" cy="709.0" r="1.8"></circle>
<circle cx="612.7" cy="709.0" r="1.9"></circle>
<circle cx="633.7" cy="709.0" r="1.9"></circle>
<circle cx="694.7" cy="709.0" r="1.9"></circle>
<circle cx="705.3" cy="709.0" r="1.9"></circle>
<circle cx="601.9" cy="709.1" r="1.9"></circle>
<circle cx="623.1" cy="709.1" r="1.9"></circle>
<circle cx="683.9" cy="709.1" r="1.9"></circle>
<circle cx="726.9" cy="709.1" r="1.9"></circle>
<circle cx="802.1" cy="709.1" r="1.9"></circle>
<circle cx="580.4" cy="709.1" r="1.7"></circle>
<circle cx="662.4" cy="709.2" r="1.8"></circle>
<circle cx="737.5" cy="709.3" r="1.6"></circle>
<circle cx="569.7" cy="709.3" r="1.7"></circle>
<circle cx="612.7" cy="719.7" r="1.7"></circle>
<circle cx="694.5" cy="719.8" r="1.8"></circle>
<circle cx="748.2" cy="719.8" r="1.8"></circle>
<circle cx="705.0" cy="719.9" r="1.7"></circle>
<circle cx="802.0" cy="719.9" r="1.7"></circle>
<circle cx="591.1" cy="719.9" r="1.9"></circle>
<circle cx="601.9" cy="719.9" r="1.9"></circle>
<circle cx="623.1" cy="719.9" r="1.9"></circle>
<circle cx="633.9" cy="719.9" r="1.9"></circle>
<circle cx="758.9" cy="719.9" r="1.9"></circle>
<circle cx="769.9" cy="719.9" r="1.9"></circle>
<circle cx="791.1" cy="719.9" r="1.9"></circle>
<circle cx="662.3" cy="720.0" r="1.9"></circle>
<circle cx="737.7" cy="720.0" r="1.9"></circle>
<circle cx="559.0" cy="720.0" r="1.8"></circle>
<circle cx="569.8" cy="720.0" r="1.9"></circle>
<circle cx="580.5" cy="720.0" r="1.6"></circle>
<circle cx="643.0" cy="720.0" r="1.8"></circle>
<circle cx="652.2" cy="720.0" r="1.9"></circle>
<circle cx="673.0" cy="720.0" r="1.8"></circle>
<circle cx="684.0" cy="720.0" r="1.8"></circle>
<circle cx="716.2" cy="720.0" r="1.9"></circle>
<circle cx="727.0" cy="720.0" r="1.8"></circle>
<circle cx="780.2" cy="720.0" r="1.9"></circle>
<circle cx="812.8" cy="720.0" r="1.9"></circle>
<circle cx="623.3" cy="730.5" r="1.6"></circle>
<circle cx="662.3" cy="730.5" r="1.6"></circle>
<circle cx="694.3" cy="730.5" r="1.6"></circle>
<circle cx="705.3" cy="730.5" r="1.6"></circle>
<circle cx="759.0" cy="730.5" r="1.8"></circle>
<circle cx="580.5" cy="730.7" r="1.8"></circle>
<circle cx="737.7" cy="730.7" r="1.7"></circle>
<circle cx="591.2" cy="730.8" r="1.8"></circle>
<circle cx="633.8" cy="730.8" r="1.8"></circle>
<circle cx="673.1" cy="730.8" r="1.8"></circle>
<circle cx="801.8" cy="730.8" r="1.8"></circle>
<circle cx="716.0" cy="730.8" r="1.9"></circle>
<circle cx="791.0" cy="730.8" r="1.9"></circle>
<circle cx="601.9" cy="730.8" r="1.6"></circle>
<circle cx="780.4" cy="730.8" r="1.9"></circle>
<circle cx="643.2" cy="730.8" r="1.8"></circle>
<circle cx="769.8" cy="730.8" r="1.8"></circle>
<circle cx="569.9" cy="730.9" r="1.9"></circle>
<circle cx="612.9" cy="730.9" r="1.9"></circle>
<circle cx="652.1" cy="730.9" r="1.9"></circle>
<circle cx="684.1" cy="730.9" r="1.9"></circle>
<circle cx="726.9" cy="730.9" r="1.9"></circle>
<circle cx="748.1" cy="730.9" r="1.9"></circle>
<circle cx="823.1" cy="730.9" r="1.9"></circle>
<circle cx="812.5" cy="730.9" r="1.9"></circle>
<circle cx="812.7" cy="741.5" r="1.6"></circle>
<circle cx="591.1" cy="741.6" r="1.7"></circle>
<circle cx="726.9" cy="741.6" r="1.7"></circle>
<circle cx="791.1" cy="741.6" r="1.7"></circle>
<circle cx="643.3" cy="741.7" r="1.9"></circle>
<circle cx="823.0" cy="741.7" r="1.9"></circle>
<circle cx="612.7" cy="741.7" r="1.7"></circle>
<circle cx="662.3" cy="741.7" r="1.7"></circle>
<circle cx="780.7" cy="741.7" r="1.7"></circle>
<circle cx="737.5" cy="741.7" r="1.6"></circle>
<circle cx="601.8" cy="741.8" r="1.8"></circle>
<circle cx="623.2" cy="741.8" r="1.8"></circle>
<circle cx="652.2" cy="741.8" r="1.8"></circle>
<circle cx="673.2" cy="741.8" r="1.8"></circle>
<circle cx="694.5" cy="741.8" r="1.8"></circle>
<circle cx="758.8" cy="741.8" r="1.8"></circle>
<circle cx="769.8" cy="741.8" r="1.8"></circle>
<circle cx="801.8" cy="741.8" r="1.8"></circle>
<circle cx="633.7" cy="741.8" r="1.7"></circle>
<circle cx="834.0" cy="741.8" r="1.9"></circle>
<circle cx="580.4" cy="741.8" r="1.9"></circle>
<circle cx="705.2" cy="741.8" r="1.8"></circle>
<circle cx="684.0" cy="741.9" r="1.7"></circle>
<circle cx="569.9" cy="741.9" r="1.9"></circle>
<circle cx="716.1" cy="741.9" r="1.9"></circle>
<circle cx="748.1" cy="741.9" r="1.9"></circle>
<circle cx="570.0" cy="752.5" r="2.1"></circle>
<circle cx="834.0" cy="752.7" r="1.9"></circle>
<circle cx="633.5" cy="752.7" r="1.8"></circle>
<circle cx="662.5" cy="752.7" r="1.8"></circle>
<circle cx="780.5" cy="752.7" r="1.8"></circle>
<circle cx="812.5" cy="752.7" r="1.8"></circle>
<circle cx="612.7" cy="752.7" r="1.7"></circle>
<circle cx="694.3" cy="752.7" r="1.7"></circle>
<circle cx="705.3" cy="752.7" r="1.7"></circle>
<circle cx="737.7" cy="752.7" r="1.7"></circle>
<circle cx="823.3" cy="752.7" r="1.7"></circle>
<circle cx="580.5" cy="752.7" r="1.6"></circle>
<circle cx="652.1" cy="752.7" r="1.9"></circle>
<circle cx="673.1" cy="752.7" r="1.9"></circle>
<circle cx="748.1" cy="752.7" r="1.9"></circle>
<circle cx="759.1" cy="752.7" r="1.9"></circle>
<circle cx="643.2" cy="752.8" r="1.8"></circle>
<circle cx="769.8" cy="752.8" r="1.8"></circle>
<circle cx="602.0" cy="752.8" r="1.9"></circle>
<circle cx="623.0" cy="752.8" r="1.9"></circle>
<circle cx="716.2" cy="752.8" r="1.8"></circle>
<circle cx="726.8" cy="752.8" r="1.8"></circle>
<circle cx="791.2" cy="752.8" r="1.8"></circle>
<circle cx="801.8" cy="752.8" r="1.8"></circle>
<circle cx="591.1" cy="752.9" r="1.9"></circle>
<circle cx="683.9" cy="752.9" r="1.9"></circle>
<circle cx="844.5" cy="753.0" r="1.6"></circle>
<circle cx="662.4" cy="763.2" r="1.8"></circle>
<circle cx="673.0" cy="763.2" r="1.9"></circle>
<circle cx="570.1" cy="763.2" r="1.8"></circle>
<circle cx="759.0" cy="763.3" r="1.6"></circle>
<circle cx="612.7" cy="763.3" r="1.7"></circle>
<circle cx="591.1" cy="763.4" r="1.7"></circle>
<circle cx="623.1" cy="763.4" r="1.7"></circle>
<circle cx="683.9" cy="763.4" r="1.7"></circle>
<circle cx="769.9" cy="763.4" r="1.7"></circle>
<circle cx="790.9" cy="763.4" r="1.7"></circle>
<circle cx="801.9" cy="763.4" r="1.7"></circle>
<circle cx="823.1" cy="763.4" r="1.7"></circle>
<circle cx="580.5" cy="763.5" r="1.9"></circle>
<circle cx="601.7" cy="763.5" r="1.6"></circle>
<circle cx="633.3" cy="763.5" r="1.6"></circle>
<circle cx="652.1" cy="763.5" r="1.9"></circle>
<circle cx="694.5" cy="763.5" r="1.6"></circle>
<circle cx="705.3" cy="763.5" r="1.8"></circle>
<circle cx="716.1" cy="763.5" r="1.9"></circle>
<circle cx="726.7" cy="763.5" r="1.6"></circle>
<circle cx="748.1" cy="763.5" r="1.9"></circle>
<circle cx="780.5" cy="763.5" r="1.9"></circle>
<circle cx="812.5" cy="763.5" r="1.7"></circle>
<circle cx="834.0" cy="763.5" r="1.7"></circle>
<circle cx="844.7" cy="763.7" r="1.9"></circle>
<circle cx="737.5" cy="763.7" r="1.6"></circle>
<circle cx="643.1" cy="763.7" r="1.9"></circle>
<circle cx="758.9" cy="774.1" r="1.9"></circle>
<circle cx="769.9" cy="774.1" r="1.9"></circle>
<circle cx="791.1" cy="774.1" r="1.9"></circle>
<circle cx="801.9" cy="774.1" r="1.9"></circle>
<circle cx="823.1" cy="774.1" r="1.9"></circle>
<circle cx="694.8" cy="774.2" r="1.8"></circle>
<circle cx="652.0" cy="774.2" r="1.9"></circle>
<circle cx="716.2" cy="774.2" r="1.8"></circle>
<circle cx="780.5" cy="774.3" r="1.6"></circle>
<circle cx="705.3" cy="774.3" r="1.7"></circle>
<circle cx="812.5" cy="774.3" r="1.8"></circle>
<circle cx="727.0" cy="774.3" r="1.9"></circle>
<circle cx="834.0" cy="774.4" r="2.0"></circle>
<circle cx="748.2" cy="774.4" r="1.8"></circle>
<circle cx="844.9" cy="774.4" r="2.0"></circle>
<circle cx="591.3" cy="774.5" r="1.6"></circle>
<circle cx="612.7" cy="774.5" r="1.8"></circle>
<circle cx="623.3" cy="774.5" r="1.8"></circle>
<circle cx="633.5" cy="774.5" r="1.9"></circle>
<circle cx="737.3" cy="774.5" r="1.8"></circle>
<circle cx="580.1" cy="774.6" r="2.0"></circle>
<circle cx="643.1" cy="774.6" r="2.0"></circle>
<circle cx="855.2" cy="774.6" r="1.8"></circle>
<circle cx="602.0" cy="774.6" r="2.0"></circle>
<circle cx="791.1" cy="784.9" r="1.9"></circle>
<circle cx="705.0" cy="785.0" r="1.8"></circle>
<circle cx="727.0" cy="785.0" r="1.8"></circle>
<circle cx="759.0" cy="785.0" r="1.8"></circle>
<circle cx="770.0" cy="785.0" r="1.8"></circle>
<circle cx="780.8" cy="785.0" r="1.9"></circle>
<circle cx="802.0" cy="785.0" r="1.8"></circle>
<circle cx="834.0" cy="785.0" r="1.8"></circle>
<circle cx="812.7" cy="785.0" r="1.9"></circle>
<circle cx="737.8" cy="785.1" r="1.8"></circle>
<circle cx="642.9" cy="785.1" r="1.9"></circle>
<circle cx="716.1" cy="785.1" r="1.9"></circle>
<circle cx="748.1" cy="785.1" r="1.9"></circle>
<circle cx="823.1" cy="785.1" r="1.9"></circle>
<circle cx="633.4" cy="785.1" r="1.7"></circle>
<circle cx="726.8" cy="795.8" r="1.8"></circle>
<circle cx="737.4" cy="795.9" r="1.7"></circle>
<circle cx="748.1" cy="795.9" r="1.9"></circle>
<circle cx="758.9" cy="795.9" r="1.9"></circle>
<circle cx="823.1" cy="795.9" r="1.9"></circle>
<circle cx="705.1" cy="796.0" r="1.7"></circle>
<circle cx="780.3" cy="796.0" r="1.9"></circle>
<circle cx="716.2" cy="796.0" r="1.9"></circle>
<circle cx="791.0" cy="796.0" r="1.8"></circle>
<circle cx="812.8" cy="796.0" r="1.9"></circle>
<circle cx="834.0" cy="796.0" r="1.8"></circle>
<circle cx="844.5" cy="796.0" r="1.8"></circle>
<circle cx="769.8" cy="796.1" r="1.8"></circle>
<circle cx="801.9" cy="796.1" r="1.9"></circle>
<circle cx="705.2" cy="806.8" r="1.8"></circle>
<circle cx="737.4" cy="806.9" r="1.7"></circle>
<circle cx="716.1" cy="806.9" r="1.9"></circle>
<circle cx="726.9" cy="806.9" r="1.9"></circle>
<circle cx="748.1" cy="806.9" r="1.9"></circle>
<circle cx="758.9" cy="806.9" r="1.9"></circle>
<circle cx="791.1" cy="806.9" r="1.9"></circle>
<circle cx="780.2" cy="806.9" r="1.8"></circle>
<circle cx="769.8" cy="807.0" r="1.9"></circle>
<circle cx="801.8" cy="807.0" r="1.9"></circle>
<circle cx="823.2" cy="807.0" r="1.9"></circle>
<circle cx="834.0" cy="807.0" r="1.8"></circle>
<circle cx="812.3" cy="807.0" r="1.9"></circle>
<circle cx="694.5" cy="817.3" r="1.6"></circle>
<circle cx="769.8" cy="817.4" r="1.9"></circle>
<circle cx="705.3" cy="817.5" r="1.8"></circle>
<circle cx="737.5" cy="817.5" r="1.7"></circle>
<circle cx="780.5" cy="817.5" r="1.7"></circle>
<circle cx="812.5" cy="817.5" r="1.9"></circle>
<circle cx="716.0" cy="817.6" r="2.0"></circle>
<circle cx="748.0" cy="817.7" r="1.9"></circle>
<circle cx="759.0" cy="817.7" r="1.9"></circle>
<circle cx="823.0" cy="817.7" r="1.9"></circle>
<circle cx="834.0" cy="817.7" r="1.9"></circle>
<circle cx="801.7" cy="817.7" r="1.7"></circle>
<circle cx="726.9" cy="817.9" r="1.9"></circle>
<circle cx="791.1" cy="817.9" r="1.9"></circle>
<circle cx="705.4" cy="827.8" r="1.6"></circle>
<circle cx="716.0" cy="828.0" r="1.8"></circle>
<circle cx="737.5" cy="828.0" r="1.8"></circle>
<circle cx="759.0" cy="828.0" r="1.8"></circle>
<circle cx="812.5" cy="828.0" r="1.9"></circle>
<circle cx="726.9" cy="828.0" r="1.7"></circle>
<circle cx="748.1" cy="828.1" r="1.9"></circle>
<circle cx="769.9" cy="828.1" r="1.9"></circle>
<circle cx="791.1" cy="828.1" r="1.9"></circle>
<circle cx="801.9" cy="828.1" r="1.9"></circle>
<circle cx="823.1" cy="828.1" r="1.9"></circle>
<circle cx="833.9" cy="828.1" r="1.9"></circle>
<circle cx="780.5" cy="828.3" r="1.6"></circle>
<circle cx="727.0" cy="839.0" r="1.8"></circle>
<circle cx="737.5" cy="839.0" r="1.8"></circle>
<circle cx="748.0" cy="839.0" r="1.8"></circle>
<circle cx="759.0" cy="839.0" r="1.8"></circle>
<circle cx="769.8" cy="839.0" r="1.9"></circle>
<circle cx="791.0" cy="839.0" r="1.8"></circle>
<circle cx="823.2" cy="839.0" r="1.9"></circle>
<circle cx="834.0" cy="839.0" r="1.8"></circle>
<circle cx="780.3" cy="839.0" r="1.9"></circle>
<circle cx="812.5" cy="839.1" r="1.9"></circle>
<circle cx="801.9" cy="839.1" r="1.9"></circle>
<circle cx="848.8" cy="845.0" r="1.3"></circle>
<circle cx="769.7" cy="849.7" r="1.7"></circle>
<circle cx="791.0" cy="849.8" r="1.9"></circle>
<circle cx="823.0" cy="849.8" r="1.9"></circle>
<circle cx="834.0" cy="849.8" r="1.9"></circle>
<circle cx="726.9" cy="849.9" r="1.9"></circle>
<circle cx="737.1" cy="849.9" r="1.9"></circle>
<circle cx="748.1" cy="849.9" r="1.9"></circle>
<circle cx="759.1" cy="849.9" r="1.9"></circle>
<circle cx="801.9" cy="849.9" r="1.9"></circle>
<circle cx="844.9" cy="849.9" r="1.9"></circle>
<circle cx="780.2" cy="850.0" r="1.9"></circle>
<circle cx="812.6" cy="850.0" r="2.0"></circle>
<circle cx="748.3" cy="860.3" r="1.7"></circle>
<circle cx="737.3" cy="860.5" r="1.8"></circle>
<circle cx="759.0" cy="860.5" r="2.1"></circle>
<circle cx="769.7" cy="860.5" r="1.8"></circle>
<circle cx="726.8" cy="860.6" r="1.9"></circle>
</g>
<path fill="#f7ecdc" transform="translate(672.5 795.5) scale(1.32) translate(-672.5 -795.5)" d="&#xA;M672 784H673V785H672ZM668 785H677V786H668ZM666 786H679V787H666ZM665 787H680V788H665ZM664 788H681V789H664ZM663 789H682V790H663ZM663 790H683V791H663ZM662 791H683V792H662ZM662 792H683V793H662ZM662 793H684V794H662ZM662 794H684V795H662ZM661 795H684V796H661ZM661 796H684V797H661ZM661 797H684V798H661ZM662 798H683V799H662ZM662 799H683V800H662ZM662 800H683V801H662ZM663 801H682V802H663ZM664 802H682V803H664ZM664 803H681V804H664ZM665 804H680V805H665ZM667 805H678V806H667ZM669 806H676V807H669ZM671 772H675V773H671ZM665 773H680V774H665ZM663 774H683V775H663ZM661 775H669V776H661ZM675 775H685V776H675ZM659 776H666V777H659ZM679 776H686V777H679ZM658 777H663V778H658ZM682 777H687V778H682ZM657 778H662V779H657ZM683 778H689V779H683ZM656 779H660V780H656ZM685 779H689V780H685ZM655 780H659V781H655ZM686 780H690V781H686ZM654 781H658V782H654ZM687 781H691V782H687ZM653 782H658V783H653ZM688 782H692V783H688ZM653 783H657V784H653ZM689 783H693V784H689ZM694 783H695V784H694ZM652 784H656V785H652ZM689 784H696V785H689ZM652 785H655V786H652ZM690 785H696V786H690ZM651 786H655V787H651ZM691 786H695V787H691ZM651 787H654V788H651ZM691 787H695V788H691ZM650 788H654V789H650ZM692 788H695V789H692ZM650 789H653V790H650ZM692 789H695V790H692ZM650 790H653V791H650ZM692 790H695V791H692ZM650 791H653V792H650ZM693 791H696V792H693ZM650 792H653V793H650ZM693 792H696V793H693ZM649 793H653V794H649ZM693 793H696V794H693ZM649 794H652V795H649ZM693 794H696V795H693ZM649 795H653V796H649ZM693 795H696V796H693ZM649 796H653V797H649ZM693 796H696V797H693ZM649 797H653V798H649ZM693 797H696V798H693ZM650 798H653V799H650ZM693 798H696V799H693ZM650 799H653V800H650ZM693 799H696V800H693ZM650 800H653V801H650ZM693 800H696V801H693ZM650 801H653V802H650ZM692 801H695V802H692ZM650 802H654V803H650ZM692 802H695V803H692ZM651 803H654V804H651ZM692 803H695V804H692ZM651 804H654V805H651ZM691 804H695V805H691ZM651 805H655V806H651ZM690 805H696V806H690ZM652 806H656V807H652ZM689 806H696V807H689ZM652 807H656V808H652ZM689 807H696V808H689ZM653 808H657V809H653ZM688 808H692V809H688ZM694 808H695V809H694ZM654 809H658V810H654ZM687 809H692V810H687ZM654 810H659V811H654ZM686 810H691V811H686ZM655 811H660V812H655ZM685 811H690V812H685ZM656 812H661V813H656ZM684 812H689V813H684ZM657 813H663V814H657ZM682 813H688V814H682ZM658 814H665V815H658ZM680 814H687V815H680ZM660 815H668V816H660ZM677 815H685V816H677ZM662 816H684V817H662ZM664 817H681V818H664ZM668 818H677V819H668Z&#xA;"></path>
</svg>