<svg xmlns="http://www.w3.org/2000/svg" viewBox="0 0 260 180" role="img" aria-labelledby="title desc">
  <title id="title">Dotted map of Hong Kong</title>
  <desc id="desc">Warm off-white dotted Hong Kong map with a location marker.</desc>
  
  <g aria-hidden="true">
  <circle class="map-dot" cx="82.0" cy="54.0" r="2.0"></circle>
  <circle class="map-dot" cx="90.0" cy="54.0" r="2.0"></circle>
  <circle class="map-dot" cx="98.0" cy="54.0" r="2.0"></circle>
  <circle class="map-dot" cx="106.0" cy="54.0" r="2.0"></circle>
  <circle class="map-dot" cx="114.0" cy="54.0" r="2.0"></circle>
  <circle class="map-dot" cx="122.0" cy="54.0" r="2.0"></circle>
  <circle class="map-dot" cx="130.0" cy="54.0" r="2.0"></circle>
  <circle class="map-dot" cx="138.0" cy="54.0" r="2.0"></circle>
  <circle class="map-dot" cx="146.0" cy="54.0" r="2.0"></circle>
  <circle class="map-dot" cx="154.0" cy="54.0" r="2.0"></circle>
  <circle class="map-dot" cx="162.0" cy="54.0" r="2.0"></circle>
  <circle class="map-dot" cx="170.0" cy="54.0" r="2.0"></circle>
  <circle class="map-dot" cx="66.0" cy="62.0" r="2.0"></circle>
  <circle class="map-dot" cx="74.0" cy="62.0" r="2.0"></circle>
  <circle class="map-dot" cx="82.0" cy="62.0" r="2.0"></circle>
  <circle class="map-dot" cx="90.0" cy="62.0" r="2.0"></circle>
  <circle class="map-dot" cx="98.0" cy="62.0" r="2.0"></circle>
  <circle class="map-dot" cx="106.0" cy="62.0" r="2.0"></circle>
  <circle class="map-dot" cx="114.0" cy="62.0" r="2.0"></circle>
  <circle class="map-dot" cx="122.0" cy="62.0" r="2.0"></circle>
  <circle class="map-dot" cx="130.0" cy="62.0" r="2.0"></circle>
  <circle class="map-dot" cx="138.0" cy="62.0" r="2.0"></circle>
  <circle class="map-dot" cx="146.0" cy="62.0" r="2.0"></circle>
  <circle class="map-dot" cx="154.0" cy="62.0" r="2.0"></circle>
  <circle class="map-dot" cx="162.0" cy="62.0" r="2.0"></circle>
  <circle class="map-dot" cx="170.0" cy="62.0" r="2.0"></circle>
  <circle class="map-dot" cx="178.0" cy="62.0" r="2.0"></circle>
  <circle class="map-dot" cx="186.0" cy="62.0" r="2.0"></circle>
  <circle class="map-dot" cx="50.0" cy="70.0" r="2.0"></circle>
  <circle class="map-dot" cx="58.0" cy="70.0" r="2.0"></circle>
  <circle class="map-dot" cx="66.0" cy="70.0" r="2.0"></circle>
  <circle class="map-dot" cx="74.0" cy="70.0" r="2.0"></circle>
  <circle class="map-dot" cx="82.0" cy="70.0" r="2.0"></circle>
  <circle class="map-dot" cx="90.0" cy="70.0" r="2.0"></circle>
  <circle class="map-dot" cx="98.0" cy="70.0" r="2.0"></circle>
  <circle class="map-dot" cx="106.0" cy="70.0" r="2.0"></circle>
  <circle class="map-dot" cx="114.0" cy="70.0" r="2.0"></circle>
  <circle class="map-dot" cx="122.0" cy="70.0" r="2.0"></circle>
  <circle class="map-dot" cx="130.0" cy="70.0" r="2.0"></circle>
  <circle class="map-dot" cx="138.0" cy="70.0" r="2.0"></circle>
  <circle class="map-dot" cx="146.0" cy="70.0" r="2.0"></circle>
  <circle class="map-dot" cx="154.0" cy="70.0" r="2.0"></circle>
  <circle class="map-dot" cx="162.0" cy="70.0" r="2.0"></circle>
  <circle class="map-dot" cx="170.0" cy="70.0" r="2.0"></circle>
  <circle class="map-dot" cx="178.0" cy="70.0" r="2.0"></circle>
  <circle class="map-dot" cx="186.0" cy="70.0" r="2.0"></circle>
  <circle class="map-dot" cx="194.0" cy="70.0" r="2.0"></circle>
  <circle class="map-dot" cx="202.0" cy="70.0" r="2.0"></circle>
  <circle class="map-dot" cx="50.0" cy="78.0" r="2.0"></circle>
  <circle class="map-dot" cx="58.0" cy="78.0" r="2.0"></circle>
  <circle class="map-dot" cx="66.0" cy="78.0" r="2.0"></circle>
  <circle class="map-dot" cx="74.0" cy="78.0" r="2.0"></circle>
  <circle class="map-dot" cx="82.0" cy="78.0" r="2.0"></circle>
  <circle class="map-dot" cx="90.0" cy="78.0" r="2.0"></circle>
  <circle class="map-dot" cx="98.0" cy="78.0" r="2.0"></circle>
  <circle class="map-dot" cx="106.0" cy="78.0" r="2.0"></circle>
  <circle class="map-dot" cx="114.0" cy="78.0" r="2.0"></circle>
  <circle class="map-dot" cx="122.0" cy="78.0" r="2.0"></circle>
  <circle class="map-dot" cx="130.0" cy="78.0" r="2.0"></circle>
  <circle class="map-dot" cx="138.0" cy="78.0" r="2.0"></circle>
  <circle class="map-dot" cx="146.0" cy="78.0" r="2.0"></circle>
  <circle class="map-dot" cx="154.0" cy="78.0" r="2.0"></circle>
  <circle class="map-dot" cx="162.0" cy="78.0" r="2.0"></circle>
  <circle class="map-dot" cx="170.0" cy="78.0" r="2.0"></circle>
  <circle class="map-dot" cx="178.0" cy="78.0" r="2.0"></circle>
  <circle class="map-dot" cx="186.0" cy="78.0" r="2.0"></circle>
  <circle class="map-dot" cx="194.0" cy="78.0" r="2.0"></circle>
  <circle class="map-dot" cx="202.0" cy="78.0" r="2.0"></circle>
  <circle class="map-dot" cx="58.0" cy="86.0" r="2.0"></circle>
  <circle class="map-dot" cx="66.0" cy="86.0" r="2.0"></circle>
  <circle class="map-dot" cx="74.0" cy="86.0" r="2.0"></circle>
  <circle class="map-dot" cx="82.0" cy="86.0" r="2.0"></circle>
  <circle class="map-dot" cx="90.0" cy="86.0" r="2.0"></circle>
  <circle class="map-dot" cx="98.0" cy="86.0" r="2.0"></circle>
  <circle class="map-dot" cx="106.0" cy="86.0" r="2.0"></circle>
  <circle class="map-dot" cx="114.0" cy="86.0" r="2.0"></circle>
  <circle class="map-dot" cx="122.0" cy="86.0" r="2.0"></circle>
  <circle class="map-dot" cx="130.0" cy="86.0" r="2.0"></circle>
  <circle class="map-dot" cx="138.0" cy="86.0" r="2.0"></circle>
  <circle class="map-dot" cx="146.0" cy="86.0" r="2.0"></circle>
  <circle class="map-dot" cx="154.0" cy="86.0" r="2.0"></circle>
  <circle class="map-dot" cx="162.0" cy="86.0" r="2.0"></circle>
  <circle class="map-dot" cx="170.0" cy="86.0" r="2.0"></circle>
  <circle class="map-dot" cx="178.0" cy="86.0" r="2.0"></circle>
  <circle class="map-dot" cx="186.0" cy="86.0" r="2.0"></circle>
  <circle class="map-dot" cx="194.0" cy="86.0" r="2.0"></circle>
  <circle class="map-dot" cx="74.0" cy="94.0" r="2.0"></circle>
  <circle class="map-dot" cx="82.0" cy="94.0" r="2.0"></circle>
  <circle class="map-dot" cx="90.0" cy="94.0" r="2.0"></circle>
  <circle class="map-dot" cx="170.0" cy="94.0" r="2.0"></circle>
  <circle class="map-dot" cx="178.0" cy="94.0" r="2.0"></circle>
  <circle class="map-dot" cx="106.0" cy="102.0" r="2.0"></circle>
  <circle class="map-dot" cx="114.0" cy="102.0" r="2.0"></circle>
  <circle class="map-dot" cx="122.0" cy="102.0" r="2.0"></circle>
  <circle class="map-dot" cx="130.0" cy="102.0" r="2.0"></circle>
  <circle class="map-dot" cx="138.0" cy="102.0" r="2.0"></circle>
  <circle class="map-dot" cx="146.0" cy="102.0" r="2.0"></circle>
  <circle class="map-dot" cx="154.0" cy="102.0" r="2.0"></circle>
  <circle class="map-dot" cx="162.0" cy="102.0" r="2.0"></circle>
  <circle class="map-dot" cx="186.0" cy="102.0" r="2.0"></circle>
  <circle class="map-dot" cx="194.0" cy="102.0" r="2.0"></circle>
  <circle class="map-dot" cx="202.0" cy="102.0" r="2.0"></circle>
  <circle class="map-dot" cx="210.0" cy="102.0" r="2.0"></circle>
  <circle class="map-dot" cx="58.0" cy="110.0" r="2.0"></circle>
  <circle class="map-dot" cx="66.0" cy="110.0" r="2.0"></circle>
  <circle class="map-dot" cx="74.0" cy="110.0" r="2.0"></circle>
  <circle class="map-dot" cx="82.0" cy="110.0" r="2.0"></circle>
  <circle class="map-dot" cx="90.0" cy="110.0" r="2.0"></circle>
  <circle class="map-dot" cx="98.0" cy="110.0" r="2.0"></circle>
  <circle class="map-dot" cx="106.0" cy="110.0" r="2.0"></circle>
  <circle class="map-dot" cx="114.0" cy="110.0" r="2.0"></circle>
  <circle class="map-dot" cx="122.0" cy="110.0" r="2.0"></circle>
  <circle class="map-dot" cx="130.0" cy="110.0" r="2.0"></circle>
  <circle class="map-dot" cx="138.0" cy="110.0" r="2.0"></circle>
  <circle class="map-dot" cx="146.0" cy="110.0" r="2.0"></circle>
  <circle class="map-dot" cx="154.0" cy="110.0" r="2.0"></circle>
  <circle class="map-dot" cx="162.0" cy="110.0" r="2.0"></circle>
  <circle class="map-dot" cx="170.0" cy="110.0" r="2.0"></circle>
  <circle class="map-dot" cx="178.0" cy="110.0" r="2.0"></circle>
  <circle class="map-dot" cx="194.0" cy="110.0" r="2.0"></circle>
  <circle class="map-dot" cx="202.0" cy="110.0" r="2.0"></circle>
  <circle class="map-dot" cx="50.0" cy="118.0" r="2.0"></circle>
  <circle class="map-dot" cx="58.0" cy="118.0" r="2.0"></circle>
  <circle class="map-dot" cx="66.0" cy="118.0" r="2.0"></circle>
  <circle class="map-dot" cx="74.0" cy="118.0" r="2.0"></circle>
  <circle class="map-dot" cx="82.0" cy="118.0" r="2.0"></circle>
  <circle class="map-dot" cx="90.0" cy="118.0" r="2.0"></circle>
  <circle class="map-dot" cx="98.0" cy="118.0" r="2.0"></circle>
  <circle class="map-dot" cx="106.0" cy="118.0" r="2.0"></circle>
  <circle class="map-dot" cx="114.0" cy="118.0" r="2.0"></circle>
  <circle class="map-dot" cx="122.0" cy="118.0" r="2.0"></circle>
  <circle class="map-dot" cx="130.0" cy="118.0" r="2.0"></circle>
  <circle class="map-dot" cx="138.0" cy="118.0" r="2.0"></circle>
  <circle class="map-dot" cx="146.0" cy="118.0" r="2.0"></circle>
  <circle class="map-dot" cx="154.0" cy="118.0" r="2.0"></circle>
  <circle class="map-dot" cx="162.0" cy="118.0" r="2.0"></circle>
  <circle class="map-dot" cx="170.0" cy="118.0" r="2.0"></circle>
  <circle class="map-dot" cx="58.0" cy="126.0" r="2.0"></circle>
  <circle class="map-dot" cx="66.0" cy="126.0" r="2.0"></circle>
  <circle class="map-dot" cx="74.0" cy="126.0" r="2.0"></circle>
  <circle class="map-dot" cx="82.0" cy="126.0" r="2.0"></circle>
  <circle class="map-dot--soft" cx="50.0" cy="137.0" r="1.8"></circle>
  <circle class="map-dot--soft" cx="72.0" cy="139.0" r="1.8"></circle>
  <circle class="map-dot--soft" cx="96.0" cy="132.0" r="1.8"></circle>
  <circle class="map-dot--soft" cx="184.0" cy="123.0" r="1.8"></circle>
  <circle class="map-dot--soft" cx="210.0" cy="119.0" r="1.8"></circle>
  <circle class="map-dot--soft" cx="222.0" cy="96.0" r="1.8"></circle>
  <circle class="map-dot--soft" cx="36.0" cy="105.0" r="1.8"></circle>
  </g>
  <g aria-hidden="true">
  <circle class="marker-ring--outer" cx="136.0" cy="104.0" r="15.5"></circle>
  <circle class="marker-ring" cx="136.0" cy="104.0" r="9.5"></circle>
  <circle class="marker-core" cx="136.0" cy="104.0" r="2.7"></circle>
  </g>
</svg>