<svg width="448" height="106" viewBox="0 0 448 106" fill="none" xmlns="http://www.w3.org/2000/svg">
<path d="M24.444 11.28C23.484 9.9 22.464 8.88 21.264 8.16C20.064 7.44 18.384 7.08 16.284 7.08C14.364 7.08 12.864 7.5 11.904 8.34C10.944 9.18 10.464 10.26 10.464 11.64C10.464 13.32 11.124 14.58 12.444 15.42C13.764 16.26 15.864 17.04 18.624 17.7C20.784 18.3 22.644 18.9 24.204 19.62C25.764 20.34 27.084 21.18 28.104 22.14C29.124 23.16 29.904 24.36 30.384 25.68C30.864 27 31.164 28.62 31.164 30.42C31.164 32.1 30.864 33.72 30.264 35.16C29.664 36.66 28.824 37.92 27.624 39C26.424 40.08 24.984 40.98 23.184 41.58C21.384 42.18 19.284 42.48 16.884 42.48C13.224 42.48 10.104 42 7.52401 40.92C4.94401 39.84 2.72401 38.1 0.924005 35.7L7.34401 31.26C8.42401 32.7 9.68401 33.72 11.064 34.38C12.384 35.1 14.184 35.4 16.344 35.4C18.744 35.4 20.364 34.98 21.324 34.08C22.284 33.18 22.764 32.1 22.764 30.78C22.764 30.06 22.584 29.46 22.344 28.86C22.104 28.26 21.624 27.72 21.024 27.24C20.424 26.76 19.524 26.34 18.444 25.86C17.364 25.44 15.984 25.02 14.304 24.54C10.164 23.46 7.10401 21.9 5.06401 19.86C3.02401 17.82 2.06401 15.12 2.06401 11.64C2.06401 10.02 2.30401 8.52 2.90401 7.08C3.44401 5.64 4.28401 4.44 5.42401 3.36C6.56401 2.34 8.00401 1.5 9.80401 0.900002C11.604 0.300002 13.704 -1.19209e-06 16.224 -1.19209e-06C19.524 -1.19209e-06 22.404 0.600002 24.864 1.68C27.264 2.82 29.244 4.5 30.744 6.78L24.444 11.28ZM62.6157 16.98H76.9557V0.539999H85.3557V41.94H76.9557V24.06H62.6157V41.94H54.2157V0.539999H62.6157V16.98ZM140.871 24.18C140.871 27.36 140.451 30.12 139.671 32.4C138.891 34.68 137.811 36.6 136.431 38.1C134.991 39.6 133.311 40.68 131.391 41.4C129.411 42.12 127.251 42.48 124.971 42.48C122.631 42.48 120.471 42.12 118.551 41.4C116.631 40.68 114.951 39.6 113.571 38.1C112.131 36.6 111.051 34.68 110.271 32.4C109.491 30.12 109.131 27.36 109.131 24.18V18.3C109.131 15.12 109.491 12.36 110.271 10.08C111.051 7.8 112.131 5.88 113.571 4.38C114.951 2.88 116.631 1.8 118.551 1.08C120.471 0.360001 122.631 -1.19209e-06 124.971 -1.19209e-06C127.251 -1.19209e-06 129.411 0.360001 131.391 1.08C133.311 1.8 134.991 2.88 136.431 4.38C137.811 5.88 138.891 7.8 139.671 10.08C140.451 12.36 140.871 15.12 140.871 18.3V24.18ZM117.531 24.18C117.531 28.14 118.131 31.02 119.391 32.76C120.651 34.56 122.511 35.4 124.971 35.4C127.371 35.4 129.231 34.56 130.551 32.76C131.811 31.02 132.471 28.14 132.471 24.18V18.3C132.471 14.34 131.811 11.52 130.551 9.72C129.231 7.98 127.371 7.08 124.971 7.08C122.511 7.08 120.651 7.98 119.391 9.72C118.131 11.52 117.531 14.34 117.531 18.3V24.18ZM187.134 41.94L179.694 25.68H172.974V41.94H164.574V0.539999H179.394C184.134 0.539999 187.914 1.62 190.674 3.72C193.434 5.88 194.874 9 194.874 13.2C194.874 16.02 194.214 18.36 193.014 20.16C191.814 22.02 190.074 23.4 187.794 24.3L196.374 41.94H187.134ZM178.614 18.6C181.134 18.6 183.054 18.24 184.434 17.52C185.754 16.8 186.474 15.36 186.474 13.2C186.474 11.04 185.754 9.6 184.434 8.82C183.054 8.1 181.134 7.68 178.614 7.68H172.974V18.6H178.614ZM244.205 0.539999V7.68H226.805V16.98H242.405V24.06H226.805V34.86H244.205V41.94H218.405V0.539999H244.205ZM272.125 0.539999L281.185 28.38L290.245 0.539999H299.425L285.025 41.94H277.405L262.945 0.539999H272.125ZM346.301 0.539999V7.68H328.901V16.98H344.501V24.06H328.901V34.86H346.301V41.94H320.501V0.539999H346.301ZM390.482 11.28C389.522 9.9 388.502 8.88 387.302 8.16C386.102 7.44 384.422 7.08 382.322 7.08C380.402 7.08 378.902 7.5 377.942 8.34C376.982 9.18 376.502 10.26 376.502 11.64C376.502 13.32 377.162 14.58 378.482 15.42C379.802 16.26 381.902 17.04 384.662 17.7C386.822 18.3 388.682 18.9 390.242 19.62C391.802 20.34 393.122 21.18 394.142 22.14C395.162 23.16 395.942 24.36 396.422 25.68C396.902 27 397.202 28.62 397.202 30.42C397.202 32.1 396.902 33.72 396.302 35.16C395.702 36.66 394.862 37.92 393.662 39C392.462 40.08 391.022 40.98 389.222 41.58C387.422 42.18 385.322 42.48 382.922 42.48C379.262 42.48 376.142 42 373.562 40.92C370.982 39.84 368.762 38.1 366.962 35.7L373.382 31.26C374.462 32.7 375.722 33.72 377.102 34.38C378.422 35.1 380.222 35.4 382.382 35.4C384.782 35.4 386.402 34.98 387.362 34.08C388.322 33.18 388.802 32.1 388.802 30.78C388.802 30.06 388.622 29.46 388.382 28.86C388.142 28.26 387.662 27.72 387.062 27.24C386.462 26.76 385.562 26.34 384.482 25.86C383.402 25.44 382.022 25.02 380.342 24.54C376.202 23.46 373.142 21.9 371.102 19.86C369.062 17.82 368.102 15.12 368.102 11.64C368.102 10.02 368.342 8.52 368.942 7.08C369.482 5.64 370.322 4.44 371.462 3.36C372.602 2.34 374.042 1.5 375.842 0.900002C377.642 0.300002 379.742 -1.19209e-06 382.262 -1.19209e-06C385.562 -1.19209e-06 388.442 0.600002 390.902 1.68C393.302 2.82 395.282 4.5 396.782 6.78L390.482 11.28ZM447.56 0.539999V7.68H436.16V41.94H427.76V7.68H416.36V0.539999H447.56Z" fill="#1E4040"></path>
<path d="M9.36601 92.196C9.25401 92.392 9.08601 92.56 8.86201 92.7C8.63801 92.84 8.27401 92.882 7.77001 92.826C7.26601 93.89 6.65001 95.01 5.92201 96.186C5.19401 97.334 4.36801 98.468 3.44401 99.588C2.54801 100.68 1.54001 101.66 0.420005 102.528L5.16325e-06 102.066C0.644005 100.89 1.20401 99.574 1.68001 98.118C2.18401 96.634 2.60401 95.164 2.94001 93.708C3.27601 92.224 3.50001 90.894 3.61201 89.718L9.36601 92.196ZM7.14001 66.24C8.84801 66.464 10.178 66.842 11.13 67.374C12.11 67.878 12.768 68.438 13.104 69.054C13.468 69.67 13.58 70.272 13.44 70.86C13.328 71.42 13.034 71.882 12.558 72.246C12.11 72.61 11.578 72.792 10.962 72.792C10.346 72.792 9.70201 72.526 9.03001 71.994C8.97401 71.014 8.70801 70.02 8.23201 69.012C7.78401 68.004 7.30801 67.164 6.80401 66.492L7.14001 66.24ZM12.894 100.428C12.894 101.408 12.768 102.262 12.516 102.99C12.264 103.718 11.746 104.306 10.962 104.754C10.178 105.202 8.96001 105.496 7.30801 105.636C7.28001 104.964 7.23801 104.39 7.18201 103.914C7.12601 103.438 6.98601 103.046 6.76201 102.738C6.53801 102.43 6.21601 102.164 5.79601 101.94C5.40401 101.716 4.81601 101.534 4.03201 101.394V100.848C4.03201 100.848 4.17201 100.862 4.45201 100.89C4.76001 100.89 5.11001 100.904 5.50201 100.932C5.92201 100.96 6.31401 100.988 6.67801 101.016C7.04201 101.044 7.30801 101.058 7.47601 101.058C7.78401 101.058 7.98001 100.988 8.06401 100.848C8.14801 100.708 8.19001 100.526 8.19001 100.302V81.99H12.894V100.428ZM35.154 104.334C35.126 104.474 34.762 104.726 34.062 105.09C33.39 105.482 32.424 105.678 31.164 105.678H30.282V81.192H35.154V104.334ZM39.186 70.356C38.934 70.58 38.598 70.706 38.178 70.734C37.786 70.762 37.268 70.678 36.624 70.482C35.644 70.818 34.482 71.14 33.138 71.448C31.822 71.756 30.422 72.036 28.938 72.288C27.454 72.54 25.984 72.736 24.528 72.876L24.36 72.33C25.508 71.826 26.698 71.224 27.93 70.524C29.162 69.796 30.31 69.054 31.374 68.298C32.466 67.542 33.348 66.856 34.02 66.24L39.186 70.356ZM27.426 71.574C27.314 71.854 26.95 72.036 26.334 72.12V83.88C26.334 85.756 26.236 87.688 26.04 89.676C25.872 91.636 25.466 93.582 24.822 95.514C24.178 97.418 23.184 99.238 21.84 100.974C20.524 102.682 18.704 104.236 16.38 105.636L15.918 105.216C17.598 103.172 18.844 100.988 19.656 98.664C20.468 96.312 20.986 93.89 21.21 91.398C21.462 88.878 21.588 86.344 21.588 83.796V69.684L27.426 71.574ZM35.112 77.538C35.112 77.538 35.28 77.678 35.616 77.958C35.952 78.21 36.372 78.56 36.876 79.008C37.38 79.428 37.898 79.876 38.43 80.352C38.99 80.828 39.494 81.276 39.942 81.696C39.914 81.92 39.788 82.088 39.564 82.2C39.368 82.312 39.116 82.368 38.808 82.368H23.856V81.192H32.466L35.112 77.538ZM19.362 75.438C19.278 75.662 19.11 75.858 18.858 76.026C18.634 76.166 18.284 76.222 17.808 76.194C17.164 77.118 16.338 78.154 15.33 79.302C14.35 80.45 13.342 81.514 12.306 82.494H11.676C11.928 81.654 12.18 80.716 12.432 79.68C12.684 78.644 12.908 77.608 13.104 76.572C13.328 75.508 13.51 74.542 13.65 73.674L19.362 75.438ZM4.11601 73.716C5.57201 74.36 6.67801 75.06 7.43401 75.816C8.21801 76.544 8.72201 77.272 8.94601 78C9.19801 78.728 9.24001 79.386 9.07201 79.974C8.93201 80.534 8.63801 80.982 8.19001 81.318C7.77001 81.626 7.29401 81.752 6.76201 81.696C6.23001 81.64 5.69801 81.332 5.16601 80.772C5.19401 79.652 5.04001 78.462 4.70401 77.202C4.39601 75.942 4.04601 74.85 3.65401 73.926L4.11601 73.716ZM13.65 90.474C15.246 91.062 16.464 91.734 17.304 92.49C18.172 93.218 18.746 93.96 19.026 94.716C19.334 95.472 19.418 96.172 19.278 96.816C19.166 97.432 18.886 97.922 18.438 98.286C18.018 98.65 17.528 98.818 16.968 98.79C16.408 98.762 15.834 98.468 15.246 97.908C15.274 97.096 15.19 96.256 14.994 95.388C14.826 94.52 14.574 93.68 14.238 92.868C13.93 92.056 13.58 91.342 13.188 90.726L13.65 90.474ZM17.724 78.588C17.724 78.588 17.962 78.798 18.438 79.218C18.914 79.61 19.474 80.086 20.118 80.646C20.762 81.206 21.322 81.738 21.798 82.242C21.686 82.69 21.322 82.914 20.706 82.914H0.378005L0.0420052 81.696H15.414L17.724 78.588ZM16.968 84.93C16.968 84.93 17.192 85.126 17.64 85.518C18.116 85.882 18.648 86.33 19.236 86.862C19.824 87.394 20.37 87.912 20.874 88.416C20.762 88.864 20.384 89.088 19.74 89.088H1.09201L0.756005 87.912H14.826L16.968 84.93ZM17.052 69.642C17.052 69.642 17.276 69.838 17.724 70.23C18.2 70.594 18.746 71.042 19.362 71.574C19.978 72.106 20.538 72.624 21.042 73.128C20.93 73.576 20.552 73.8 19.908 73.8H1.09201L0.756005 72.624H14.826L17.052 69.642ZM82.068 75.564V76.74H57.75V75.564H82.068ZM74.466 66.786C74.438 67.066 74.312 67.318 74.088 67.542C73.864 67.738 73.486 67.892 72.954 68.004V76.152H68.04V66.282L74.466 66.786ZM87.108 68.592C87.08 68.872 86.954 69.124 86.73 69.348C86.506 69.544 86.114 69.684 85.554 69.768V77.538C85.554 77.622 85.344 77.748 84.924 77.916C84.532 78.084 84.014 78.238 83.37 78.378C82.754 78.49 82.11 78.546 81.438 78.546H80.598V68.004L87.108 68.592ZM61.992 68.592C61.964 68.9 61.824 69.166 61.572 69.39C61.348 69.586 60.97 69.726 60.438 69.81V71.196H55.566V68.676V67.962L61.992 68.592ZM59.22 70.02L60.438 70.734V76.74H60.69L59.136 78.966L53.97 76.32C54.278 75.984 54.656 75.648 55.104 75.312C55.58 74.948 56.014 74.696 56.406 74.556L55.566 76.11V70.02H59.22ZM82.362 82.83C82.362 82.83 82.6 83.026 83.076 83.418C83.58 83.81 84.168 84.3 84.84 84.888C85.54 85.476 86.17 86.05 86.73 86.61C86.618 87.03 86.24 87.24 85.596 87.24H62.244L61.95 86.064H79.926L82.362 82.83ZM84.672 90.6C84.672 90.6 84.826 90.726 85.134 90.978C85.442 91.202 85.82 91.51 86.268 91.902C86.744 92.294 87.234 92.728 87.738 93.204C88.27 93.652 88.746 94.086 89.166 94.506C89.054 94.926 88.676 95.136 88.032 95.136H60.312L60.018 93.96H82.152L84.672 90.6ZM75.726 104.544C75.726 104.656 75.362 104.866 74.634 105.174C73.906 105.51 72.884 105.678 71.568 105.678H70.644V86.064H75.726V104.544ZM84.924 77.286C84.924 77.286 85.078 77.412 85.386 77.664C85.694 77.916 86.086 78.252 86.562 78.672C87.038 79.064 87.528 79.484 88.032 79.932C88.564 80.38 89.04 80.8 89.46 81.192C89.348 81.612 88.97 81.822 88.326 81.822H57.162V80.646H82.404L84.924 77.286ZM54.768 80.226V78.63L60.564 80.646H59.808V88.038C59.808 89.41 59.724 90.88 59.556 92.448C59.388 93.988 58.996 95.542 58.38 97.11C57.792 98.678 56.896 100.19 55.692 101.646C54.516 103.074 52.892 104.348 50.82 105.468L50.442 105.132C51.786 103.452 52.752 101.66 53.34 99.756C53.928 97.824 54.306 95.864 54.474 93.876C54.67 91.888 54.768 89.956 54.768 88.08V80.646V80.226ZM119.784 97.824C123.536 97.964 126.63 98.244 129.066 98.664C131.502 99.084 133.406 99.602 134.778 100.218C136.15 100.806 137.088 101.408 137.592 102.024C138.124 102.64 138.334 103.214 138.222 103.746C138.11 104.278 137.788 104.698 137.256 105.006C136.724 105.342 136.094 105.51 135.366 105.51C134.638 105.51 133.938 105.272 133.266 104.796C132.034 103.816 130.27 102.724 127.974 101.52C125.706 100.316 122.92 99.28 119.616 98.412L119.784 97.824ZM124.656 90.306C124.544 90.558 124.362 90.782 124.11 90.978C123.858 91.146 123.494 91.216 123.018 91.188C122.822 92.616 122.542 93.96 122.178 95.22C121.842 96.452 121.282 97.6 120.498 98.664C119.714 99.728 118.566 100.694 117.054 101.562C115.57 102.43 113.568 103.2 111.048 103.872C108.556 104.572 105.406 105.174 101.598 105.678L101.346 104.964C104.454 104.208 107.016 103.424 109.032 102.612C111.048 101.8 112.658 100.918 113.862 99.966C115.066 99.014 115.948 97.992 116.508 96.9C117.096 95.808 117.488 94.604 117.684 93.288C117.908 91.972 118.048 90.53 118.104 88.962L124.656 90.306ZM112.14 98.496C112.14 98.636 111.93 98.832 111.51 99.084C111.09 99.308 110.558 99.518 109.914 99.714C109.298 99.91 108.654 100.008 107.982 100.008H107.31V86.652V84.594L112.476 86.652H131.208V87.828H112.14V98.496ZM128.352 86.652L130.62 84.174L135.324 87.744C135.212 87.912 135.016 88.08 134.736 88.248C134.484 88.416 134.134 88.542 133.686 88.626V97.404C133.686 97.488 133.448 97.614 132.972 97.782C132.524 97.95 131.978 98.118 131.334 98.286C130.718 98.426 130.144 98.496 129.612 98.496H128.772V86.652H128.352ZM126.42 74.64C126.812 75.648 127.526 76.6 128.562 77.496C129.598 78.364 131.054 79.134 132.93 79.806C134.834 80.45 137.2 80.982 140.028 81.402V81.906C138.88 82.158 138.012 82.592 137.424 83.208C136.836 83.824 136.486 84.804 136.374 86.148C133.994 85.448 132.09 84.482 130.662 83.25C129.234 81.99 128.142 80.618 127.386 79.134C126.658 77.65 126.14 76.208 125.832 74.808L126.42 74.64ZM128.184 73.338C128.156 73.618 128.016 73.856 127.764 74.052C127.54 74.248 127.19 74.374 126.714 74.43C126.546 75.606 126.252 76.74 125.832 77.832C125.412 78.924 124.684 79.96 123.648 80.94C122.64 81.892 121.17 82.76 119.238 83.544C117.306 84.328 114.73 85.042 111.51 85.686L111.216 84.972C113.596 84.132 115.486 83.264 116.886 82.368C118.314 81.472 119.392 80.534 120.12 79.554C120.848 78.546 121.338 77.496 121.59 76.404C121.842 75.284 122.01 74.094 122.094 72.834L128.184 73.338ZM102.732 67.248C104.524 67.248 105.938 67.444 106.974 67.836C108.038 68.228 108.808 68.718 109.284 69.306C109.76 69.866 109.984 70.44 109.956 71.028C109.956 71.616 109.774 72.134 109.41 72.582C109.046 73.03 108.57 73.31 107.982 73.422C107.394 73.506 106.75 73.338 106.05 72.918C105.882 72.246 105.602 71.588 105.21 70.944C104.846 70.272 104.412 69.642 103.908 69.054C103.404 68.438 102.9 67.934 102.396 67.542L102.732 67.248ZM103.992 78.084C104.356 78.084 104.622 78.056 104.79 78C104.958 77.944 105.196 77.762 105.504 77.454C105.756 77.258 105.98 77.076 106.176 76.908C106.372 76.712 106.624 76.46 106.932 76.152C107.268 75.816 107.73 75.368 108.318 74.808C108.934 74.22 109.76 73.422 110.796 72.414C111.832 71.378 113.162 70.062 114.786 68.466L115.374 68.844C114.954 69.376 114.436 70.062 113.82 70.902C113.204 71.714 112.574 72.54 111.93 73.38C111.286 74.22 110.698 74.99 110.166 75.69C109.662 76.362 109.326 76.838 109.158 77.118C108.878 77.566 108.64 78.014 108.444 78.462C108.248 78.91 108.15 79.316 108.15 79.68C108.15 80.128 108.248 80.576 108.444 81.024C108.64 81.472 108.836 81.962 109.032 82.494C109.256 83.026 109.34 83.698 109.284 84.51C109.256 85.238 108.99 85.826 108.486 86.274C107.982 86.722 107.254 86.946 106.302 86.946C105.882 86.946 105.504 86.792 105.168 86.484C104.86 86.176 104.636 85.77 104.496 85.266C104.748 83.614 104.818 82.298 104.706 81.318C104.594 80.31 104.286 79.68 103.782 79.428C103.474 79.288 103.152 79.176 102.816 79.092C102.508 79.008 102.158 78.952 101.766 78.924V78.084C101.766 78.084 101.906 78.084 102.186 78.084C102.494 78.084 102.83 78.084 103.194 78.084C103.558 78.084 103.824 78.084 103.992 78.084ZM124.194 67.122C124.166 67.346 124.04 67.514 123.816 67.626C123.592 67.738 123.2 67.808 122.64 67.836C121.856 69.236 120.89 70.636 119.742 72.036C118.622 73.408 117.376 74.668 116.004 75.816C114.632 76.964 113.148 77.916 111.552 78.672L111.132 78.378C112.112 77.398 113.008 76.236 113.82 74.892C114.66 73.548 115.388 72.106 116.004 70.566C116.648 68.998 117.138 67.486 117.474 66.03L124.194 67.122ZM132.804 70.776L135.282 68.256L139.692 72.414C139.524 72.582 139.314 72.694 139.062 72.75C138.81 72.806 138.474 72.862 138.054 72.918C137.55 73.394 136.948 73.912 136.248 74.472C135.548 75.004 134.82 75.536 134.064 76.068C133.308 76.572 132.594 77.02 131.922 77.412L131.544 77.118C131.768 76.53 131.992 75.844 132.216 75.06C132.44 74.276 132.65 73.506 132.846 72.75C133.042 71.966 133.182 71.308 133.266 70.776H132.804ZM135.072 70.776V71.952H117.138L117.726 70.776H135.072ZM173.628 75.9C174.468 77.944 175.518 79.876 176.778 81.696C178.038 83.488 179.438 85.154 180.978 86.694C182.518 88.206 184.128 89.55 185.808 90.726C187.488 91.874 189.182 92.84 190.89 93.624L190.764 94.044C189.784 94.24 188.888 94.73 188.076 95.514C187.292 96.27 186.69 97.25 186.27 98.454C184.142 96.914 182.238 95.052 180.558 92.868C178.906 90.684 177.45 88.192 176.19 85.392C174.958 82.592 173.936 79.498 173.124 76.11L173.628 75.9ZM171.78 76.572C170.184 81.416 167.692 85.812 164.304 89.76C160.916 93.68 156.66 96.942 151.536 99.546L151.116 99.126C153.524 97.222 155.68 94.996 157.584 92.448C159.516 89.9 161.168 87.198 162.54 84.342C163.912 81.486 164.962 78.672 165.69 75.9H171.78V76.572ZM175.182 66.912C175.154 67.248 175.014 67.528 174.762 67.752C174.538 67.976 174.09 68.144 173.418 68.256V104.124C173.418 104.292 173.222 104.488 172.83 104.712C172.438 104.936 171.92 105.132 171.276 105.3C170.66 105.496 170.002 105.594 169.302 105.594H168.336V66.198L175.182 66.912ZM177.198 91.02C177.198 91.02 177.352 91.16 177.66 91.44C177.968 91.692 178.36 92.042 178.836 92.49C179.312 92.91 179.802 93.372 180.306 93.876C180.838 94.352 181.314 94.814 181.734 95.262C181.622 95.71 181.244 95.934 180.6 95.934H160.566L160.23 94.716H174.594L177.198 91.02ZM184.38 71.91C184.38 71.91 184.562 72.064 184.926 72.372C185.29 72.68 185.738 73.058 186.27 73.506C186.83 73.954 187.404 74.444 187.992 74.976C188.58 75.48 189.126 75.956 189.63 76.404C189.518 76.852 189.126 77.076 188.454 77.076H153.132L152.754 75.9H181.482L184.38 71.91Z" fill="#C93B2A"></path>
</svg>