<svg xmlns="http://www.w3.org/2000/svg" width="1200" height="680" viewBox="0 0 1200 680" role="img" aria-label="Bank Lending to US Private Credit Vehicles"><style>
text{font-family:"DIN 2014","Barlow",Arial,Helvetica,sans-serif;fill:#182524}
.eyebrow{font-size:13px;font-weight:700;letter-spacing:2.2px;fill:#C93B2A}
.title{font-size:30px;font-weight:600;letter-spacing:-.3px}
.subtitle{font-size:15px;font-weight:400;fill:#6E7169}
.axis{font-size:13px;font-weight:500;fill:#6E7169}
.axis-title{font-size:13px;font-weight:700;letter-spacing:1.2px;fill:#6E7169}
.legend{font-size:14px;font-weight:600}
.value{font-size:13px;font-weight:700}
.source{font-size:12px;font-weight:500;fill:#6E7169}
.table-head{font-size:13px;font-weight:700;letter-spacing:.2px}
.table-question{font-size:14px;font-weight:600}
.table-cell{font-size:14px;font-weight:700}
.box-head{font-size:15px;font-weight:700}
.box-copy{font-size:12.5px;font-weight:500;fill:#2A302E}
.box-copy-light{font-size:12.5px;font-weight:500;fill:#FCF9F1}
.section-head{font-size:22px;font-weight:600}
.big-number{font-size:54px;font-weight:600;letter-spacing:-1px}
</style><rect width="1200" height="680" fill="#FCF9F1"/><rect x="64" y="40" width="10" height="10" fill="#C93B2A"/><text x="88" y="51" class="eyebrow">BANK EXPOSURE · US$ BILLIONS</text><text x="64" y="94" class="title">Bank Lending to US Private Credit Vehicles</text><text x="64" y="120" class="subtitle">Loans to BDCs and private debt funds have accelerated sharply since 2021</text><rect x="788.6" y="150" width="321.4" height="405" fill="#F1EBDD" opacity=".82"/><text x="806.6363636363636" y="170" class="axis-title">ACCELERATION AFTER 2021</text><line x1="100" y1="555.0" x2="1110" y2="555.0" stroke="#D8CEB0" stroke-opacity=".72"/><text x="85" y="560.0" class="axis" text-anchor="end">0</text><line x1="100" y1="487.5" x2="1110" y2="487.5" stroke="#D8CEB0" stroke-opacity=".72"/><text x="85" y="492.5" class="axis" text-anchor="end">10</text><line x1="100" y1="420.0" x2="1110" y2="420.0" stroke="#D8CEB0" stroke-opacity=".72"/><text x="85" y="425.0" class="axis" text-anchor="end">20</text><line x1="100" y1="352.5" x2="1110" y2="352.5" stroke="#D8CEB0" stroke-opacity=".72"/><text x="85" y="357.5" class="axis" text-anchor="end">30</text><line x1="100" y1="285.0" x2="1110" y2="285.0" stroke="#D8CEB0" stroke-opacity=".72"/><text x="85" y="290.0" class="axis" text-anchor="end">40</text><line x1="100" y1="217.5" x2="1110" y2="217.5" stroke="#D8CEB0" stroke-opacity=".72"/><text x="85" y="222.5" class="axis" text-anchor="end">50</text><line x1="100" y1="150.0" x2="1110" y2="150.0" stroke="#D8CEB0" stroke-opacity=".72"/><text x="85" y="155.0" class="axis" text-anchor="end">60</text><text x="100.0" y="584" class="axis" text-anchor="middle">2013</text><text x="191.8181818181818" y="584" class="axis" text-anchor="middle">2014</text><text x="283.6363636363636" y="584" class="axis" text-anchor="middle">2015</text><text x="375.45454545454544" y="584" class="axis" text-anchor="middle">2016</text><text x="467.27272727272725" y="584" class="axis" text-anchor="middle">2017</text><text x="559.090909090909" y="584" class="axis" text-anchor="middle">2018</text><text x="650.9090909090909" y="584" class="axis" text-anchor="middle">2019</text><text x="742.7272727272727" y="584" class="axis" text-anchor="middle">2020</text><text x="834.5454545454545" y="584" class="axis" text-anchor="middle">2021</text><text x="926.3636363636364" y="584" class="axis" text-anchor="middle">2022</text><text x="1018.1818181818181" y="584" class="axis" text-anchor="middle">2023</text><text x="1110.0" y="584" class="axis" text-anchor="middle">2024</text><text class="axis-title" x="0" y="0" text-anchor="middle" transform="translate(32 352.5) rotate(-90)">US$ BILLIONS</text><polyline points="100.0,521.2 191.8,514.5 283.6,507.8 375.5,494.2 467.3,480.8 559.1,474.0 650.9,440.2 742.7,426.8 834.5,406.5 926.4,251.2 1018.2,244.5 1110.0,183.8" fill="none" stroke="#C93B2A" stroke-width="5" stroke-linejoin="miter" stroke-linecap="square"/><rect x="96.0" y="517.2" width="8" height="8" fill="#FCF9F1" stroke="#C93B2A" stroke-width="3"/><rect x="187.8" y="510.5" width="8" height="8" fill="#FCF9F1" stroke="#C93B2A" stroke-width="3"/><rect x="279.6" y="503.8" width="8" height="8" fill="#FCF9F1" stroke="#C93B2A" stroke-width="3"/><rect x="371.5" y="490.2" width="8" height="8" fill="#FCF9F1" stroke="#C93B2A" stroke-width="3"/><rect x="463.3" y="476.8" width="8" height="8" fill="#FCF9F1" stroke="#C93B2A" stroke-width="3"/><rect x="555.1" y="470.0" width="8" height="8" fill="#FCF9F1" stroke="#C93B2A" stroke-width="3"/><rect x="646.9" y="436.2" width="8" height="8" fill="#FCF9F1" stroke="#C93B2A" stroke-width="3"/><rect x="738.7" y="422.8" width="8" height="8" fill="#FCF9F1" stroke="#C93B2A" stroke-width="3"/><rect x="830.5" y="402.5" width="8" height="8" fill="#FCF9F1" stroke="#C93B2A" stroke-width="3"/><rect x="922.4" y="247.2" width="8" height="8" fill="#FCF9F1" stroke="#C93B2A" stroke-width="3"/><rect x="1014.2" y="240.5" width="8" height="8" fill="#FCF9F1" stroke="#C93B2A" stroke-width="3"/><rect x="1106.0" y="179.8" width="8" height="8" fill="#FCF9F1" stroke="#C93B2A" stroke-width="3"/><polyline points="100.0,541.5 191.8,534.8 283.6,514.5 375.5,494.2 467.3,467.2 559.1,460.5 650.9,433.5 742.7,413.2 834.5,393.0 926.4,345.8 1018.2,325.5 1110.0,291.8" fill="none" stroke="#3D7070" stroke-width="5" stroke-linejoin="miter" stroke-linecap="square"/><rect x="96.0" y="537.5" width="8" height="8" fill="#FCF9F1" stroke="#3D7070" stroke-width="3"/><rect x="187.8" y="530.8" width="8" height="8" fill="#FCF9F1" stroke="#3D7070" stroke-width="3"/><rect x="279.6" y="510.5" width="8" height="8" fill="#FCF9F1" stroke="#3D7070" stroke-width="3"/><rect x="371.5" y="490.2" width="8" height="8" fill="#FCF9F1" stroke="#3D7070" stroke-width="3"/><rect x="463.3" y="463.2" width="8" height="8" fill="#FCF9F1" stroke="#3D7070" stroke-width="3"/><rect x="555.1" y="456.5" width="8" height="8" fill="#FCF9F1" stroke="#3D7070" stroke-width="3"/><rect x="646.9" y="429.5" width="8" height="8" fill="#FCF9F1" stroke="#3D7070" stroke-width="3"/><rect x="738.7" y="409.2" width="8" height="8" fill="#FCF9F1" stroke="#3D7070" stroke-width="3"/><rect x="830.5" y="389.0" width="8" height="8" fill="#FCF9F1" stroke="#3D7070" stroke-width="3"/><rect x="922.4" y="341.8" width="8" height="8" fill="#FCF9F1" stroke="#3D7070" stroke-width="3"/><rect x="1014.2" y="321.5" width="8" height="8" fill="#FCF9F1" stroke="#3D7070" stroke-width="3"/><rect x="1106.0" y="287.8" width="8" height="8" fill="#FCF9F1" stroke="#3D7070" stroke-width="3"/><text x="1100.0" y="169.75" class="value" text-anchor="end" style="fill:#9F2F24">55</text><text x="1100.0" y="277.75" class="value" text-anchor="end" style="fill:#1E4040">39</text><line x1="64" y1="624" x2="109" y2="624" stroke="#C93B2A" stroke-width="5"/><text x="122" y="629" class="legend">Loans to BDCs</text><line x1="338" y1="624" x2="383" y2="624" stroke="#3D7070" stroke-width="5"/><text x="396" y="629" class="legend">Loans to private debt funds</text><text x="1136" y="629" class="source" text-anchor="end">Source: US Federal Reserve</text></svg>