<svg xmlns="http://www.w3.org/2000/svg" width="1200" height="680" viewBox="0 0 1200 680" role="img" aria-label="More than 500 new US direct lending managers since the GFC"><style>
text{font-family:"DIN 2014","Barlow",Arial,Helvetica,sans-serif;fill:#182524}
.eyebrow{font-size:13px;font-weight:700;letter-spacing:2.2px;fill:#C93B2A}
.title{font-size:30px;font-weight:600;letter-spacing:-.3px}
.subtitle{font-size:15px;font-weight:400;fill:#6E7169}
.axis{font-size:13px;font-weight:500;fill:#6E7169}
.axis-title{font-size:13px;font-weight:700;letter-spacing:1.2px;fill:#6E7169}
.legend{font-size:14px;font-weight:600}
.value{font-size:13px;font-weight:700}
.source{font-size:12px;font-weight:500;fill:#6E7169}
.table-head{font-size:13px;font-weight:700;letter-spacing:.2px}
.table-question{font-size:14px;font-weight:600}
.table-cell{font-size:14px;font-weight:700}
.box-head{font-size:15px;font-weight:700}
.box-copy{font-size:12.5px;font-weight:500;fill:#2A302E}
.box-copy-light{font-size:12.5px;font-weight:500;fill:#FCF9F1}
.section-head{font-size:22px;font-weight:600}
.big-number{font-size:54px;font-weight:600;letter-spacing:-1px}
</style><rect width="1200" height="680" fill="#FCF9F1"/><rect x="64" y="40" width="10" height="10" fill="#C93B2A"/><text x="88" y="51" class="eyebrow">MARKET FORMATION · NUMBER OF NEW MANAGERS</text><text x="64" y="86" class="title"><tspan x="64" dy="0">More Than 500 New Managers Entered</tspan><tspan x="64" dy="34">US Direct Lending Since the GFC</tspan></text><text x="64" y="146" class="subtitle">The market’s manager base expanded most sharply after 2008</text><text x="1136" y="86" class="big-number" text-anchor="end" style="fill:#9F2F24">506</text><text x="1136" y="112" class="axis" text-anchor="end">new managers · 2009–2023</text><line x1="84" y1="560.0" x2="1138" y2="560.0" stroke="#D8CEB0" stroke-opacity=".72"/><text x="70" y="565.0" class="axis" text-anchor="end">0</text><line x1="84" y1="458.8" x2="1138" y2="458.8" stroke="#D8CEB0" stroke-opacity=".72"/><text x="70" y="463.75" class="axis" text-anchor="end">20</text><line x1="84" y1="357.5" x2="1138" y2="357.5" stroke="#D8CEB0" stroke-opacity=".72"/><text x="70" y="362.5" class="axis" text-anchor="end">40</text><line x1="84" y1="256.2" x2="1138" y2="256.2" stroke="#D8CEB0" stroke-opacity=".72"/><text x="70" y="261.25" class="axis" text-anchor="end">60</text><line x1="84" y1="155.0" x2="1138" y2="155.0" stroke="#D8CEB0" stroke-opacity=".72"/><text x="70" y="160.0" class="axis" text-anchor="end">80</text><rect x="95.6" y="549.9" width="29.5" height="10.1" fill="#7AAFAF"/><text x="110.35" y="540.875" class="value" text-anchor="middle" style="fill:#1E4040">2</text><text x="110.35" y="586" class="axis" text-anchor="middle">2004</text><rect x="148.3" y="539.8" width="29.5" height="20.2" fill="#7AAFAF"/><text x="163.05" y="530.75" class="value" text-anchor="middle" style="fill:#1E4040">4</text><text x="163.05" y="586" class="axis" text-anchor="middle">2005</text><rect x="201.0" y="529.6" width="29.5" height="30.4" fill="#7AAFAF"/><text x="215.75" y="520.625" class="value" text-anchor="middle" style="fill:#1E4040">6</text><text x="215.75" y="586" class="axis" text-anchor="middle">2006</text><rect x="253.7" y="534.7" width="29.5" height="25.3" fill="#7AAFAF"/><text x="268.45000000000005" y="525.6875" class="value" text-anchor="middle" style="fill:#1E4040">5</text><text x="268.45000000000005" y="586" class="axis" text-anchor="middle">2007</text><rect x="306.4" y="519.5" width="29.5" height="40.5" fill="#1E4040"/><text x="321.15" y="510.5" class="value" text-anchor="middle" style="fill:#1E4040">8</text><text x="321.15" y="586" class="axis" text-anchor="middle">2008</text><rect x="359.1" y="524.6" width="29.5" height="35.4" fill="#C93B2A"/><text x="373.85" y="586" class="axis" text-anchor="middle">2009</text><rect x="411.8" y="499.2" width="29.5" height="60.8" fill="#C93B2A"/><text x="426.55" y="586" class="axis" text-anchor="middle">2010</text><rect x="464.5" y="524.6" width="29.5" height="35.4" fill="#C93B2A"/><text x="479.25" y="586" class="axis" text-anchor="middle">2011</text><rect x="517.2" y="473.9" width="29.5" height="86.1" fill="#C93B2A"/><text x="531.95" y="586" class="axis" text-anchor="middle">2012</text><rect x="569.9" y="362.6" width="29.5" height="197.4" fill="#C93B2A"/><text x="584.6500000000001" y="353.5625" class="value" text-anchor="middle" style="fill:#9F2F24">39</text><text x="584.6500000000001" y="586" class="axis" text-anchor="middle">2013</text><rect x="622.6" y="423.3" width="29.5" height="136.7" fill="#C93B2A"/><text x="637.35" y="586" class="axis" text-anchor="middle">2014</text><rect x="675.3" y="367.6" width="29.5" height="192.4" fill="#C93B2A"/><text x="690.0500000000001" y="358.625" class="value" text-anchor="middle" style="fill:#9F2F24">38</text><text x="690.0500000000001" y="586" class="axis" text-anchor="middle">2015</text><rect x="728.0" y="352.4" width="29.5" height="207.6" fill="#C93B2A"/><text x="742.75" y="343.4375" class="value" text-anchor="middle" style="fill:#9F2F24">41</text><text x="742.75" y="586" class="axis" text-anchor="middle">2016</text><rect x="780.7" y="392.9" width="29.5" height="167.1" fill="#C93B2A"/><text x="795.45" y="586" class="axis" text-anchor="middle">2017</text><rect x="833.4" y="342.3" width="29.5" height="217.7" fill="#C93B2A"/><text x="848.1500000000001" y="333.3125" class="value" text-anchor="middle" style="fill:#9F2F24">43</text><text x="848.1500000000001" y="586" class="axis" text-anchor="middle">2018</text><rect x="886.1" y="382.8" width="29.5" height="177.2" fill="#C93B2A"/><text x="900.85" y="373.8125" class="value" text-anchor="middle" style="fill:#9F2F24">35</text><text x="900.85" y="586" class="axis" text-anchor="middle">2019</text><rect x="938.8" y="347.4" width="29.5" height="212.6" fill="#C93B2A"/><text x="953.5500000000001" y="338.375" class="value" text-anchor="middle" style="fill:#9F2F24">42</text><text x="953.5500000000001" y="586" class="axis" text-anchor="middle">2020</text><rect x="991.5" y="271.4" width="29.5" height="288.6" fill="#C93B2A"/><text x="1006.25" y="262.4375" class="value" text-anchor="middle" style="fill:#9F2F24">57</text><text x="1006.25" y="586" class="axis" text-anchor="middle">2021</text><rect x="1044.2" y="377.8" width="29.5" height="182.2" fill="#C93B2A"/><text x="1058.95" y="368.75" class="value" text-anchor="middle" style="fill:#9F2F24">36</text><text x="1058.95" y="586" class="axis" text-anchor="middle">2022</text><rect x="1096.9" y="195.5" width="29.5" height="364.5" fill="#C93B2A"/><text x="1111.65" y="186.5" class="value" text-anchor="middle" style="fill:#9F2F24">72</text><text x="1111.65" y="586" class="axis" text-anchor="middle">2023</text><line x1="347.5" y1="155" x2="347.5" y2="560" stroke="#182524" stroke-opacity=".55" stroke-width="1.5" stroke-dasharray="5 5"/><text x="357.5" y="175" class="axis-title">GFC</text><rect x="64" y="621" width="12" height="12" fill="#7AAFAF"/><text x="84" y="632" class="legend">Pre-GFC</text><rect x="190" y="621" width="12" height="12" fill="#C93B2A"/><text x="210" y="632" class="legend">Post-GFC</text><text x="1136" y="632" class="source" text-anchor="end">Source: PitchBook</text></svg>