<svg xmlns="http://www.w3.org/2000/svg" width="1200" height="680" viewBox="0 0 1200 680" role="img" aria-label="Shadow Banking Assets: China vs. US">
<style>text{font-family:DIN 2014, Barlow, Arial, Helvetica, sans-serif;fill:#222222}.title{font-size:28px;font-weight:700}.axis{font-size:14px;fill:#666666}.label{font-size:14px;font-weight:600}.small{font-size:12px;fill:#666666}.cell{font-size:14px}.head{font-size:14px;font-weight:700}.boxhead{font-size:14px;font-weight:700}.boxtext{font-size:12px}</style>
<rect width="100%" height="100%" fill="#ffffff"/>
<text class="title" x="600.0" y="45" text-anchor="middle">Shadow Banking Assets: China vs. US</text>
<line x1="105" y1="570.0" x2="1155" y2="570.0" stroke="#d9d9d9" stroke-width="1"/>
<text class="axis" x="87" y="575.0" text-anchor="end">0</text>
<line x1="105" y1="327.5" x2="1155" y2="327.5" stroke="#d9d9d9" stroke-width="1"/>
<text class="axis" x="87" y="332.5" text-anchor="end">25</text>
<line x1="105" y1="85.0" x2="1155" y2="85.0" stroke="#d9d9d9" stroke-width="1"/>
<text class="axis" x="87" y="90.0" text-anchor="end">50</text>
<text class="axis" x="105.0" y="600" text-anchor="middle">2016</text>
<text class="axis" x="255.0" y="600" text-anchor="middle">2017</text>
<text class="axis" x="405.0" y="600" text-anchor="middle">2018</text>
<text class="axis" x="555.0" y="600" text-anchor="middle">2019</text>
<text class="axis" x="705.0" y="600" text-anchor="middle">2020</text>
<text class="axis" x="855.0" y="600" text-anchor="middle">2021</text>
<text class="axis" x="1005.0" y="600" text-anchor="middle">2022</text>
<text class="axis" x="1155.0" y="600" text-anchor="middle">2023</text>
<text class="label" transform="translate(30 327.5) rotate(-90)" text-anchor="middle">US$ Trillions</text>
<polyline points="105.0,492.4 255.0,500.2 405.0,539.9 555.0,540.9 705.0,541.9 855.0,545.8 1005.0,547.7 1155.0,548.7" fill="none" stroke="#0d6073" stroke-width="5" stroke-linejoin="round" stroke-linecap="round"/>
<line x1="105" y1="638" x2="160" y2="638" stroke="#0d6073" stroke-width="5"/>
<text class="label" x="170" y="643">China Shadow Banking AUM</text>
<polyline points="105.0,303.2 255.0,271.2 405.0,277.1 555.0,230.5 705.0,191.7 855.0,131.6 1005.0,185.9 1155.0,128.6" fill="none" stroke="#b91c4b" stroke-width="5" stroke-linejoin="round" stroke-linecap="round"/>
<line x1="505" y1="638" x2="560" y2="638" stroke="#b91c4b" stroke-width="5"/>
<text class="label" x="570" y="643">US Shadow Banking (OFI) AUM</text>
<text class="small" x="105" y="670">Source: People&#x27;s Bank of China and Financial Stability Board</text>
</svg>
