<svg id="svg" version="1.1" viewBox="0 0 300 273.6137667304015" width="300" height="273.6137667304015" xmlns="http://www.w3.org/2000/svg"><svg xmlns="http://www.w3.org/2000/svg"><defs><clipPath id="clip-1"><rect x="0" y="0" transform="scale(0.14648,0.14647)" width="2048" height="1868" fill="none"></rect></clipPath></defs><g clip-path="url(#clip-1)" fill="none" fill-rule="nonzero" stroke="none" stroke-width="1" stroke-linecap="butt" stroke-linejoin="miter" stroke-miterlimit="10" stroke-dasharray="" stroke-dashoffset="0" font-family="none" font-weight="none" font-size="none" text-anchor="none" style="mix-blend-mode: normal"><path d="M196.85449,14.29538c2.45068,1.07284 4.7666,2.00632 7.21436,3.16112c27.67822,13.09465 49.9585,35.3823 63.04102,63.06387c4.22607,8.92892 7.0708,17.62143 9.24902,27.21256c6.47607,28.74644 3.14941,58.83311 -9.44971,85.47091c-9.94482,20.81838 -25.10742,38.70873 -44.01416,51.93388c-10.18945,6.98975 -21.27246,12.57627 -32.95166,16.61164c-6.57422,2.26596 -13.33301,3.95187 -20.20166,5.03725c-26.64536,4.61833 -54.0665,0.97991 -78.58623,-10.42603c-32.05386,-15.07219 -56.77881,-42.29588 -68.7022,-75.64659c-11.65581,-33.01089 -9.70775,-69.29972 5.41494,-100.87252c15.20039,-31.73759 42.41821,-56.11338 75.63486,-67.73712c19.96831,-7.06477 41.36104,-9.14148 62.31577,-6.0493c8.45361,1.1763 22.33154,4.10119 30.1084,7.88985l0.14063,0.06981c0.36182,0.16932 0.40137,0.20172 0.78662,0.28067zM145.63535,260.53948c-0.13506,-2.73321 -0.12026,-5.42247 -0.23437,-8.14543c-0.57334,-11.91567 -1.02993,-23.83574 -1.36963,-35.75874l-0.87847,-59.27371c-2.36133,3.12722 -3.97822,5.19837 -7.04429,7.71187c-1.39614,1.14543 -4.80469,3.57104 -5.83213,4.69743c3.85444,1.11906 7.67856,2.55012 11.4249,3.9841c0.64146,0.24461 1.04004,0.81147 1.17407,1.45888c-0.90747,2.7874 -16.92026,-0.6606 -19.69497,-0.79535c-1.08633,0.62105 -2.32383,1.32559 -3.34072,2.00523c-3.51372,2.34652 -7.61367,3.41138 -11.61914,4.59782c-0.5959,0.17577 -2.64844,0.84955 -3.20259,0.77045c-1.85742,-2.25717 6.5436,-8.41934 8.07554,-10.11258c-4.37051,-1.6742 -8.88032,-3.02909 -13.26724,-4.6696c-1.65,-0.61666 -4.75093,-1.60975 -4.74111,-3.79075c0.29985,-0.30027 0.40503,-0.32517 0.87334,-0.28855c5.22671,0.40573 10.5939,0.82611 15.75659,1.72693c2.7624,0.48336 5.67188,1.48232 8.39209,2.18539l0.15161,-0.07177c0.78457,-0.37351 1.48931,-0.80268 2.24165,-1.23038c3.65317,-2.07261 7.50688,-3.77464 11.31738,-5.53233c3.08496,-1.42373 5.83491,-3.15212 9.3189,-3.32496c-0.02754,-5.59238 -0.35449,-13.31245 -0.01479,-18.6945c-1.82549,-0.17064 -4.22227,-1.20402 -6.02373,-1.79504c-5.50869,-1.80734 -10.91001,-4.25698 -16.38062,-6.10153c-1.93477,0.60201 -10.59155,3.33844 -12.00908,3.22653c-1.12148,-1.76135 3.89312,-5.57364 4.88936,-6.77194c-5.64272,-3.43936 -11.99443,-6.96162 -16.76792,-11.576c-0.55781,-0.53932 -1.38735,-2.70992 -1.027,-3.49385c1.09966,-0.55821 11.91797,2.03526 13.81304,2.6465c4.76689,1.53769 8.44453,4.33593 12.60791,6.91051c2.9168,-2.00098 17.17456,-7.74204 20.78584,-8.72532c-0.23716,-4.99052 0.04014,-10.30006 -0.01274,-15.32808c-5.58853,0.61431 -10.63989,1.17238 -16.21011,2.03614c-3.42202,0.53053 -10.1354,1.76648 -13.31016,1.72561c-0.31509,-0.71333 0.32183,-1.23639 0.79644,-1.78391c5.44219,-1.46679 10.83999,-3.14744 16.70977,-3.64618c2.36763,-0.20111 9.07544,-0.14852 11.8125,-0.02959c0.07954,-0.05918 0.15908,-0.1185 0.23862,-0.17782c0.04351,-4.98525 -0.17959,-10.71678 0.12451,-15.66453c-2.7167,-0.35959 -6.94482,-2.2702 -9.56162,-3.34767c-7.75591,-3.19314 -22.48506,-9.14453 -25.36113,-17.62963c5.5106,0.56129 11.52466,1.99571 16.36318,4.69845c1.09014,0.60904 2.15391,1.31094 3.24067,1.89728c2.09341,-0.8661 3.76289,-2.03306 5.8708,-2.82563c3.16685,-1.19069 6.47139,-1.63905 9.68174,-2.67389c0.15117,-4.36874 -0.01816,-9.32191 0.2042,-13.51883c-4.99028,-0.56715 -22.53677,-7.35945 -23.81631,-12.95213l0.08877,-0.38025c0.70942,-0.39826 4.14961,0.55074 4.97944,0.76386c4.93257,1.26715 15.10386,6.71936 18.98174,9.98441c-0.14575,-3.38253 0.01436,-8.20578 0.09727,-11.65583c-5.24062,-1.89684 -8.65723,-3.25876 -12.93179,-6.93101l0.00615,-0.27801c0.62695,-0.48761 2.85396,0.22967 3.58066,0.51354c2.30273,0.55221 7.71973,3.07361 9.45996,4.61159c-0.07632,-1.14631 -0.09375,-1.61854 0.05581,-2.76133c1.99131,-2.47366 4.4502,-2.64752 6.30762,0.11601c0.07031,1.15949 0.16846,2.3887 0.16992,3.54438c1.80029,-1.07995 10.94238,-6.59324 12.79688,-5.5483c-0.19043,1.84675 -10.8252,7.07749 -12.81885,7.88734c0.09082,4.04884 0.68994,11.69391 0.36328,15.43398c5.38037,-4.171 13.06201,-10.33742 20.07275,-11.1275c-0.49805,0.89496 -1.08691,1.97667 -1.73437,2.74727c-3.18311,3.78943 -8.91064,6.32812 -13.44287,8.11921c-1.04443,0.41306 -3.66797,1.62381 -4.52344,1.8715l-0.24463,0.06811c-0.01318,3.33287 0.08936,6.70002 0.14795,10.03465c0.03223,1.90797 0.32813,4.08311 0.30615,5.96267c11.26025,-5.70971 23.43604,-9.39603 35.9707,-10.89065c0.89209,0.88265 -0.59766,2.53825 -1.35937,2.99628c-8.32764,5.00034 -18.38525,7.19218 -27.75,9.47307c-1.85742,0.44704 -5.43164,1.23829 -7.06934,1.19303c0.16113,1.81804 0.11426,4.40184 0.1084,6.26748c-0.00586,2.16723 0.08789,4.53733 0.04248,6.67541c6.22266,1.65311 12.26367,3.12781 17.72168,6.7986c0.54199,0.36413 1.34033,0.69107 1.95703,0.89745c3.6709,-1.69427 7.35791,-3.90632 11.34668,-5.09349c3.91992,-1.16652 9.44531,-1.84645 13.55127,-2.47659c0.13477,-0.0208 0.25781,0.26907 0.32666,0.3842c0.01318,0.61299 -0.52588,1.961 -0.95508,2.34476c-4.70947,4.20586 -12.25195,6.92369 -17.49902,9.91718c0.56982,0.68916 1.93213,2.33377 1.75195,3.2611c-1.01367,0.67393 -4.99805,-1.00291 -6.29443,-0.94871c-1.88379,0.07866 -3.97559,1.23522 -5.75977,1.79958c-3.78662,1.27374 -12.37646,4.81094 -16.13086,4.90147c-0.02344,5.79291 0.11426,11.60735 -0.00879,17.40538c2.74072,-0.17313 5.5708,-0.23377 8.31592,-0.14457c1.24219,0.04043 4.05469,0.06752 5.12109,0.35066c3.1333,0.83109 14.86523,2.46194 15.8291,5.33151c-0.06592,0.17841 -0.04834,0.29412 -0.24609,0.36589c-1.00488,0.3656 -12.15967,-1.49462 -14.15918,-1.86476c-2.98242,-0.55177 -5.92822,-1.29483 -8.9209,-1.80661c-1.97314,-0.33762 -3.97559,-0.55338 -5.96191,-0.7977c0.03516,5.98508 0.03955,11.97031 0.01318,17.95539c1.93945,0.29734 3.61084,0.93275 5.43164,1.63304c4.7417,1.82419 9.46582,3.73656 14.11377,5.7891c1.9585,0.86566 3.76025,1.99351 5.64844,2.96464c10.42383,-6.52762 18.35156,-8.25924 30.50098,-9.67301c-0.37061,2.2787 -0.67676,3.11697 -2.6792,4.52576c-1.70508,1.19977 -3.56543,2.19726 -5.37744,3.23137c-2.91211,1.68152 -5.8374,3.34108 -8.77441,4.97719c-1.62451,0.90228 -3.54346,1.8529 -5.09033,2.81523c2.34814,2.11948 6.43359,5.98493 7.94678,8.76355c0.23291,0.4277 0.43066,1.50575 0.52295,2.02281l-0.19043,-0.01465c-1.56445,-0.13329 -2.99121,-0.79975 -4.45752,-1.24796c-4.34619,-1.31973 -8.32471,-3.20632 -12.39404,-5.18958c-0.70166,-0.34275 -1.67871,0.05127 -2.37744,0.29881c-5.87109,2.08726 -16.91895,7.5112 -22.96582,5.79745c0.03662,3.11844 -0.1333,6.02155 -0.1582,9.1063c-0.02637,10.10379 -0.19629,20.20758 -0.51123,30.30551c-0.14941,5.0768 -0.26807,10.15359 -0.35742,15.23039c-0.09229,5.24817 -0.10986,10.40406 -0.49365,15.64784c-0.16113,2.2103 -0.00146,4.52459 -0.14648,6.74221c-0.2417,4.05587 -0.46729,8.12346 -0.51855,12.18958c-0.01172,1.00188 -0.09082,2.991 0.08496,3.92111c0.37354,0.36179 0.89502,0.33396 1.40479,0.32371c32.81543,-0.77485 63.96826,-14.59176 86.56787,-38.39528c22.85742,-23.98368 35.15771,-56.12158 34.1543,-89.23573c-1.04297,-32.76803 -15.02197,-63.78936 -38.87695,-86.28018c-23.78613,-22.42227 -55.47803,-34.52348 -88.1562,-33.66155l-0.21606,0.007c-8.70483,0.40238 -15.23848,0.98561 -23.84883,2.83375c-25.03901,5.61699 -47.73179,18.83043 -64.97534,37.8334c-21.7207,23.94384 -33.17812,55.45395 -31.90884,87.7559c1.22754,33.14623 15.72187,64.40821 40.22622,86.76457c15.91758,14.45261 35.13311,24.68676 56.12227,29.42959c8.9001,2.01109 16.89272,2.62482 25.94487,2.96757zM151.33008,166.93955c1.64502,-0.95062 3.84668,-2.98661 5.41553,-4.22285c1.13672,-0.89496 2.33496,-1.69031 3.41455,-2.534c2.30127,-1.36953 5.50635,-3.15652 7.61865,-4.68278c-3.79541,-2.84892 -7.55713,-5.11634 -11.08301,-8.40762c-1.91016,-1.782 -3.45264,-4.55169 -5.19434,-5.97746c-0.14941,2.12285 -0.08789,4.69333 -0.08496,6.84313c0.01611,4.25215 -0.00293,8.50429 -0.05713,12.75497c-0.01318,2.07407 0.08789,4.1628 -0.0293,6.22662zM143.06484,61.36375c-2.75991,1.63831 -5.46738,3.30431 -8.31973,4.78048c-0.81899,0.4239 -1.73394,0.90682 -2.48789,1.4249c1.80117,1.72708 3.12437,2.2891 4.91719,3.68544c1.60239,0.95999 4.41357,3.44551 5.95737,4.72496c-0.02798,-2.92802 0.0104,-5.85633 0.11528,-8.78259c0.05229,-1.68094 0.20288,-4.04913 0.13374,-5.68774c-0.0832,-0.0416 -0.23438,-0.12699 -0.31597,-0.14545zM164.23535,93.10617c-2.72754,-1.59408 -5.53711,-3.12825 -8.2207,-4.76642c-1.50586,-0.91854 -3.03809,-2.51745 -4.50586,-3.494c-0.40723,5.30954 0.27979,11.50335 -0.09375,16.71593c1.40039,-1.1195 6.16992,-4.49456 7.64941,-5.18958c1.36377,-0.83974 4.05029,-2.35604 5.1709,-3.26593zM128.92749,125.47608c2.66455,1.78523 4.73174,3.19841 7.35425,5.05717c2.59146,1.91149 4.3752,3.84861 6.87026,5.79598c-0.19131,-2.291 0.02871,-20.49437 -0.29224,-20.94566c-1.34927,1.22408 -2.60215,2.38855 -4.06069,3.49678c-2.94478,2.23798 -7.04985,4.40682 -9.87158,6.59573z" fill="#ca392e"></path><path d="M152.32324,179.14378c3.93896,-0.25194 7.27148,1.94371 10.6875,3.07742c7.97461,2.64972 14.58398,5.5045 21.33252,10.6062c3.6958,2.7918 7.99805,5.88973 10.48975,9.98954c0.26807,0.44235 0.40576,1.3461 0.49512,1.86901c-3.89648,-0.23875 -14.2793,-4.00314 -17.73486,-5.93367c-6.91846,-3.86399 -14.42725,-7.94037 -20.29102,-13.30425c-0.5376,-0.49215 -4.91016,-5.68173 -4.979,-6.30425z" fill="#ca392e"></path><path d="M96.04233,211.73575c5.2311,-0.38376 11.66089,0.22264 16.95337,0.32517c3.14194,0.06152 15.72158,0.09081 17.31548,2.3348c0.22559,2.46223 -10.2312,1.02385 -11.91577,0.94769c-6.37778,-0.2783 -12.75952,-0.45407 -19.14272,-0.52877c-2.22847,-0.104 -5.20781,0.01465 -7.4751,0.08496c-4.20425,0.13915 -8.40674,0.3281 -12.60659,0.56393c-3.76963,0.22557 -7.52461,0.48483 -11.30933,0.56832c-1.11636,0.0249 -2.11699,-0.07177 -2.42446,-1.43691c-0.2146,-0.95355 1.40757,-1.50575 2.1356,-1.58339c2.13926,-0.22557 4.32012,-0.18749 6.47944,-0.3325c7.31851,-0.54195 14.6521,-0.85687 21.99009,-0.94329z" fill="#ca392e"></path><path d="M192.09961,211.73136c5.00684,-0.15526 33.23145,0.1538 35.50195,2.59259c-0.0791,1.92467 -5.77734,1.47353 -7.00195,1.40615c-7.39307,-0.41013 -15.45117,-0.86859 -22.80908,-0.89203c-5.8418,-0.20799 -11.7627,0.18456 -17.48437,0.33689c-3.03516,0.08203 -14.68652,1.21281 -16.76953,0.67085c-0.50977,-0.36472 -0.62988,-0.7895 -0.89941,-1.36953c0.48193,-0.76752 0.77783,-1.41787 1.76074,-1.49404c1.78418,-0.13622 3.56836,-0.06152 5.35693,-0.18602c5.2749,-0.39402 10.55566,-0.70308 15.83936,-0.92425c2.17236,-0.08788 4.3374,-0.04541 6.50537,-0.14062z" fill="#ca392e"></path><path d="M100.34531,223.60309c1.25537,-0.16405 4.85684,-0.04541 6.24434,-0.02051c3.91699,0.06591 7.8334,0.16405 11.74878,0.29295c2.33247,0.08203 10.4937,0.93451 11.9272,2.46955c-0.25532,0.104 -0.51167,0.20653 -0.7689,0.30613c-3.25312,1.29483 -12.32827,0.22264 -15.95728,0.19335c-1.32026,-0.01025 -5.11172,-0.11279 -6.35684,-0.22996c-5.84941,-0.09081 -11.69985,0.06445 -17.53608,0.46725c-3.39771,0.21532 -6.83159,0.561 -10.23911,0.63716c-0.53804,-0.00439 -1.09365,-0.01318 -1.49517,-0.43356c-1.01411,-1.06194 -0.46494,-2.26449 0.94658,-2.4344c1.86079,-0.22411 3.66738,-0.28709 5.5229,-0.42038c2.15083,-0.15526 4.24658,-0.48044 6.39521,-0.59469c3.17329,-0.12743 6.39199,-0.16991 9.56836,-0.23289z" fill="#ca392e"></path><path d="M182.31738,223.58698c10.58643,0.01025 21.27832,-0.1743 31.65527,2.26596c0.82178,0.19335 1.64063,0.38962 2.46094,0.5859c-1.56299,0.20213 -3.38379,0.55221 -4.90869,0.66939c-4.94971,0.3779 -9.95068,0.03076 -14.90625,-0.18456c-5.6001,-0.53024 -11.61182,-0.31931 -17.22803,-0.18456c-4.83838,0.11571 -9.71338,0.81586 -14.55029,0.98577c-1.86475,0.06445 -2.81689,-1.14103 -1.32715,-2.6878c1.70215,-0.51705 2.99268,-0.41159 4.73145,-0.59029c2.48145,-0.2534 4.82373,-0.50094 7.31543,-0.63716c2.18848,-0.11864 4.64209,-0.01025 6.75732,-0.22264z" fill="#ca392e"></path><path d="M108.57759,235.31809c2.59277,-0.23729 6.16187,0.0542 8.82656,0.13622c4.38281,0.13183 9.3958,0.40427 13.25244,2.62775c-4.15488,1.89831 -12.6895,0.0791 -17.75376,0.28562c-5.9001,-0.13183 -11.67363,0.39841 -17.54092,0.96234c-0.74033,0.07031 -2.55542,0.26365 -3.14355,-0.17137c-0.2666,-0.36619 -0.3958,-0.67818 -0.42349,-1.13664c-0.02402,-0.39695 0.07412,-0.72358 0.34614,-1.02239c0.92329,-1.0136 14.07407,-1.64344 16.43657,-1.68152z" fill="#ca392e"></path><path d="M198.27246,238.6328c-5.59277,0.61373 -10.63037,-0.01465 -16.21436,-0.25047c-2.93115,-0.12304 -5.84473,-0.01611 -8.76709,0.2036c-1.53662,0.11571 -8.99414,1.31094 -9.91406,0.53756c-0.32373,-0.27098 -0.57861,-0.91107 -0.5127,-1.33292c0.0498,-0.31638 0.20654,-0.55074 0.44824,-0.74995c1.14404,-0.9389 3.72949,-0.84662 5.17529,-1.0136c7.4751,-0.86273 14.88428,-0.99163 22.36963,-0.03808c2.58545,0.32957 5.11377,1.00628 7.71094,1.3168c0.8833,0.15673 2.88428,0.31492 3.36621,0.82904c-0.71777,0.42331 -2.79932,0.49948 -3.66211,0.49801z" fill="#ca392e"></path><path d="M198.56836,237.30575c0.8833,0.15673 2.88428,0.31492 3.36621,0.82904c-0.71777,0.42331 -2.79932,0.49948 -3.66211,0.49801l0.49951,-0.21385c0.21387,-0.36472 0.17285,-0.22996 0.25928,-0.6313z" fill="#c5270e"></path><path d="M196.06787,14.01471l-0.19629,-0.94675c0.28125,-0.35967 0.104,-0.262 0.5332,-0.32756c0.70166,0.44708 0.91553,0.80417 0.44971,1.55498c-0.38525,-0.07895 -0.4248,-0.11135 -0.78662,-0.28067z" fill-opacity="0.01569" fill="#858189"></path></g></svg></svg>