<svg xmlns="http://www.w3.org/2000/svg" viewBox="0 0 280 210" role="img" aria-labelledby="title desc">
  <title id="title">Johnny Adji headshot</title>
  <desc id="desc">Illustrative headshot placeholder for Johnny Adji.</desc>
  <rect width="280" height="210" fill="#f2f0ea"/>
  <circle cx="140" cy="76" r="47" fill="#f2c7a7"/>
  <path d="M96 74c5-42 35-56 68-45 24 8 36 30 29 55-22-28-60-34-97-10z" fill="#1b2020"/>
  <path d="M75 210c8-55 44-85 65-85s59 30 65 85z" fill="#20242a"/>
  <path d="M118 132h44l-13 78h-18z" fill="#ffffff"/><path d="M134 144h12l10 66h-31z" fill="#9f3a2d"/>
  <circle cx="121" cy="81" r="4" fill="#2d2926"/><circle cx="158" cy="81" r="4" fill="#2d2926"/><path d="M121 104c12 8 27 8 38 0" fill="none" stroke="#8f5c4d" stroke-width="3" stroke-linecap="round"/>
  <g fill="none" stroke="#6d5b52" stroke-width="3"><circle cx="121" cy="81" r="14"/><circle cx="158" cy="81" r="14"/><path d="M135 81h9"/></g>
</svg>
