<svg xmlns="http://www.w3.org/2000/svg" viewBox="0 0 880 495" role="img" aria-labelledby="title desc">
  <title id="title">Chinese flag raised at sunrise in Shanghai</title>
  <desc id="desc">Illustrative archive image of a Chinese flag being raised before the Lujiazui skyline at sunrise.</desc>
  <defs><linearGradient id="sky" x1="0" y1="0" x2="0" y2="1"><stop offset="0" stop-color="#e4dfd5"/><stop offset="1" stop-color="#b9b0a2"/></linearGradient><filter id="haze"><feGaussianBlur stdDeviation="2"/></filter></defs>
  <rect width="880" height="495" fill="url(#sky)"/>
  <circle cx="372" cy="180" r="48" fill="#fff3cf" opacity=".55"/>
  <g fill="#4f5550" opacity=".42" filter="url(#haze)"><rect x="60" y="235" width="55" height="140"/><rect x="134" y="210" width="72" height="165"/><rect x="230" y="180" width="55" height="195"/><rect x="310" y="225" width="62" height="150"/><rect x="635" y="185" width="60" height="190"/><rect x="724" y="226" width="80" height="149"/><path d="M505 128h16v247h-16zM487 210a26 26 0 1 1 52 0a26 26 0 1 1-52 0z"/></g>
  <rect x="0" y="370" width="880" height="125" fill="#514d45" opacity=".35"/>
  <path d="M0 368h880" stroke="#302f2b" stroke-width="4" opacity=".25"/>
  <g stroke="#2a2f2d" stroke-width="5"><path d="M395 88v338"/><path d="M40 352h800" stroke-width="3" opacity=".55"/></g>
  <path d="M398 92c95-26 133 42 225 7v119c-89 38-139-32-225-3z" fill="#b31d1f"/><g fill="#f4d34e"><polygon points="425,116 431,133 449,133 434,144 440,162 425,151 410,162 416,144 401,133 419,133"/><polygon points="468,117 475,121 473,129 467,124 460,128 463,120"/><polygon points="486,140 493,144 491,152 485,147 478,151 481,143"/><polygon points="485,172 492,176 490,184 484,179 477,183 480,175"/><polygon points="464,196 471,200 469,208 463,203 456,207 459,199"/></g>
  <g fill="#182524" opacity=".82"><rect x="347" y="292" width="22" height="79"/><circle cx="358" cy="280" r="13"/><rect x="413" y="286" width="22" height="85"/><circle cx="424" cy="274" r="13"/><rect x="300" y="305" width="18" height="66"/><circle cx="309" cy="293" r="11"/></g>
  <rect x="322" y="374" width="148" height="23" fill="#7e2d24" opacity=".75"/>
</svg>
