<svg xmlns="http://www.w3.org/2000/svg" width="512" height="512" viewBox="0 0 974 974" role="img" aria-label="ShoreVest favicon">
  <circle cx="487" cy="487" r="487" fill="#cb3c2a"/>
  <path d="M462.8 766.3L462.5 646.6L409.2 606.3L355.8 566L352.2 567.9C350.2 569 330.3 579.5 308.1 591.4C285.8 603.3 267.3 613 266.9 613C266.5 613 263.1 607.3 259.4 600.2C255.7 593.2 250.8 583.9 248.4 579.5L244.1 571.4L278.5 553.1C297.5 543 313 534.4 313 534.1C313 533.8 298.3 522.5 280.4 509C262.5 495.5 247.2 484 246.3 483.3C244.9 482.2 246.6 479.6 259 463L273.2 444L275.9 445.9C277.3 446.9 292.9 458.6 310.4 471.9C328 485.2 342.5 495.9 342.7 495.7C342.8 495.5 346.6 479.5 350.9 460.1C355.3 440.7 359.1 424.6 359.4 424.3C359.9 423.8 367.1 425.3 397.1 432.1L405.7 434.1L395.2 481C389.4 506.9 384.8 528.1 385.1 528.3C385.3 528.5 402.9 541.8 424.2 557.9L463 587.1L463 513.8L462.9 440.5L409.8 400.5C380.6 378.5 356.2 360.5 355.6 360.5C355 360.5 334.8 371 310.6 383.9C276.3 402.2 266.6 406.9 265.9 405.9C265.4 405.1 262 398.9 258.4 392C254.7 385.1 250 376.3 247.8 372.4L244 365.2L278.5 346.9C297.5 336.8 313 328.3 313 328C313 327.7 297.7 316 279.1 302C259.1 287 245.3 276 245.5 275.2C246 273.9 272.9 238 273.4 238C273.6 238 289.2 249.7 308.1 263.9C327 278.2 342.6 289.8 342.7 289.6C342.9 289.4 359 218.4 359 217.6C359 217.2 405 227.7 405.4 228.1C405.5 228.3 401 249 395.4 274C389.7 299 385.1 320 385 320.7C385 321.4 396.1 330.3 409.8 340.6C423.4 350.9 440.9 364.2 448.8 370.2L463 381L463 294.7L463 208.4L418 189C393.2 178.4 373 169.5 373 169.4C373 169 391.2 126.5 391.5 126.2C391.7 126 407.1 132.4 425.9 140.5C444.6 148.5 460.7 155.3 461.5 155.6C462.8 156.1 463 152.2 463 122.1L463 88L487 88L511 88L511 122.1C511 152.2 511.2 156.1 512.5 155.6C513.3 155.3 529.4 148.5 548.1 140.5C566.9 132.4 582.3 126 582.5 126.2C583 126.7 601 168.7 601 169.3C601 169.6 580.8 178.5 556 189.1L511 208.3L511 294.7L511 381L546.2 354.4C565.6 339.8 583.3 326.4 585.4 324.6L589.4 321.3L579.1 275.6C573.5 250.5 569 229.4 569.3 228.7C569.5 228.1 579.8 225.3 592.3 222.5C614.4 217.5 614.9 217.5 615.4 219.5C615.7 220.6 619.3 236.8 623.5 255.5C627.7 274.2 631.2 289.6 631.4 289.7C631.5 289.8 647 278.2 666 264C684.9 249.7 700.5 238 700.7 238C701.2 238 728.1 274 728.5 275.3C728.7 276 714 287.7 695 302C676.3 316 661 327.7 661 328C661 328.3 676.6 336.8 695.5 346.9L730.1 365.2L725.7 373.4C723.3 377.8 718.2 387.3 714.5 394.3C709.4 403.9 707.4 407 706.2 406.5C705.4 406.2 685.3 395.6 661.6 382.9C633.6 367.9 618.1 360.1 617.2 360.7C616.5 361.1 592.4 379.3 563.5 401L511.1 440.5L511.1 513.9C511 572.4 511.3 587 512.2 586.3C512.9 585.7 530.4 572.5 551 557C571.6 541.4 588.7 528.5 589 528.3C589.2 528.1 584.7 507 579 481.4C571.7 448.5 568.9 434.7 569.8 434.2C571.6 433 614.1 423.8 614.7 424.4C615 424.7 618.8 440.4 623 459.3C627.2 478.2 630.9 494.2 631.1 494.9C631.4 495.7 644.3 486.6 663 472.4C680.3 459.3 695.9 447.6 697.6 446.3L700.7 444L714.4 462C721.9 471.9 728.3 480.5 728.5 481.2C728.8 482 715.8 492.4 695 508C676.4 522 661.1 533.7 661 534.1C661 534.4 676.5 542.9 695.4 553L729.9 571.3L728.3 574.4C721.4 588 707.7 613 707.1 613C706.7 613 688.2 603.3 665.9 591.4C643.7 579.5 623.9 569 621.8 567.9L618.2 566.1L564.8 606.4L511.5 646.7L511.2 766.3L511 886L487 886L463 886L462.8 766.3ZM283.4 836.7C283.2 836 283.1 825.3 283.2 813L283.5 790.5L355.2 790.2L427 790L427 814L427 838L355.5 838C298.5 838 283.8 837.7 283.4 836.7ZM547 814L547 790L619 790L691 790L691 814L691 838L619 838L547 838L547 814ZM209 723L209 699L318 699L427 699L427 723L427 747L318 747L209 747L209 723ZM547 723L547 699L656 699L765 699L765 723L765 747L656 747L547 747L547 723Z" fill="#fcf9f1" fill-rule="evenodd"/>
</svg>
